<?xml version="1.0" standalone="no"?>
<!DOCTYPE svg PUBLIC "-//W3C//DTD SVG 1.1//EN" "http://www.w3.org/Graphics/SVG/1.1/DTD/svg11.dtd" >
<svg xmlns="http://www.w3.org/2000/svg">
<metadata></metadata>
<defs>
<font id="futura_std_bookregular" horiz-adv-x="1261" >
<font-face units-per-em="2048" ascent="1690" descent="-358" />
<missing-glyph horiz-adv-x="630" />
<glyph unicode="&#xd;" horiz-adv-x="630" />
<glyph unicode=" "  horiz-adv-x="630" />
<glyph unicode="&#x09;" horiz-adv-x="630" />
<glyph unicode="&#xa0;" horiz-adv-x="630" />
<glyph unicode="!" horiz-adv-x="692" d="M231 90q0 47 34 80t81 33t81 -33t34 -80t-34 -82t-81 -35t-81 35t-34 82zM262 313v1231h168v-1231h-168z" />
<glyph unicode="&#x22;" horiz-adv-x="935" d="M209 1544h192l-36 -672h-119zM535 1544h192l-37 -672h-119z" />
<glyph unicode="#" d="M90 457v159h236l59 351h-219v159h244l73 418h158l-74 -418h254l72 418h162l-72 -418h188v-159h-215l-59 -351h207v-159h-236l-82 -457h-155l80 457h-252l-86 -457h-154l80 457h-209zM485 616h252l60 351h-252z" />
<glyph unicode="$" d="M152 375l165 47q6 -53 30 -102.5t60.5 -87t84 -62.5t102.5 -29v625q-70 29 -135.5 63.5t-115.5 83t-81 110.5t-31 148q0 80 28 146.5t77 117t115.5 82t142.5 42.5v210h135v-210q104 -14 190.5 -78t133.5 -156l-135 -88q-31 53 -77 99t-112 59v-506q76 -33 145.5 -71 t122 -88t83 -117.5t30.5 -159.5q0 -86 -28.5 -162t-79 -137.5t-121 -104.5t-152.5 -59v-226h-135v213q-84 4 -158 36t-132 86.5t-98 125t-54 150.5zM403 1165q0 -43 17.5 -75.5t44.5 -59t60.5 -47t68.5 -35.5v449q-82 -16 -136.5 -81t-54.5 -151zM729 156q98 33 153.5 111.5 t55.5 181.5q0 49 -17.5 87.5t-47 69.5t-67.5 55.5t-77 43.5v-549z" />
<glyph unicode="%" horiz-adv-x="1632" d="M66 1233q0 72 27.5 133t73.5 107.5t108.5 72t134.5 25.5q70 0 133 -25.5t109 -72t74 -107.5t28 -133t-28 -132.5t-75 -106.5t-109.5 -71.5t-131.5 -25.5q-70 0 -132.5 25.5t-109.5 70.5t-74.5 106.5t-27.5 133.5zM197 1233q0 -43 17 -80t46 -64.5t68 -44t82 -16.5 t81.5 16.5t67.5 44t46.5 64.5t17.5 80t-17.5 81t-46.5 65.5t-67.5 44t-81.5 16.5t-82 -16.5t-68 -44t-46 -65.5t-17 -81zM324 27l899 1544l82 -49l-893 -1549zM881 309q0 72 27.5 133.5t73.5 107.5t108.5 71.5t134.5 25.5q70 0 133 -25.5t109 -71.5t74 -107.5t28 -133.5 t-28 -132t-75 -106t-109.5 -72t-131.5 -26q-70 0 -132.5 26t-109.5 71t-74.5 106.5t-27.5 132.5zM1012 309q0 -43 17.5 -79.5t46 -64.5t67.5 -44.5t82 -16.5t82 16.5t67.5 44.5t46 64.5t17.5 79.5t-17.5 81t-46 65.5t-67.5 44t-82 16.5t-82 -16.5t-67.5 -44t-46 -65.5 t-17.5 -81z" />
<glyph unicode="&#x26;" horiz-adv-x="1423" d="M80 395q0 96 31.5 170t85 133.5t122 108.5t140.5 96l18 12q-27 37 -53.5 75t-49 78t-36.5 84t-14 91q0 74 25.5 134.5t70.5 103.5t107.5 66.5t134.5 23.5q66 0 125 -22.5t104 -62.5t71.5 -95.5t26.5 -122.5q0 -70 -23.5 -124t-62.5 -100.5t-88 -85t-98 -75.5l325 -416 l175 203l124 -103l-196 -229l262 -338h-217l-166 217q-51 -47 -107.5 -90t-118 -78t-129 -55.5t-139.5 -20.5q-88 0 -169.5 32t-144 87t-99.5 133t-37 170zM248 408q0 -55 22.5 -105.5t59.5 -88.5t86 -61.5t104 -23.5q57 0 112.5 20.5t105.5 52t96.5 69.5t87.5 75l-344 442 l-74 -49q-43 -31 -89 -63.5t-83 -72.5t-60.5 -88t-23.5 -107zM487 1255q0 -59 31 -104t64 -92l36 -51l15 10q33 25 67.5 50.5t62.5 54t45 63.5t17 82q0 72 -50 114.5t-118 42.5q-72 0 -121 -49t-49 -121z" />
<glyph unicode="'" horiz-adv-x="591" d="M201 1544h192l-37 -672h-118z" />
<glyph unicode="(" horiz-adv-x="587" d="M190 561q0 125 9.5 262.5t31 274.5t57.5 269t89 247l145 -70q-88 -233 -126 -481t-38 -502t38 -501.5t126 -481.5l-145 -70q-53 115 -89 247t-57.5 269.5t-31 274.5t-9.5 262z" />
<glyph unicode=")" horiz-adv-x="587" d="M66 -422q88 233 125.5 481t37.5 502t-37.5 502t-125.5 481l145 70q53 -115 89 -247t57.5 -269t30.5 -274.5t9 -262.5t-9 -262t-30.5 -274.5t-57.5 -269.5t-89 -247z" />
<glyph unicode="*" horiz-adv-x="1212" d="M223 1210l49 148l271 -101l-13 287h154l-12 -287l270 101l49 -148l-278 -77l178 -226l-125 -92l-160 242l-160 -242l-124 92l180 226z" />
<glyph unicode="+" d="M135 444v160h416v416h160v-416h415v-160h-415v-415h-160v415h-416z" />
<glyph unicode="," horiz-adv-x="630" d="M119 -307l190 532l152 -53l-232 -524z" />
<glyph unicode="-" horiz-adv-x="425" d="M4 418v151h420v-151h-420z" />
<glyph unicode="." horiz-adv-x="630" d="M201 90q0 47 33.5 80t80.5 33t81 -33t34 -80t-34 -82t-81 -35t-80.5 35t-33.5 82z" />
<glyph unicode="/" horiz-adv-x="1167" d="M37 -260l958 1950l135 -62l-960 -1950z" />
<glyph unicode="0" d="M78 770q0 80 13 170t43 179t74 171t105.5 144.5t140.5 99.5t177 37t177 -37t140.5 -99.5t105.5 -144.5t73.5 -171t43 -179t13.5 -170q0 -143 -37 -285.5t-107.5 -256t-174 -184.5t-234.5 -71q-133 0 -235.5 71t-173 184.5t-107.5 256t-37 285.5zM250 762q2 -53 10 -122 t26.5 -138.5t48.5 -136t72 -117.5t97 -83t127 -32t127 32t97 83t71.5 117.5t48 136t27 137.5t10.5 123q2 82 -16.5 193.5t-63.5 213t-118.5 172t-182.5 70.5t-182.5 -70.5t-118.5 -172t-63.5 -213t-16.5 -193.5z" />
<glyph unicode="1" d="M324 1384l90 160h338v-1544h-172v1384h-256z" />
<glyph unicode="2" d="M84 0l723 854q47 55 75.5 118.5t28.5 139.5q0 63 -24.5 118.5t-66.5 95.5t-97 62.5t-119 22.5q-70 0 -127 -24.5t-97 -66.5t-62.5 -100.5t-24.5 -125.5h-172q2 100 39 188t100.5 151.5t149.5 100.5t188 37q96 0 184 -34t155 -94.5t106.5 -144.5t39.5 -184 q0 -190 -116 -326l-535 -628h651v-160h-999z" />
<glyph unicode="3" d="M117 401h168q2 -59 27.5 -108t65.5 -85t92 -55.5t112 -19.5q63 0 118.5 24.5t96.5 66.5t63.5 98.5t22.5 119.5q0 147 -93.5 220t-234.5 69v160q61 2 116.5 14.5t97.5 40t66.5 74.5t24.5 121q0 123 -73.5 196.5t-196.5 73.5q-117 0 -180.5 -68.5t-73.5 -179.5h-170 q18 184 127.5 296t300.5 112q92 0 173 -31t139.5 -86t92 -133t33.5 -172q0 -102 -52 -196.5t-146 -141.5q113 -51 167 -155.5t54 -223.5q0 -102 -38 -186t-102.5 -144.5t-152.5 -94.5t-187 -34q-94 0 -177 31t-144 87t-98 135t-39 175z" />
<glyph unicode="4" d="M12 250l959 1380h4v-1220h190v-160h-190v-250h-172v250h-791zM313 410h490v698h-4z" />
<glyph unicode="5" d="M43 250l137 98q53 -94 142.5 -154.5t199.5 -60.5q86 0 157 30t123 83t80.5 125.5t28.5 156.5q0 82 -29.5 151t-81.5 119t-123 77.5t-151 27.5t-153.5 -27.5t-139.5 -70.5l224 739h614v-160h-493l-101 -329l92 8q115 0 209 -42t162 -114.5t105.5 -171t37.5 -211.5 q0 -121 -44 -221t-120.5 -174t-180 -115t-222.5 -41q-154 0 -274.5 73t-198.5 204z" />
<glyph unicode="6" d="M90 502q0 106 41 197.5t100 172.5l512 699l129 -96l-356 -480l4 -4q16 6 32.5 9.5t33.5 7.5q33 6 69 6q104 0 195.5 -41t159 -109.5t106.5 -162t39 -197.5q0 -111 -42 -207t-114.5 -169t-170 -114t-205.5 -41q-111 0 -207.5 42t-169 114t-114.5 168t-42 205zM262 498 q0 -76 27.5 -142.5t77 -116t115 -78t141.5 -28.5t141 28.5t114.5 78t77 116t27.5 142.5t-28.5 140t-78 112.5t-115 76t-138.5 27.5q-76 0 -141.5 -27.5t-115 -76t-77 -113t-27.5 -139.5z" />
<glyph unicode="7" d="M72 53l876 1331h-844v160h1139l-1036 -1571z" />
<glyph unicode="8" d="M160 432q0 119 58 220.5t169 150.5q-90 51 -139 143t-49 195q0 92 33.5 171t92 136t137.5 90t169 33t169 -33t137 -90t92 -136t34 -171q0 -102 -49 -194.5t-140 -143.5q111 -49 169.5 -150.5t58.5 -220.5q0 -100 -36 -184t-99.5 -145.5t-149.5 -95.5t-186 -34t-186.5 34 t-150 95.5t-99 145.5t-35.5 184zM332 430q0 -61 23.5 -115.5t63.5 -94.5t94 -63.5t118 -23.5q63 0 117.5 23.5t94.5 63.5t63.5 94.5t23.5 115.5t-23.5 115.5t-63.5 94.5t-94.5 63.5t-117.5 23.5t-117.5 -23.5t-94.5 -63.5t-63.5 -94t-23.5 -116zM362 1145q0 -55 22 -104.5 t57.5 -86t84.5 -58.5t105 -22q55 0 104 22t85 58.5t57.5 86t21.5 104.5t-21.5 103t-57.5 85t-85 57.5t-104 20.5t-104.5 -20.5t-85 -57.5t-57.5 -85t-22 -103z" />
<glyph unicode="9" d="M92 1044q0 111 42 206.5t115 167t170 112.5t206 41t206 -41t169.5 -112.5t114.5 -167t42 -206.5q0 -104 -42 -195t-101 -175l-512 -701l-129 88l356 490l-4 4q-31 -10 -64.5 -15t-68.5 -5q-106 0 -197.5 39.5t-159 109.5t-105.5 163t-38 197zM264 1051q0 -76 27.5 -140.5 t77 -112.5t115 -76t141.5 -28q74 0 139 28t114.5 76t78 112.5t28.5 140.5q0 74 -28.5 139t-78 114.5t-114.5 78t-139 28.5q-76 0 -141.5 -28.5t-115 -78t-77 -115t-27.5 -138.5z" />
<glyph unicode=":" horiz-adv-x="630" d="M201 90q0 47 33.5 80t80.5 33t81 -33t34 -80t-34 -82t-81 -35t-80.5 35t-33.5 82zM201 877q0 47 33.5 79.5t80.5 32.5t81 -32.5t34 -79.5t-34 -82t-81 -35t-80.5 34.5t-33.5 82.5z" />
<glyph unicode=";" horiz-adv-x="630" d="M123 -307l190 532l152 -53l-232 -524zM252 877q0 47 34 79.5t81 32.5t80.5 -32.5t33.5 -79.5t-33.5 -82t-80.5 -35t-81 34.5t-34 82.5z" />
<glyph unicode="&#x3c;" d="M135 453v143l991 424v-174l-753 -322l753 -321v-174z" />
<glyph unicode="=" d="M135 285v159h991v-159h-991zM135 604v160h991v-160h-991z" />
<glyph unicode="&#x3e;" d="M135 29v174l754 321l-754 322v174l991 -424v-143z" />
<glyph unicode="?" horiz-adv-x="999" d="M127 1221q0 80 30.5 144.5t82 110.5t120 70.5t144.5 24.5q78 0 145.5 -29t116.5 -78t77.5 -116.5t28.5 -145.5q0 -76 -27.5 -149.5t-82.5 -124.5q-53 -47 -129 -73t-144 -46q-66 -18 -111.5 -55t-45.5 -115q0 -70 49 -117t119 -47q43 0 74.5 16.5t51 44t30 62.5t10.5 74 h165q2 -74 -21.5 -138.5t-68.5 -112.5t-107.5 -76t-135.5 -28q-72 0 -133.5 26t-105.5 71t-69.5 105.5t-25.5 131.5q0 70 21.5 120t60.5 87t89 62.5t109 44.5q49 14 96.5 29.5t83 40t58.5 63.5t23 102q0 94 -59.5 153.5t-151.5 59.5q-88 0 -144.5 -58.5t-56.5 -144.5 q0 -49 12 -98h-170zM381 90q0 47 34 80t81 33t80.5 -33t33.5 -80t-33.5 -82t-80.5 -35t-81 35t-34 82z" />
<glyph unicode="@" horiz-adv-x="1638" d="M74 772q0 170 60.5 316.5t167 254t248.5 168t306 60.5q135 0 257 -42t224 -134q104 -92 167 -209t63 -260q0 -127 -33 -239t-94 -191q-74 -98 -158 -139.5t-158 -37.5q-43 2 -71.5 34t-38.5 91q-53 -53 -120 -89t-159 -36q-68 0 -130 29t-109 80t-76 119.5t-29 146.5 q0 92 30 179.5t84 155t131 108.5t173 41q78 0 144.5 -32t127.5 -112l29 125h145l-102 -522q-6 -25 -11 -55.5t-5 -57t9 -44t36 -17.5q35 0 74.5 33.5t74.5 89t59.5 125t28.5 143.5q8 135 -32.5 240.5t-118.5 179.5t-185.5 111.5t-232.5 37.5q-137 0 -252 -49t-199 -136 t-131 -207t-47 -259q0 -147 51.5 -267t141.5 -206t210.5 -132t260.5 -46q260 0 391 94l143 -104q-53 -29 -111.5 -53.5t-125 -43t-144 -30t-170.5 -11.5q-166 0 -310 60.5t-251.5 167t-170 253t-62.5 318.5zM535 709q0 -104 56 -175t165 -71q68 0 117 26.5t81.5 68.5 t51 95.5t24.5 108.5q14 123 -44 199.5t-165 76.5q-61 0 -114.5 -29.5t-91 -76.5t-59 -105.5t-21.5 -117.5z" />
<glyph unicode="A" horiz-adv-x="1431" d="M12 0l713 1618l694 -1618h-190l-182 438h-660l-186 -438h-189zM457 598h522l-258 619z" />
<glyph unicode="B" horiz-adv-x="1163" d="M156 0v1544h254q104 0 198 -20.5t165 -69.5t112 -129t41 -199q0 -94 -37 -170.5t-115 -130.5q70 -16 124 -54t92 -91t57.5 -116.5t19.5 -133.5q0 -115 -43 -196.5t-119 -134t-176 -76t-215 -23.5h-358zM328 160h172q72 0 142.5 11t126.5 42t91 86t35 143q0 90 -39 144.5 t-99.5 83t-135 38t-144.5 9.5h-149v-557zM328 864h65q74 0 139.5 7.5t114.5 34t78 78.5t29 142q0 88 -27 139.5t-74 78t-112.5 33.5t-145.5 7h-67v-520z" />
<glyph unicode="C" horiz-adv-x="1468" d="M68 766q0 166 63.5 312.5t173 256t256 173t311.5 63.5q258 0 461 -152v-213q-92 96 -214 150.5t-257 54.5q-129 0 -242.5 -52t-197.5 -140.5t-133 -204t-49 -242.5t49 -242.5t134 -203.5t199.5 -140.5t243.5 -52.5q131 0 253 56.5t214 148.5v-213q-100 -72 -219 -112 t-242 -40q-164 0 -310 62.5t-255.5 170t-174 252t-64.5 308.5z" />
<glyph unicode="D" horiz-adv-x="1388" d="M156 0v1544h290q86 0 166 -7t154 -27.5t144.5 -57.5t138.5 -94q133 -115 194.5 -264.5t61.5 -323.5q0 -170 -61.5 -315.5t-190.5 -259.5q-70 -61 -139.5 -99.5t-144.5 -60t-156 -28.5t-171 -7h-286zM328 160h125q70 0 135 6t125.5 23.5t117 49t109.5 80.5 q96 90 144.5 207t48.5 246q0 133 -50.5 254t-150.5 209q-106 94 -224 121.5t-255 27.5h-125v-1224z" />
<glyph unicode="E" horiz-adv-x="1093" d="M156 0v1544h800v-160h-628v-458h610v-160h-610v-606h628v-160h-800z" />
<glyph unicode="F" horiz-adv-x="978" d="M156 0v1544h702v-160h-530v-458h514v-160h-514v-766h-172z" />
<glyph unicode="G" horiz-adv-x="1679" d="M66 768q0 166 63.5 312.5t172 255t256 172t312.5 63.5q205 0 368 -87t286 -247l-125 -117q-98 137 -228.5 214t-302.5 77q-133 0 -247.5 -52t-199.5 -140.5t-134 -205t-49 -247.5q0 -123 47 -235.5t133 -200.5q86 -86 200.5 -141.5t237.5 -55.5q100 0 198.5 35 t177.5 99.5t127 152.5t48 196h-459v160h643q1 -22 1 -44q0 -54 -4 -106q-5 -71 -22.5 -138.5t-49 -131t-84.5 -125.5q-106 -123 -258 -190.5t-314 -67.5q-164 0 -308 63.5t-251.5 171t-171 252t-63.5 308.5z" />
<glyph unicode="H" horiz-adv-x="1462" d="M164 0v1544h172v-626h790v626h172v-1544h-172v758h-790v-758h-172z" />
<glyph unicode="I" horiz-adv-x="489" d="M160 0v1544h172v-1544h-172z" />
<glyph unicode="J" horiz-adv-x="643" d="M-135 -45l96 133q41 -39 82 -63.5t100 -24.5q63 0 97 33t49.5 82t18.5 105t3 102v1222h172v-1222q0 -92 -10 -185.5t-67 -169.5q-47 -63 -118 -95t-149 -32t-146.5 33t-127.5 82z" />
<glyph unicode="K" horiz-adv-x="1251" d="M156 0v1544h172v-661l657 661h232l-725 -719l749 -825h-237l-633 709l-43 -43v-666h-172z" />
<glyph unicode="L" horiz-adv-x="768" d="M156 0v1544h172v-1384h426v-160h-598z" />
<glyph unicode="M" horiz-adv-x="1835" d="M43 0l313 1632l562 -1296l563 1296l313 -1632h-176l-199 1044h-4l-497 -1107l-496 1107h-4l-199 -1044h-176z" />
<glyph unicode="N" horiz-adv-x="1708" d="M166 0v1610l1204 -1262v1196h172v-1614l-1204 1260v-1190h-172z" />
<glyph unicode="O" horiz-adv-x="1765" d="M78 770q0 166 63.5 311.5t173 255t256 172t312.5 62.5t312 -62.5t256 -172t173.5 -255t63.5 -311.5t-63.5 -311.5t-173.5 -253t-256 -170t-312 -62.5t-312.5 62.5t-256 170t-173 253t-63.5 311.5zM250 772q0 -131 49 -246.5t135 -202.5t202 -138.5t247 -51.5t246.5 51.5 t201.5 138.5t135.5 202.5t49.5 246.5t-49.5 248t-134.5 204t-200.5 137t-248.5 50t-249 -50t-201 -137t-134 -204t-49 -248z" />
<glyph unicode="P" horiz-adv-x="1030" d="M156 0v1544h254q100 0 199.5 -12t183.5 -70q86 -59 130 -153.5t44 -198.5q0 -94 -38 -183t-110 -149q-78 -66 -174 -84t-192 -18h-125v-676h-172zM328 836h114q72 0 135.5 12t111.5 44t77 85t29 137q0 94 -35 148.5t-92.5 81t-129 33.5t-147.5 7h-63v-548z" />
<glyph unicode="Q" horiz-adv-x="1765" d="M78 770q0 166 63.5 311.5t173 255t256 172t312.5 62.5q168 0 314 -63.5t255 -173t172.5 -256t63.5 -312.5q0 -162 -56.5 -295t-167.5 -250l232 -235h-219l-129 139q-96 -72 -222.5 -112t-242.5 -40q-166 0 -312.5 62.5t-256 170t-173 253t-63.5 311.5zM250 772 q0 -131 49 -246.5t135 -202.5t202 -138.5t247 -51.5q86 0 179 31t165 84l-373 375h225l267 -279q170 178 170 428q0 131 -49.5 248t-134.5 204t-200.5 137t-248.5 50t-249 -50t-201 -137t-134 -204t-49 -248z" />
<glyph unicode="R" horiz-adv-x="1110" d="M156 0v1544h223q111 0 212 -17.5t180 -64.5t126 -130t47 -214q0 -180 -103.5 -294.5t-283.5 -131.5l492 -692h-211l-467 678h-43v-678h-172zM328 829h53q74 0 143.5 9.5t125 39t89 84t33.5 144.5q0 94 -32.5 150.5t-87 84t-125 35.5t-148.5 8h-51v-555z" />
<glyph unicode="S" horiz-adv-x="1144" d="M82 373l168 47q8 -59 34.5 -111.5t66.5 -91.5t93.5 -61.5t114.5 -22.5t118.5 22.5t101.5 62.5t71 95.5t27 120.5q0 68 -25 115t-64.5 82t-91 60.5t-104.5 49.5l-94 41q-68 31 -129.5 66t-107.5 80t-72.5 105.5t-26.5 144.5q0 90 34.5 162.5t95 124t138.5 79t164 27.5 q129 0 233.5 -62.5t165.5 -177.5l-137 -88q-47 80 -107.5 124t-158.5 44q-51 0 -97.5 -17.5t-82 -49t-56 -75.5t-20.5 -98q0 -49 23.5 -86.5t58.5 -66.5t78 -49.5t81 -38.5l103 -45q76 -33 142.5 -71t117.5 -88t81 -116.5t30 -158.5q0 -102 -38 -189.5t-104.5 -151 t-154.5 -100.5t-189 -37q-92 0 -172 29t-142.5 81t-105.5 126t-61 164z" />
<glyph unicode="T" horiz-adv-x="962" d="M20 1384v160h922v-160h-377v-1384h-172v1384h-373z" />
<glyph unicode="U" horiz-adv-x="1402" d="M152 578v966h172v-919v-88t6 -90.5t20.5 -87.5t40.5 -78q51 -72 138 -110t173 -38q84 0 167 36t137 101q31 37 46 80t22 89t7 93.5v92.5v919h172v-966q0 -63 -4 -120t-17 -110t-41 -102t-73 -96q-80 -86 -189.5 -131.5t-226.5 -45.5q-111 0 -216 40t-183 118 q-51 49 -80.5 99.5t-45 105.5t-20.5 115.5t-5 126.5z" />
<glyph unicode="V" horiz-adv-x="1277" d="M12 1544h187l440 -1177l440 1177h187l-627 -1636z" />
<glyph unicode="W" horiz-adv-x="2234" d="M27 1544h186l405 -1157l500 1237l500 -1237l405 1157h187l-592 -1624l-500 1243l-500 -1243z" />
<glyph unicode="X" horiz-adv-x="1155" d="M27 0l456 799l-417 745h196l316 -581l315 581h197l-418 -745l456 -799h-196l-354 635l-355 -635h-196z" />
<glyph unicode="Y" horiz-adv-x="1214" d="M16 1544h199l393 -688l393 688h199l-506 -880v-664h-172v664z" />
<glyph unicode="Z" horiz-adv-x="1200" d="M29 0l841 1384h-735v160h1022l-844 -1384h822v-160h-1106z" />
<glyph unicode="[" horiz-adv-x="645" d="M213 -492v2106h389v-152h-221v-1802h221v-152h-389z" />
<glyph unicode="\" horiz-adv-x="1167" d="M37 1628l135 62l958 -1690l-133 -61z" />
<glyph unicode="]" horiz-adv-x="645" d="M43 -340h221v1802h-221v152h389v-2106h-389v152z" />
<glyph unicode="^" d="M135 659l422 885h148l421 -885h-182l-313 672l-318 -672h-178z" />
<glyph unicode="_" horiz-adv-x="1024" d="M0 -154h1024v-102h-1024v102z" />
<glyph unicode="`" horiz-adv-x="733" d="M160 1446l172 78l243 -336l-102 -58z" />
<glyph unicode="a" horiz-adv-x="1181" d="M74 479q0 102 31.5 195.5t91 163t145.5 110.5t195 41q98 0 184 -43t145 -121h4v138h164v-963h-164v133h-4q-127 -160 -331 -160q-106 0 -191.5 42t-146 112t-92 161t-31.5 191zM242 492q0 -72 20.5 -137.5t60 -117t98 -82t136.5 -30.5q80 0 139.5 29.5t100.5 80t61.5 116 t20.5 138.5q0 72 -22.5 135.5t-63.5 110.5t-101.5 75t-136.5 28q-72 0 -129 -29t-98 -77t-63.5 -110.5t-22.5 -129.5z" />
<glyph unicode="b" horiz-adv-x="1181" d="M147 0v1690h164v-865h4q59 78 145.5 121t184.5 43q106 0 192.5 -41t146.5 -110.5t92 -161.5t32 -195q0 -100 -33 -192t-92 -162t-144 -112t-192 -42q-100 0 -186 41t-146 119h-4v-133h-164zM303 492q0 -72 20.5 -137.5t60.5 -117t98.5 -82t135.5 -30.5q80 0 139.5 29.5 t100.5 80t61.5 116t20.5 138.5q0 72 -22.5 135.5t-63.5 110.5t-101.5 75t-136.5 28q-72 0 -129 -29t-98 -77t-63.5 -110.5t-22.5 -129.5z" />
<glyph unicode="c" horiz-adv-x="974" d="M59 481q0 106 41 199.5t111 162t163 107.5t199 39q78 0 155 -24.5t142 -71.5v-217h-4q-57 72 -128.5 117t-170.5 45q-74 0 -136 -29t-107 -78t-71 -113.5t-26 -136.5t23.5 -136t66.5 -113.5t104.5 -78t137.5 -28.5q104 0 179 44t134 122h5v-219q-72 -47 -146 -73 t-160 -26q-109 0 -203 39t-162.5 106.5t-107.5 161t-39 201.5z" />
<glyph unicode="d" horiz-adv-x="1181" d="M74 479q0 102 31.5 195.5t91 163t145.5 110.5t195 41q98 0 184 -43t145 -121h4v865h164v-1690h-164v133h-4q-59 -78 -146 -119t-185 -41q-106 0 -191.5 42t-146 112t-92 161t-31.5 191zM242 492q0 -72 20.5 -137.5t60 -117t98 -82t136.5 -30.5q80 0 139.5 29.5t100.5 80 t61.5 116t20.5 138.5q0 72 -22.5 135.5t-63.5 110.5t-101.5 75t-136.5 28q-72 0 -129 -29t-98 -77t-63.5 -110.5t-22.5 -129.5z" />
<glyph unicode="e" horiz-adv-x="1062" d="M70 469q0 106 30.5 201.5t90 166t146.5 111.5t200 41q117 0 204.5 -44t146 -119.5t84.5 -173.5q22 -80 22 -167q0 -19 -1 -39h-755q0 -68 23.5 -126t64.5 -101t99 -68.5t128 -25.5q104 0 175 56.5t118 142.5l139 -80q-70 -129 -183.5 -200t-260.5 -71q-109 0 -196 39 t-148.5 105.5t-94 157t-32.5 194.5zM246 586h575q-8 51 -33.5 97t-62.5 81t-85 54.5t-101 19.5t-102.5 -19.5t-89.5 -54.5t-66.5 -81t-34.5 -97z" />
<glyph unicode="f" horiz-adv-x="561" d="M80 811v152h90v383q0 59 5 127.5t38 121.5q41 66 107.5 93.5t140.5 27.5q29 0 58.5 -5t58.5 -15v-166q-29 10 -54.5 16t-56.5 6q-49 0 -77 -17t-40 -51t-14 -83t-2 -113v-325h244v-152h-244v-811h-164v811h-90z" />
<glyph unicode="g" horiz-adv-x="1187" d="M63 477q0 100 33 193.5t93.5 164t146.5 112.5t192 42q100 0 184.5 -43t143.5 -121h4v138h164v-916q0 -57 -2 -111.5t-11.5 -105.5t-28.5 -100t-56 -97q-68 -86 -166 -128t-207 -42q-100 0 -186 31t-148.5 88.5t-99.5 139t-39 184.5h164q2 -135 88 -213t219 -78 q94 0 154.5 33t95.5 88t47 128t12 154v115h-4q-59 -76 -147 -118t-187 -42q-104 0 -189 41t-145.5 111t-92.5 161t-32 191zM231 492q0 -72 20.5 -137.5t60.5 -117t98.5 -82t136.5 -30.5q80 0 139 29.5t100 80t61.5 116t20.5 138.5q0 72 -22.5 135.5t-63.5 110.5t-101 75 t-136 28q-72 0 -129.5 -29t-98.5 -77t-63.5 -110.5t-22.5 -129.5z" />
<glyph unicode="h" horiz-adv-x="1081" d="M156 0v1690h163v-840l5 -4q51 70 117.5 106.5t156.5 36.5q100 0 163.5 -33.5t100.5 -91t50.5 -133.5t13.5 -160v-571h-164v543q0 57 -5 111.5t-24.5 94t-60.5 64.5t-113 25q-84 0 -132 -36t-71.5 -91.5t-30 -123t-6.5 -130.5v-457h-163z" />
<glyph unicode="i" horiz-adv-x="536" d="M152 1325q0 47 34.5 82t81.5 35t82 -35t35 -82q0 -49 -35 -83t-82 -34t-81.5 34t-34.5 83zM186 0v963h164v-963h-164z" />
<glyph unicode="j" horiz-adv-x="536" d="M152 1325q0 47 34.5 82t81.5 35t82 -35t35 -82q0 -49 -35 -83t-82 -34t-81.5 34t-34.5 83zM186 -541v1504h164v-1504h-164z" />
<glyph unicode="k" horiz-adv-x="962" d="M147 0v1690h164v-1084l351 357h219l-412 -410l489 -553h-217l-387 438l-43 -43v-395h-164z" />
<glyph unicode="l" horiz-adv-x="464" d="M152 0v1690h163v-1690h-163z" />
<glyph unicode="m" horiz-adv-x="1572" d="M156 0v963h163v-105h5q39 59 98 95t133 36q86 0 156.5 -42t109.5 -118q43 80 122 120t167 40q92 0 151.5 -34.5t94.5 -91t48 -129t13 -148.5v-586h-164v559q0 47 -4 96.5t-21.5 90t-52 66.5t-98.5 26q-72 0 -112.5 -31t-62 -79t-28 -105.5t-6.5 -112.5v-510h-163v547 q0 45 -5.5 96t-23 94t-51 72t-93.5 29q-72 0 -114.5 -33t-64 -83t-28 -109.5t-6.5 -114.5v-498h-163z" />
<glyph unicode="n" horiz-adv-x="1081" d="M156 0v963h163v-117h5q51 70 117.5 106.5t156.5 36.5q100 0 163.5 -33.5t100.5 -91t50.5 -133.5t13.5 -160v-571h-164v543q0 57 -5 111.5t-24.5 94t-60.5 64.5t-113 25q-84 0 -132 -36t-71.5 -91.5t-30 -123t-6.5 -130.5v-457h-163z" />
<glyph unicode="o" horiz-adv-x="1150" d="M70 479q0 106 38.5 198.5t107.5 162t161 109.5t198 40t198.5 -40t161.5 -109.5t107.5 -161.5t38.5 -199q0 -106 -40 -198.5t-108.5 -161t-161 -107.5t-196.5 -39t-196 39t-160.5 107.5t-108.5 161t-40 198.5zM233 481q0 -74 25 -138t70 -113.5t108.5 -77t138.5 -27.5 q76 0 139.5 27.5t108.5 77t70 114t25 137.5q0 74 -25 138.5t-70 112.5t-108.5 77t-139.5 29t-139 -29t-108 -77t-70 -112.5t-25 -138.5z" />
<glyph unicode="p" horiz-adv-x="1181" d="M147 -541v1504h164v-138h4q59 80 145.5 122t186.5 42q106 0 191.5 -42t144.5 -112.5t92 -162.5t33 -193q0 -102 -32 -194t-91 -162t-145 -110t-195 -40q-98 0 -184 42t-146 120h-4v-676h-164zM303 492q0 -72 20.5 -137.5t60.5 -117t98.5 -82t135.5 -30.5q80 0 139.5 29.5 t100.5 80t61.5 116t20.5 138.5q0 72 -22.5 135.5t-63.5 110.5t-101.5 75t-136.5 28q-72 0 -129 -29t-98 -77t-63.5 -110.5t-22.5 -129.5z" />
<glyph unicode="q" horiz-adv-x="1181" d="M74 477q0 100 31.5 193.5t92 164t145.5 112.5t192 42q98 0 185 -42t146 -122h4v138h164v-1504h-164v676h-4q-59 -78 -145 -120t-184 -42q-109 0 -195 40t-145.5 110t-91 161t-31.5 193zM242 492q0 -72 20.5 -137.5t60 -117t98 -82t136.5 -30.5q80 0 139.5 29.5t100.5 80 t61.5 116t20.5 138.5q0 72 -22.5 135.5t-63.5 110.5t-101.5 75t-136.5 28q-72 0 -129 -29t-98 -77t-63.5 -110.5t-22.5 -129.5z" />
<glyph unicode="r" horiz-adv-x="686" d="M147 0v963h164v-105h4q43 57 88.5 94t124.5 37q41 0 77 -12t71 -33l-78 -149q-25 16 -45.5 29.5t-52.5 13.5q-68 0 -106 -38t-56.5 -93.5t-22.5 -117t-4 -108.5v-481h-164z" />
<glyph unicode="s" horiz-adv-x="817" d="M76 217l145 62q31 -68 73 -111t124 -43q66 0 110.5 41t44.5 106q0 53 -31.5 86t-80.5 57.5t-104.5 46t-104.5 53.5t-81 79t-32 123q0 61 22.5 111.5t62.5 86t91.5 55t110.5 19.5q84 0 153.5 -51t102.5 -127l-137 -72q-16 39 -51 69t-80 30q-43 0 -81 -30t-38 -77 q0 -33 19.5 -56.5t50 -43t70.5 -34.5t83 -34q43 -18 83 -40.5t70.5 -54.5t50 -76t19.5 -105q0 -68 -25.5 -126.5t-70.5 -99.5t-103.5 -64.5t-125.5 -23.5q-123 0 -212 64.5t-128 179.5z" />
<glyph unicode="t" horiz-adv-x="491" d="M63 811v152h101v346h164v-346h172v-152h-172v-811h-164v811h-101z" />
<glyph unicode="u" horiz-adv-x="1048" d="M143 408v555h164v-537q0 -61 6 -115.5t27.5 -95.5t66 -65.5t117.5 -24.5q74 0 118 24.5t65.5 65.5t27.5 95.5t6 115.5v537h164v-555q0 -96 -19.5 -176t-64.5 -137.5t-117.5 -89.5t-179.5 -32q-106 0 -179 32t-118 89.5t-64.5 137t-19.5 176.5z" />
<glyph unicode="v" horiz-adv-x="948" d="M2 963h186l287 -648l287 648h184l-471 -1026z" />
<glyph unicode="w" horiz-adv-x="1556" d="M6 963h187l284 -652l299 725l301 -725l287 652h186l-477 -1031l-297 717l-297 -717z" />
<glyph unicode="x" horiz-adv-x="1019" d="M2 0l410 512l-351 451h201l252 -328l252 328h205l-353 -451l400 -512h-199l-305 391l-307 -391h-205z" />
<glyph unicode="y" horiz-adv-x="1019" d="M-4 963h190l340 -691l312 691h186l-711 -1504h-186l311 631z" />
<glyph unicode="z" horiz-adv-x="1062" d="M20 0l695 811h-565v152h894l-692 -811h664v-152h-996z" />
<glyph unicode="{" horiz-adv-x="684" d="M104 496v131q51 16 82 43.5t47.5 68.5t20.5 94.5t4 120.5v383q0 61 18.5 112.5t45 88.5t57.5 56.5t53 19.5h150v-152h-82q-55 0 -64.5 -42t-9.5 -113v-387q0 -90 -20.5 -155t-47 -108t-52 -66.5t-36.5 -29.5q10 -6 36 -29.5t52.5 -66.5t47 -108.5t20.5 -155.5v-385 q0 -72 9 -114t65 -42h82v-152h-150q-23 0 -53.5 19.5t-57 56.5t-45 88.5t-18.5 112.5v381q0 68 -4 122t-20.5 95t-47 68.5t-82.5 44.5z" />
<glyph unicode="|" horiz-adv-x="1167" d="M504 -438v2048h160v-2048h-160z" />
<glyph unicode="}" horiz-adv-x="684" d="M102 -340h82q55 0 64.5 42t9.5 114v385q0 90 20.5 155.5t47 108.5t52 66.5t36.5 29.5q-10 6 -36 29.5t-52.5 66.5t-47 107.5t-20.5 155.5v387q0 72 -9 113.5t-65 41.5h-82v152h150q23 0 53.5 -19.5t57 -56.5t45 -88t18.5 -113v-383q0 -68 4 -121t20.5 -94t46 -68.5 t83.5 -43.5v-131q-53 -16 -83 -44t-46.5 -69t-20.5 -95.5t-4 -121.5v-381q0 -61 -18.5 -112.5t-45 -88.5t-57.5 -56.5t-53 -19.5h-150v152z" />
<glyph unicode="~" d="M135 410q23 61 51.5 115.5t63.5 96.5t78 65.5t92 23.5q53 0 111.5 -29t111.5 -64q27 -16 53.5 -35.5t52 -36t49 -27.5t44.5 -11q43 0 82 57.5t63 141.5l139 -58q-20 -61 -48.5 -115.5t-63.5 -96.5t-78 -65.5t-94 -23.5q-53 0 -107.5 30t-101.5 60q-68 45 -120 78t-93 33 q-43 0 -80 -56.5t-64 -140.5z" />
<glyph unicode="&#xa1;" horiz-adv-x="692" d="M231 877q0 47 34 79.5t81 32.5t81 -32.5t34 -79.5t-34 -82t-81 -35t-81 34.5t-34 82.5zM262 -582v1231h168v-1231h-168z" />
<glyph unicode="&#xa2;" d="M195 778q0 94 31.5 181.5t88 157t135 114.5t175.5 57v217h135v-213q133 -12 246 -90v-217h-5q-45 57 -106 101t-135 55v-705q78 10 140.5 57.5t105.5 106.5h4v-219q-55 -37 -119 -64.5t-131 -31.5v-230h-135v232q-90 10 -169 54t-137.5 111.5t-91 151.5t-32.5 174z M362 791q0 -61 17.5 -119t51.5 -106t83 -81.5t111 -46.5v699q-59 -12 -108.5 -45t-83.5 -81t-52.5 -105.5t-18.5 -114.5z" />
<glyph unicode="&#xa3;" d="M76 59q49 80 124.5 138.5t174.5 60.5q29 41 47 89t18 102q0 25 -3 50t-11 50h-260v131h205l-39 76q-25 47 -48.5 91t-42 89t-29.5 93t-11 104q0 94 36.5 175t99 139t145.5 91t175 33q100 0 183.5 -36t141.5 -97.5t91 -146.5t33 -183l-168 -45q0 66 -15.5 128t-48 110.5 t-85 77t-127.5 28.5q-59 0 -110.5 -21.5t-90.5 -58.5t-61.5 -88t-22.5 -111q0 -61 19.5 -118.5t48 -112.5t60.5 -109.5t54 -107.5h291v-131h-246q6 -23 10 -46.5t4 -45.5q0 -55 -19 -114.5t-48 -106.5l10 -5q27 -10 68 -24t83 -28.5t82 -25t64 -10.5q35 0 62.5 14.5t50 36 t40 49t33.5 54.5l140 -84q-23 -47 -53.5 -90t-70.5 -76t-88 -52.5t-104 -19.5q-63 0 -126.5 18.5t-123.5 41.5q-61 23 -117.5 41t-107.5 18q-63 0 -108 -35.5t-76 -89.5z" />
<glyph unicode="&#xa4;" d="M109 614q0 88 25.5 162t82.5 162l-82 82l74 74l86 -86q84 59 160.5 88.5t175.5 29.5q98 0 175 -29.5t161 -88.5l86 86l73 -74l-82 -82q57 -88 83 -162t26 -162t-25.5 -161.5t-83.5 -161.5l82 -82l-73 -74l-86 86q-84 -59 -161 -89t-175 -30t-175 30t-161 89l-86 -86 l-74 74l82 82q-57 88 -82.5 161.5t-25.5 161.5zM240 614q2 -78 32.5 -146.5t84 -120.5t124 -83t150.5 -31t150.5 31t123.5 83t84 121t33 146q2 82 -27.5 152t-83 120t-126 78.5t-154.5 30.5q-84 -2 -156 -30.5t-125 -78.5t-82.5 -120t-27.5 -152z" />
<glyph unicode="&#xa5;" d="M39 1544h199l393 -684l393 684h199l-318 -553h297v-131h-373l-112 -205h485v-131h-485v-524h-172v524h-486v131h486l-113 205h-373v131h297z" />
<glyph unicode="&#xa6;" horiz-adv-x="1167" d="M504 -182v512h160v-512h-160zM504 842v512h160v-512h-160z" />
<glyph unicode="&#xa7;" horiz-adv-x="1212" d="M209 596q0 113 55 202t160 132q-86 43 -133 116.5t-47 172.5q0 80 31.5 145.5t85 111.5t123 70.5t147.5 24.5q80 0 163 -36t130 -101q39 -53 55 -126t18 -139h-163q-6 117 -54.5 180.5t-150.5 63.5q-92 0 -154.5 -54t-62.5 -153q0 -59 25.5 -98t66.5 -65.5t95 -45 t110 -39.5q55 -20 108 -45.5t94 -67.5t67 -102.5t26 -150.5q0 -115 -58.5 -196t-157.5 -132q180 -92 181 -299q0 -84 -30 -148.5t-81 -110.5t-120.5 -69.5t-149.5 -23.5q-98 0 -167 27.5t-114 79t-66.5 125t-25.5 163.5h166q0 -104 48 -170.5t161 -66.5q98 0 154.5 52 t56.5 152q0 57 -20.5 95.5t-53.5 64t-76 44t-88 34.5q-55 23 -118.5 48.5t-110.5 64.5q-66 51 -95.5 119.5t-29.5 150.5zM381 598q0 -47 17.5 -88t48 -71.5t71.5 -49t88 -18.5t88 18.5t72 49t49.5 71.5t18.5 88t-18.5 88t-49.5 71.5t-72 48t-88 17.5t-88 -17.5t-71.5 -48 t-48 -71.5t-17.5 -88z" />
<glyph unicode="&#xa8;" horiz-adv-x="956" d="M166 1333q0 47 31.5 79t78.5 32t79 -32t32 -79t-31.5 -78.5t-79.5 -31.5q-47 0 -78.5 31.5t-31.5 78.5zM569 1333q0 47 32 79t79 32t79 -32t32 -79t-32 -78.5t-79 -31.5t-79 31.5t-32 78.5z" />
<glyph unicode="&#xa9;" horiz-adv-x="1638" d="M16 772q0 166 62.5 312.5t171 254t255 170t314.5 62.5t314.5 -62.5t255 -170t171 -254t62.5 -312.5t-62.5 -312.5t-171 -254t-255 -170t-314.5 -62.5t-314.5 62.5t-255 170t-171 254t-62.5 312.5zM139 772q0 -141 54.5 -264t147.5 -215t217 -144.5t261 -52.5t261 52.5 t217.5 144.5t147.5 215t54 264t-54 264t-147.5 215t-217.5 144.5t-261 52.5t-261 -52.5t-217 -144.5t-147.5 -215t-54.5 -264zM406 778q0 98 30.5 183.5t88 146.5t139 96t186.5 35q70 0 133.5 -20.5t112.5 -59.5t82.5 -95t48.5 -128h-125q-18 86 -85 133t-169 47 q-84 0 -143.5 -29.5t-99.5 -77.5t-58.5 -107.5t-18.5 -119.5q0 -72 21.5 -133t63.5 -107t101.5 -73t137.5 -27q102 0 164.5 49.5t85.5 137.5h125q-10 -72 -44 -129.5t-84 -97.5t-113.5 -61.5t-133.5 -21.5q-102 0 -184 36t-140.5 98.5t-90 145.5t-31.5 179z" />
<glyph unicode="&#xaa;" horiz-adv-x="708" d="M43 1264q0 61 20.5 117.5t59.5 98.5t94 66.5t127 24.5q63 0 118.5 -25.5t94.5 -72.5h4v81h107v-577h-107v80h-4q-80 -96 -215 -96q-70 0 -125 24.5t-94 66.5t-59.5 97t-20.5 115zM150 1272q0 -43 13 -83t39.5 -71t65.5 -49t88 -18q51 0 90 17t66 48t40 71t13 83 q0 88 -55.5 149.5t-153.5 61.5q-47 0 -85 -17.5t-65.5 -46t-41.5 -66.5t-14 -79z" />
<glyph unicode="&#xab;" horiz-adv-x="1024" d="M84 492l344 436l109 -86l-277 -350l277 -340l-109 -84zM432 492l344 436l109 -86l-277 -350l277 -340l-109 -84z" />
<glyph unicode="&#xac;" d="M135 604v160h991v-553h-159v393h-832z" />
<glyph unicode="&#xad;" horiz-adv-x="425" d="M4 418v151h420v-151h-420z" />
<glyph unicode="&#xae;" horiz-adv-x="1638" d="M16 772q0 166 62.5 312.5t171 254t255 170t314.5 62.5t314.5 -62.5t255 -170t171 -254t62.5 -312.5t-62.5 -312.5t-171 -254t-255 -170t-314.5 -62.5t-314.5 62.5t-255 170t-171 254t-62.5 312.5zM139 772q0 -141 54.5 -264t147.5 -215t217 -144.5t261 -52.5t261 52.5 t217.5 144.5t147.5 215t54 264t-54 264t-147.5 215t-217.5 144.5t-261 52.5t-261 -52.5t-217 -144.5t-147.5 -215t-54.5 -264zM520 340v874h381q59 0 115.5 -9t99.5 -35.5t69.5 -71.5t26.5 -115q0 -66 -21.5 -110t-58 -72.5t-88 -42t-108.5 -15.5l264 -403h-147l-262 403 h-148v-403h-123zM643 866h148q41 0 92 -1t97 8.5t78 34t32 77.5q0 33 -20.5 54.5t-51.5 32.5t-69 15.5t-72 4.5h-234v-226z" />
<glyph unicode="&#xaf;" horiz-adv-x="1021" d="M162 1257v140h700v-140h-700z" />
<glyph unicode="&#xb0;" horiz-adv-x="819" d="M102 1264q0 63 24 118.5t65.5 97.5t98 66.5t120.5 24.5q63 0 118.5 -24.5t97.5 -66.5t66.5 -97.5t24.5 -118.5t-24.5 -120t-66.5 -97.5t-97.5 -65.5t-118.5 -25t-120 25t-97.5 65.5t-65.5 97t-25 120.5zM201 1264q0 -88 60.5 -148.5t148.5 -60.5q43 0 80.5 16t66.5 44 t45 67t16 82t-16 80.5t-45 66.5t-67.5 45.5t-81.5 16.5t-81 -16.5t-67 -45.5t-44 -66.5t-15 -80.5z" />
<glyph unicode="&#xb1;" d="M135 0v160h991v-160h-991zM135 547v160h416v313h160v-313h415v-160h-415v-314h-160v314h-416z" />
<glyph unicode="&#xb2;" horiz-adv-x="755" d="M53 629l469 512q31 35 44.5 71.5t13.5 83.5q0 78 -53.5 123t-135.5 45q-92 0 -141 -49t-49 -131h-123q2 61 25.5 113.5t64.5 90.5t97.5 60.5t121.5 22.5q68 0 125 -20.5t99 -56.5t66.5 -86t24.5 -112q0 -49 -15 -102t-50 -92l-338 -367h403v-106h-649z" />
<glyph unicode="&#xb3;" horiz-adv-x="755" d="M74 868h123q0 -72 51 -110.5t127 -38.5q82 0 133 49t51 125q0 80 -54 127t-147 43v106q80 0 133.5 37t53.5 107q0 37 -14.5 65.5t-38 47t-53 28.5t-58.5 10q-68 0 -106.5 -35.5t-47.5 -101.5h-123q12 111 83 177.5t196 66.5q61 0 112.5 -18.5t90.5 -51.5t60.5 -80 t21.5 -104q0 -61 -34 -117.5t-95 -85.5q74 -29 108.5 -92.5t34.5 -134.5q0 -131 -87 -203t-224 -72q-61 0 -114.5 18.5t-93.5 52.5t-64.5 81t-24.5 104z" />
<glyph unicode="&#xb4;" horiz-adv-x="733" d="M160 1188l243 336l172 -78l-313 -316z" />
<glyph unicode="&#xb5;" horiz-adv-x="1048" d="M143 -541v1504h164v-537q0 -61 6 -115.5t27.5 -95.5t66 -65.5t117.5 -24.5q74 0 118 24.5t65.5 65.5t27.5 95.5t6 115.5v537h164v-555q0 -96 -19.5 -176t-64.5 -137.5t-117.5 -89.5t-179.5 -32q-53 0 -102 16.5t-115 80.5v-611h-164z" />
<glyph unicode="&#xb6;" horiz-adv-x="1212" d="M121 1018q-6 92 23.5 186t88 170t142.5 123t186 47h533v-133h-119v-1724h-133v1724h-166v-1724h-133v893q-86 0 -161 29.5t-130 86t-89 137t-42 185.5z" />
<glyph unicode="&#xb7;" horiz-adv-x="630" d="M201 524q0 47 33.5 80t80.5 33t81 -33t34 -80t-34 -81.5t-81 -34.5t-80.5 34.5t-33.5 81.5z" />
<glyph unicode="&#xb8;" horiz-adv-x="665" d="M160 -350l196 303l152 -62l-234 -299z" />
<glyph unicode="&#xb9;" horiz-adv-x="755" d="M233 1448l60 106h229v-925h-123v819h-166z" />
<glyph unicode="&#xba;" horiz-adv-x="690" d="M16 1264q0 63 26 119.5t70 97.5t104 65.5t130 24.5t129.5 -24.5t104.5 -65.5t70.5 -97.5t25.5 -119.5t-25.5 -118.5t-70.5 -96.5t-105.5 -64.5t-128.5 -23.5t-128 23.5t-105 64.5t-71 96t-26 119zM123 1266q0 -45 16.5 -84t46 -69t70.5 -46t90 -16t90 16t71 46t46 69 t16 84q0 43 -16 83t-46 68.5t-71 46t-90 17.5t-90 -17.5t-70.5 -46t-46 -68.5t-16.5 -83z" />
<glyph unicode="&#xbb;" horiz-adv-x="1024" d="M139 152l277 340l-277 350l109 86l344 -436l-344 -424zM487 152l277 340l-277 350l109 86l344 -436l-344 -424z" />
<glyph unicode="&#xbc;" horiz-adv-x="1892" d="M205 1448l59 106h230v-925h-123v819h-166zM428 23l899 1548l90 -49l-899 -1549zM940 150l623 829h2v-723h123v-106h-123v-150h-123v150h-502zM1147 256h295v389h-4z" />
<glyph unicode="&#xbd;" horiz-adv-x="1892" d="M205 1448l59 106h230v-925h-123v819h-166zM336 23l899 1548l90 -49l-899 -1549zM1038 0l469 512q31 35 44.5 72t13.5 84q0 78 -53.5 123t-135.5 45q-92 0 -141 -49.5t-49 -131.5h-123q2 61 25.5 113.5t64.5 90.5t97.5 60.5t121.5 22.5q68 0 125 -20.5t99 -56.5t67 -86 t25 -111q0 -49 -15.5 -102.5t-50.5 -92.5l-338 -367h404v-106h-650z" />
<glyph unicode="&#xbe;" horiz-adv-x="1892" d="M164 868h123q0 -72 51 -110.5t127 -38.5q82 0 133 49t51 125q0 80 -54 127t-146 43v106q80 0 133 37t53 107q0 37 -14.5 65.5t-38 47t-53 28.5t-58.5 10q-68 0 -106.5 -35.5t-47.5 -101.5h-122q12 111 82.5 177.5t195.5 66.5q61 0 112.5 -18.5t90.5 -51.5t60.5 -80 t21.5 -104q0 -61 -34 -117.5t-95 -85.5q74 -29 108.5 -92.5t34.5 -134.5q0 -131 -87 -203t-224 -72q-61 0 -114.5 18.5t-93.5 52.5t-64.5 81t-24.5 104zM547 23l899 1548l90 -49l-899 -1549zM981 150l623 829h2v-723h123v-106h-123v-150h-123v150h-502zM1188 256h295v389h-4 z" />
<glyph unicode="&#xbf;" horiz-adv-x="999" d="M127 -231q0 76 27.5 149.5t83.5 124.5q53 47 128.5 72.5t143.5 46.5q66 18 112 55t46 115q0 70 -49.5 117t-118.5 47q-43 0 -75 -16.5t-51.5 -44t-29.5 -62.5t-10 -74h-166q-2 74 21.5 138.5t68.5 112.5t107.5 75.5t136.5 27.5q72 0 133 -25.5t105 -70.5t70 -106.5 t26 -131.5t-21.5 -119.5t-60.5 -86.5t-90.5 -62.5t-108.5 -44.5q-49 -16 -96 -30.5t-83 -39t-58.5 -63.5t-22.5 -102q0 -94 59.5 -153.5t151.5 -59.5q88 0 144.5 58t56.5 144q0 49 -13 99h170l8 -109q0 -80 -30.5 -144.5t-81.5 -110.5t-120 -70.5t-144 -24.5 q-78 0 -145.5 28.5t-117 78t-78 117t-28.5 145.5zM389 874q0 47 34 81t81 34t80.5 -33.5t33.5 -81.5q0 -47 -33.5 -80.5t-80.5 -33.5t-81 33.5t-34 80.5z" />
<glyph unicode="&#xc0;" horiz-adv-x="1431" d="M12 0l713 1618l694 -1618h-190l-182 438h-660l-186 -438h-189zM428 1976l172 78l244 -336l-103 -57zM457 598h522l-258 619z" />
<glyph unicode="&#xc1;" horiz-adv-x="1431" d="M12 0l713 1618l694 -1618h-190l-182 438h-660l-186 -438h-189zM457 598h522l-258 619zM592 1718l244 336l172 -78l-314 -315z" />
<glyph unicode="&#xc2;" horiz-adv-x="1431" d="M12 0l713 1618l694 -1618h-190l-182 438h-660l-186 -438h-189zM395 1767l320 273l323 -273l-118 -92l-205 174l-203 -174zM457 598h522l-258 619z" />
<glyph unicode="&#xc3;" horiz-adv-x="1431" d="M12 0l713 1618l694 -1618h-190l-182 438h-660l-186 -438h-189zM358 1815q18 31 39 59.5t45.5 52t55 36.5t69.5 13q47 0 88 -14t78 -33q39 -16 71 -31.5t60 -15.5q43 0 70 32t45 66l96 -77q-29 -68 -85 -117t-132 -49q-37 0 -76 14t-77 33q-39 16 -75 30.5t-69 14.5 q-43 0 -64.5 -30t-37.5 -64zM457 598h522l-258 619z" />
<glyph unicode="&#xc4;" horiz-adv-x="1431" d="M12 0l713 1618l694 -1618h-190l-182 438h-660l-186 -438h-189zM403 1864q0 47 32 78.5t79 31.5t79 -31.5t32 -78.5t-32 -79t-79 -32t-79 32t-32 79zM457 598h522l-258 619zM807 1864q0 47 32 78.5t79 31.5t78.5 -31.5t31.5 -78.5t-31.5 -79t-78.5 -32t-79 32t-32 79z" />
<glyph unicode="&#xc5;" horiz-adv-x="1431" d="M12 0l713 1618l694 -1618h-190l-182 438h-660l-186 -438h-189zM457 598h522l-258 619zM518 1862q0 41 15.5 76.5t43 63.5t64.5 43t78 15t76.5 -15t63.5 -43t43.5 -63.5t15.5 -76.5q0 -84 -57.5 -142.5t-141.5 -58.5t-142.5 58.5t-58.5 142.5zM621 1862q0 -41 28.5 -70 t69.5 -29t68.5 29t27.5 70t-27.5 68.5t-68.5 27.5t-69.5 -27.5t-28.5 -68.5z" />
<glyph unicode="&#xc6;" horiz-adv-x="2048" d="M12 0l688 1544h678l70 -160h-625l193 -460h608l72 -160h-611l252 -604h627l68 -160h-805l-183 434h-659l-182 -434h-191zM459 594h516l-254 608z" />
<glyph unicode="&#xc7;" horiz-adv-x="1468" d="M68 766q0 166 63.5 312.5t173 256t256 173t311.5 63.5q258 0 461 -152v-213q-92 96 -214 150.5t-257 54.5q-129 0 -242.5 -52t-197.5 -140.5t-133 -204t-49 -242.5t49 -242.5t134 -203.5t199.5 -140.5t243.5 -52.5q131 0 253 56.5t214 148.5v-213q-100 -72 -219 -112 t-242 -40q-164 0 -310 62.5t-255.5 170t-174 252t-64.5 308.5zM561 -350l197 303l151 -62l-233 -299z" />
<glyph unicode="&#xc8;" horiz-adv-x="1093" d="M156 0v1544h800v-160h-628v-458h610v-160h-610v-606h628v-160h-800zM289 1976l172 78l244 -336l-103 -57z" />
<glyph unicode="&#xc9;" horiz-adv-x="1093" d="M156 0v1544h800v-160h-628v-458h610v-160h-610v-606h628v-160h-800zM422 1718l244 336l172 -78l-314 -315z" />
<glyph unicode="&#xca;" horiz-adv-x="1093" d="M156 0v1544h800v-160h-628v-458h610v-160h-610v-606h628v-160h-800zM225 1767l320 273l323 -273l-118 -92l-205 174l-203 -174z" />
<glyph unicode="&#xcb;" horiz-adv-x="1093" d="M156 0v1544h800v-160h-628v-458h610v-160h-610v-606h628v-160h-800zM236 1864q0 47 31.5 78.5t78.5 31.5t79 -31.5t32 -78.5t-32 -79t-79 -32t-78.5 32t-31.5 79zM639 1864q0 47 32 78.5t79 31.5t78.5 -31.5t31.5 -78.5t-31.5 -79t-78.5 -32t-79 32t-32 79z" />
<glyph unicode="&#xcc;" horiz-adv-x="489" d="M-14 1976l172 78l243 -336l-102 -57zM160 0v1544h172v-1544h-172z" />
<glyph unicode="&#xcd;" horiz-adv-x="489" d="M88 1718l244 336l172 -78l-314 -315zM160 0v1544h172v-1544h-172z" />
<glyph unicode="&#xce;" horiz-adv-x="489" d="M-76 1767l320 273l323 -273l-118 -92l-205 174l-203 -174zM160 0v1544h172v-1544h-172z" />
<glyph unicode="&#xcf;" horiz-adv-x="489" d="M-68 1864q0 47 32 78.5t79 31.5t79 -31.5t32 -78.5t-32 -79t-79 -32t-79 32t-32 79zM160 0v1544h172v-1544h-172zM336 1864q0 47 31.5 78.5t78.5 31.5t79 -31.5t32 -78.5t-31.5 -79t-79.5 -32q-47 0 -78.5 32t-31.5 79z" />
<glyph unicode="&#xd0;" horiz-adv-x="1388" d="M0 758v147h156v639h290q86 0 166 -7t154 -27.5t144.5 -57.5t138.5 -94q133 -115 194.5 -264.5t61.5 -323.5q0 -170 -61.5 -315.5t-190.5 -259.5q-70 -61 -139.5 -99.5t-144.5 -60t-156 -28.5t-171 -7h-286v758h-156zM328 160h125q70 0 135 6t125.5 23.5t117 49 t109.5 80.5q96 90 144.5 207t48.5 246q0 133 -50.5 254t-150.5 209q-106 94 -224 121.5t-255 27.5h-125v-479h274v-147h-274v-598z" />
<glyph unicode="&#xd1;" horiz-adv-x="1708" d="M166 0v1610l1204 -1262v1196h172v-1614l-1204 1260v-1190h-172zM496 1815q18 31 38.5 59.5t45 52t55.5 36.5t70 13q47 0 88 -14t77 -33q39 -16 71 -31.5t60 -15.5q43 0 70 32t45 66l96 -77q-29 -68 -85 -117t-132 -49q-37 0 -75.5 14t-77.5 33q-39 16 -75 30.5t-69 14.5 q-43 0 -64.5 -30t-37.5 -64z" />
<glyph unicode="&#xd2;" horiz-adv-x="1765" d="M78 770q0 166 63.5 311.5t173 255t256 172t312.5 62.5t312 -62.5t256 -172t173.5 -255t63.5 -311.5t-63.5 -311.5t-173.5 -253t-256 -170t-312 -62.5t-312.5 62.5t-256 170t-173 253t-63.5 311.5zM250 772q0 -131 49 -246.5t135 -202.5t202 -138.5t247 -51.5t246.5 51.5 t201.5 138.5t135.5 202.5t49.5 246.5t-49.5 248t-134.5 204t-200.5 137t-248.5 50t-249 -50t-201 -137t-134 -204t-49 -248zM594 1976l172 78l244 -336l-103 -57z" />
<glyph unicode="&#xd3;" horiz-adv-x="1765" d="M78 770q0 166 63.5 311.5t173 255t256 172t312.5 62.5t312 -62.5t256 -172t173.5 -255t63.5 -311.5t-63.5 -311.5t-173.5 -253t-256 -170t-312 -62.5t-312.5 62.5t-256 170t-173 253t-63.5 311.5zM250 772q0 -131 49 -246.5t135 -202.5t202 -138.5t247 -51.5t246.5 51.5 t201.5 138.5t135.5 202.5t49.5 246.5t-49.5 248t-134.5 204t-200.5 137t-248.5 50t-249 -50t-201 -137t-134 -204t-49 -248zM758 1718l243 336l173 -78l-314 -315z" />
<glyph unicode="&#xd4;" horiz-adv-x="1765" d="M78 770q0 166 63.5 311.5t173 255t256 172t312.5 62.5t312 -62.5t256 -172t173.5 -255t63.5 -311.5t-63.5 -311.5t-173.5 -253t-256 -170t-312 -62.5t-312.5 62.5t-256 170t-173 253t-63.5 311.5zM250 772q0 -131 49 -246.5t135 -202.5t202 -138.5t247 -51.5t246.5 51.5 t201.5 138.5t135.5 202.5t49.5 246.5t-49.5 248t-134.5 204t-200.5 137t-248.5 50t-249 -50t-201 -137t-134 -204t-49 -248zM561 1767l320 273l323 -273l-119 -92l-204 174l-203 -174z" />
<glyph unicode="&#xd5;" horiz-adv-x="1765" d="M78 770q0 166 63.5 311.5t173 255t256 172t312.5 62.5t312 -62.5t256 -172t173.5 -255t63.5 -311.5t-63.5 -311.5t-173.5 -253t-256 -170t-312 -62.5t-312.5 62.5t-256 170t-173 253t-63.5 311.5zM250 772q0 -131 49 -246.5t135 -202.5t202 -138.5t247 -51.5t246.5 51.5 t201.5 138.5t135.5 202.5t49.5 246.5t-49.5 248t-134.5 204t-200.5 137t-248.5 50t-249 -50t-201 -137t-134 -204t-49 -248zM524 1815q18 31 39 59.5t45.5 52t55 36.5t69.5 13q47 0 88 -14t78 -33q39 -16 70.5 -31.5t60.5 -15.5q43 0 69.5 32t45.5 66l96 -77 q-29 -68 -85 -117t-132 -49q-37 0 -76 14t-78 33q-39 16 -74.5 30.5t-68.5 14.5q-43 0 -64.5 -30t-37.5 -64z" />
<glyph unicode="&#xd6;" horiz-adv-x="1765" d="M78 770q0 166 63.5 311.5t173 255t256 172t312.5 62.5t312 -62.5t256 -172t173.5 -255t63.5 -311.5t-63.5 -311.5t-173.5 -253t-256 -170t-312 -62.5t-312.5 62.5t-256 170t-173 253t-63.5 311.5zM250 772q0 -131 49 -246.5t135 -202.5t202 -138.5t247 -51.5t246.5 51.5 t201.5 138.5t135.5 202.5t49.5 246.5t-49.5 248t-134.5 204t-200.5 137t-248.5 50t-249 -50t-201 -137t-134 -204t-49 -248zM571 1864q0 47 32 78.5t79 31.5t79 -31.5t32 -78.5t-32 -79t-79 -32t-79 32t-32 79zM975 1864q0 47 31.5 78.5t78.5 31.5t79 -31.5t32 -78.5 t-31.5 -79t-79.5 -32q-47 0 -78.5 32t-31.5 79z" />
<glyph unicode="&#xd7;" d="M135 141l383 383l-383 383l113 113l383 -383l381 383l114 -113l-383 -383l383 -383l-114 -112l-381 383l-383 -383z" />
<glyph unicode="&#xd8;" horiz-adv-x="1765" d="M78 770q0 166 63.5 311.5t173 255t256 172t312.5 62.5q147 0 278 -49t236 -138l188 187l94 -92l-188 -187q92 -104 144.5 -237t52.5 -285q0 -166 -63.5 -311.5t-173.5 -253t-256 -170t-312 -62.5q-150 0 -283 50.5t-240 140.5l-184 -184l-90 96l182 182 q-90 104 -140 234.5t-50 277.5zM250 772q0 -113 36 -213t101 -182l895 893q-80 66 -181.5 103.5t-217.5 37.5q-133 0 -249 -50t-201 -137t-134 -204t-49 -248zM479 283q84 -72 185.5 -111t218.5 -39q131 0 246.5 51.5t201.5 138.5t135.5 202.5t49.5 246.5q0 115 -37 216.5 t-105 187.5z" />
<glyph unicode="&#xd9;" horiz-adv-x="1402" d="M152 578v966h172v-919v-88t6 -90.5t20.5 -87.5t40.5 -78q51 -72 138 -110t173 -38q84 0 167 36t137 101q31 37 46 80t22 89t7 93.5v92.5v919h172v-966q0 -63 -4 -120t-17 -110t-41 -102t-73 -96q-80 -86 -189.5 -131.5t-226.5 -45.5q-111 0 -216 40t-183 118 q-51 49 -80.5 99.5t-45 105.5t-20.5 115.5t-5 126.5zM414 1976l172 78l243 -336l-102 -57z" />
<glyph unicode="&#xda;" horiz-adv-x="1402" d="M152 578v966h172v-919v-88t6 -90.5t20.5 -87.5t40.5 -78q51 -72 138 -110t173 -38q84 0 167 36t137 101q31 37 46 80t22 89t7 93.5v92.5v919h172v-966q0 -63 -4 -120t-17 -110t-41 -102t-73 -96q-80 -86 -189.5 -131.5t-226.5 -45.5q-111 0 -216 40t-183 118 q-51 49 -80.5 99.5t-45 105.5t-20.5 115.5t-5 126.5zM578 1718l243 336l172 -78l-313 -315z" />
<glyph unicode="&#xdb;" horiz-adv-x="1402" d="M152 578v966h172v-919v-88t6 -90.5t20.5 -87.5t40.5 -78q51 -72 138 -110t173 -38q84 0 167 36t137 101q31 37 46 80t22 89t7 93.5v92.5v919h172v-966q0 -63 -4 -120t-17 -110t-41 -102t-73 -96q-80 -86 -189.5 -131.5t-226.5 -45.5q-111 0 -216 40t-183 118 q-51 49 -80.5 99.5t-45 105.5t-20.5 115.5t-5 126.5zM381 1767l319 273l324 -273l-119 -92l-205 174l-202 -174z" />
<glyph unicode="&#xdc;" horiz-adv-x="1402" d="M152 578v966h172v-919v-88t6 -90.5t20.5 -87.5t40.5 -78q51 -72 138 -110t173 -38q84 0 167 36t137 101q31 37 46 80t22 89t7 93.5v92.5v919h172v-966q0 -63 -4 -120t-17 -110t-41 -102t-73 -96q-80 -86 -189.5 -131.5t-226.5 -45.5q-111 0 -216 40t-183 118 q-51 49 -80.5 99.5t-45 105.5t-20.5 115.5t-5 126.5zM389 1864q0 47 32 78.5t79 31.5t78.5 -31.5t31.5 -78.5t-31.5 -79t-78.5 -32t-79 32t-32 79zM793 1864q0 47 31.5 78.5t78.5 31.5t79 -31.5t32 -78.5t-32 -79t-79 -32t-78.5 32t-31.5 79z" />
<glyph unicode="&#xdd;" horiz-adv-x="1214" d="M16 1544h199l393 -688l393 688h199l-506 -880v-664h-172v664zM524 1718l244 336l172 -78l-313 -315z" />
<glyph unicode="&#xde;" horiz-adv-x="1030" d="M156 0v1544h172v-287h82q100 0 199.5 -12t183.5 -69q86 -59 130 -153.5t44 -199.5q0 -94 -38 -183t-110 -148q-78 -66 -174 -84.5t-192 -18.5h-125v-389h-172zM328 549h114q72 0 135.5 12t111.5 44t77 85t29 137q0 94 -35 148.5t-92.5 81t-129 34t-147.5 7.5h-63v-549z " />
<glyph unicode="&#xdf;" horiz-adv-x="1181" d="M57 811v152h90v294q0 41 3.5 83t11.5 83t23.5 79t41.5 71q57 74 146.5 108.5t179.5 34.5q84 0 156.5 -28.5t126 -80t84 -122t30.5 -154.5q0 -92 -44 -175t-128 -124q76 -27 137.5 -78t104.5 -116.5t65.5 -143.5t22.5 -155q0 -121 -48 -223.5t-129 -178.5t-187.5 -119 t-223.5 -45v152q86 6 163 39t133 88t90 130t34 163q0 86 -38 168t-107 135q-59 45 -131 64.5t-144 25.5v152q57 0 105.5 16t84 49t56 79t20.5 105q0 102 -67.5 164t-167.5 62q-66 0 -127.5 -29t-85.5 -94q-23 -53 -25 -128t-2 -132v-1182h-164v811h-90z" />
<glyph unicode="&#xe0;" horiz-adv-x="1181" d="M74 479q0 102 31.5 195.5t91 163t145.5 110.5t195 41q98 0 184 -43t145 -121h4v138h164v-963h-164v133h-4q-127 -160 -331 -160q-106 0 -191.5 42t-146 112t-92 161t-31.5 191zM242 492q0 -72 20.5 -137.5t60 -117t98 -82t136.5 -30.5q80 0 139.5 29.5t100.5 80t61.5 116 t20.5 138.5q0 72 -22.5 135.5t-63.5 110.5t-101.5 75t-136.5 28q-72 0 -129 -29t-98 -77t-63.5 -110.5t-22.5 -129.5zM303 1446l172 78l244 -336l-103 -58z" />
<glyph unicode="&#xe1;" horiz-adv-x="1181" d="M74 479q0 102 31.5 195.5t91 163t145.5 110.5t195 41q98 0 184 -43t145 -121h4v138h164v-963h-164v133h-4q-127 -160 -331 -160q-106 0 -191.5 42t-146 112t-92 161t-31.5 191zM242 492q0 -72 20.5 -137.5t60 -117t98 -82t136.5 -30.5q80 0 139.5 29.5t100.5 80t61.5 116 t20.5 138.5q0 72 -22.5 135.5t-63.5 110.5t-101.5 75t-136.5 28q-72 0 -129 -29t-98 -77t-63.5 -110.5t-22.5 -129.5zM467 1188l244 336l172 -78l-314 -316z" />
<glyph unicode="&#xe2;" horiz-adv-x="1181" d="M74 479q0 102 31.5 195.5t91 163t145.5 110.5t195 41q98 0 184 -43t145 -121h4v138h164v-963h-164v133h-4q-127 -160 -331 -160q-106 0 -191.5 42t-146 112t-92 161t-31.5 191zM242 492q0 -72 20.5 -137.5t60 -117t98 -82t136.5 -30.5q80 0 139.5 29.5t100.5 80t61.5 116 t20.5 138.5q0 72 -22.5 135.5t-63.5 110.5t-101.5 75t-136.5 28q-72 0 -129 -29t-98 -77t-63.5 -110.5t-22.5 -129.5zM270 1176l320 272l323 -272l-118 -93l-205 174l-203 -174z" />
<glyph unicode="&#xe3;" horiz-adv-x="1181" d="M74 479q0 102 31.5 195.5t91 163t145.5 110.5t195 41q98 0 184 -43t145 -121h4v138h164v-963h-164v133h-4q-127 -160 -331 -160q-106 0 -191.5 42t-146 112t-92 161t-31.5 191zM238 1161q18 31 38.5 59.5t45 52t55.5 37t69 13.5q47 0 88 -14.5t78 -32.5q39 -16 71 -31.5 t60 -15.5q43 0 70 31.5t45 66.5l96 -78q-29 -68 -85 -117t-132 -49q-37 0 -75.5 14.5t-77.5 32.5q-39 16 -75 31t-69 15q-43 0 -64.5 -30t-37.5 -65zM242 492q0 -72 20.5 -137.5t60 -117t98 -82t136.5 -30.5q80 0 139.5 29.5t100.5 80t61.5 116t20.5 138.5q0 72 -22.5 135.5 t-63.5 110.5t-101.5 75t-136.5 28q-72 0 -129 -29t-98 -77t-63.5 -110.5t-22.5 -129.5z" />
<glyph unicode="&#xe4;" horiz-adv-x="1181" d="M74 479q0 102 31.5 195.5t91 163t145.5 110.5t195 41q98 0 184 -43t145 -121h4v138h164v-963h-164v133h-4q-127 -160 -331 -160q-106 0 -191.5 42t-146 112t-92 161t-31.5 191zM242 492q0 -72 20.5 -137.5t60 -117t98 -82t136.5 -30.5q80 0 139.5 29.5t100.5 80t61.5 116 t20.5 138.5q0 72 -22.5 135.5t-63.5 110.5t-101.5 75t-136.5 28q-72 0 -129 -29t-98 -77t-63.5 -110.5t-22.5 -129.5zM279 1333q0 47 31.5 79t78.5 32t79 -32t32 -79t-32 -78.5t-79 -31.5t-78.5 31.5t-31.5 78.5zM682 1333q0 47 32 79t79 32t78.5 -32t31.5 -79t-31.5 -78.5 t-78.5 -31.5t-79 31.5t-32 78.5z" />
<glyph unicode="&#xe5;" horiz-adv-x="1181" d="M74 479q0 102 31.5 195.5t91 163t145.5 110.5t195 41q98 0 184 -43t145 -121h4v138h164v-963h-164v133h-4q-127 -160 -331 -160q-106 0 -191.5 42t-146 112t-92 161t-31.5 191zM242 492q0 -72 20.5 -137.5t60 -117t98 -82t136.5 -30.5q80 0 139.5 29.5t100.5 80t61.5 116 t20.5 138.5q0 72 -22.5 135.5t-63.5 110.5t-101.5 75t-136.5 28q-72 0 -129 -29t-98 -77t-63.5 -110.5t-22.5 -129.5zM393 1331q0 41 15.5 77t43 63.5t64.5 43t78 15.5t77 -15.5t63.5 -43t43 -63.5t15.5 -77q0 -84 -57.5 -142.5t-141.5 -58.5t-142.5 58.5t-58.5 142.5z M496 1331q0 -41 28.5 -69.5t69.5 -28.5t68.5 28.5t27.5 69.5t-27.5 68.5t-68.5 27.5t-69.5 -27.5t-28.5 -68.5z" />
<glyph unicode="&#xe6;" horiz-adv-x="1726" d="M59 283q0 84 36 144t93.5 99t129 57.5t143.5 18.5q80 0 144.5 -18.5t129.5 -63.5q0 72 -14 130.5t-46 100.5t-85 64.5t-131 22.5q-76 0 -149.5 -18.5t-145.5 -43.5v156q78 23 151.5 40t153.5 17q53 0 107.5 -11t101.5 -35.5t86 -62.5t61 -89q57 96 161 147t212 51 q117 0 204 -44t145.5 -119.5t86 -174t23.5 -205.5h-758q0 -68 23.5 -126t64.5 -101t99.5 -68.5t127.5 -25.5q104 0 175 56.5t118 142.5l140 -80q-70 -129 -183.5 -200t-261.5 -71q-109 0 -206 47.5t-162 143.5q-59 -104 -150.5 -147.5t-210.5 -43.5q-72 0 -145.5 17.5 t-133 54.5t-97.5 95.5t-38 142.5zM223 287q0 -47 23.5 -78t58.5 -49.5t78 -26.5t82 -8q41 0 87 8t84 27.5t63.5 52.5t25.5 82q0 47 -26.5 77.5t-66.5 49t-84 27t-81 8.5q-39 0 -82 -9.5t-79 -30t-59.5 -53t-23.5 -77.5zM915 586h576q-8 51 -33.5 97t-62.5 81t-85 54.5 t-102 19.5q-53 0 -102 -19.5t-89 -54.5t-66.5 -81t-35.5 -97z" />
<glyph unicode="&#xe7;" horiz-adv-x="974" d="M59 481q0 106 41 199.5t111 162t163 107.5t199 39q78 0 155 -24.5t142 -71.5v-217h-4q-57 72 -128.5 117t-170.5 45q-74 0 -136 -29t-107 -78t-71 -113.5t-26 -136.5t23.5 -136t66.5 -113.5t104.5 -78t137.5 -28.5q104 0 179 44t134 122h5v-219q-72 -47 -146 -73 t-160 -26q-109 0 -203 39t-162.5 106.5t-107.5 161t-39 201.5zM315 -350l197 303l152 -62l-234 -299z" />
<glyph unicode="&#xe8;" horiz-adv-x="1062" d="M70 469q0 106 30.5 201.5t90 166t146.5 111.5t200 41q117 0 204.5 -44t146 -119.5t85 -174t20.5 -205.5h-755q0 -68 23.5 -126t64.5 -101t99 -68.5t128 -25.5q104 0 175 56.5t118 142.5l139 -80q-70 -129 -183.5 -200t-260.5 -71q-109 0 -196 39t-148.5 105.5t-94 157 t-32.5 194.5zM244 1446l172 78l243 -336l-102 -58zM246 586h575q-8 51 -33.5 97t-62.5 81t-85 54.5t-101 19.5t-102.5 -19.5t-89.5 -54.5t-66.5 -81t-34.5 -97z" />
<glyph unicode="&#xe9;" horiz-adv-x="1062" d="M70 469q0 106 30.5 201.5t90 166t146.5 111.5t200 41q117 0 204.5 -44t146 -119.5t85 -174t20.5 -205.5h-755q0 -68 23.5 -126t64.5 -101t99 -68.5t128 -25.5q104 0 175 56.5t118 142.5l139 -80q-70 -129 -183.5 -200t-260.5 -71q-109 0 -196 39t-148.5 105.5t-94 157 t-32.5 194.5zM246 586h575q-8 51 -33.5 97t-62.5 81t-85 54.5t-101 19.5t-102.5 -19.5t-89.5 -54.5t-66.5 -81t-34.5 -97zM408 1188l243 336l172 -78l-313 -316z" />
<glyph unicode="&#xea;" horiz-adv-x="1062" d="M70 469q0 106 30.5 201.5t90 166t146.5 111.5t200 41q117 0 204.5 -44t146 -119.5t85 -174t20.5 -205.5h-755q0 -68 23.5 -126t64.5 -101t99 -68.5t128 -25.5q104 0 175 56.5t118 142.5l139 -80q-70 -129 -183.5 -200t-260.5 -71q-109 0 -196 39t-148.5 105.5t-94 157 t-32.5 194.5zM211 1176l319 272l324 -272l-119 -93l-205 174l-202 -174zM246 586h575q-8 51 -33.5 97t-62.5 81t-85 54.5t-101 19.5t-102.5 -19.5t-89.5 -54.5t-66.5 -81t-34.5 -97z" />
<glyph unicode="&#xeb;" horiz-adv-x="1062" d="M70 469q0 106 30.5 201.5t90 166t146.5 111.5t200 41q117 0 204.5 -44t146 -119.5t85 -174t20.5 -205.5h-755q0 -68 23.5 -126t64.5 -101t99 -68.5t128 -25.5q104 0 175 56.5t118 142.5l139 -80q-70 -129 -183.5 -200t-260.5 -71q-109 0 -196 39t-148.5 105.5t-94 157 t-32.5 194.5zM219 1333q0 47 32 79t79 32t78.5 -32t31.5 -79t-31.5 -78.5t-78.5 -31.5t-79 31.5t-32 78.5zM246 586h575q-8 51 -33.5 97t-62.5 81t-85 54.5t-101 19.5t-102.5 -19.5t-89.5 -54.5t-66.5 -81t-34.5 -97zM623 1333q0 47 31.5 79t78.5 32t79 -32t32 -79 t-32 -78.5t-79 -31.5t-78.5 31.5t-31.5 78.5z" />
<glyph unicode="&#xec;" horiz-adv-x="536" d="M10 1446l172 78l244 -336l-102 -58zM186 0v963h164v-963h-164z" />
<glyph unicode="&#xed;" horiz-adv-x="536" d="M113 1188l243 336l172 -78l-313 -316zM186 0v963h164v-963h-164z" />
<glyph unicode="&#xee;" horiz-adv-x="536" d="M-53 1237l319 272l324 -272l-119 -92l-205 174l-203 -174zM186 0v963h164v-963h-164z" />
<glyph unicode="&#xef;" horiz-adv-x="536" d="M-43 1333q0 47 32 79t79 32t78.5 -32t31.5 -79t-31.5 -78.5t-78.5 -31.5t-79 31.5t-32 78.5zM186 0v963h164v-963h-164zM360 1333q0 47 32 79t79 32t79 -32t32 -79t-32 -78.5t-79 -31.5t-79 31.5t-32 78.5z" />
<glyph unicode="&#xf0;" horiz-adv-x="1148" d="M70 481q0 96 34.5 187.5t99 162t155 112.5t200.5 42q68 0 121 -15.5t92 -36t64.5 -43t42.5 -36.5q-51 143 -143.5 264t-203.5 225l-272 -182l-80 84l266 178q-27 23 -85 69t-171 116l91 94q51 -33 88 -57.5t67.5 -46t60 -44t64.5 -53.5l283 189l82 -84l-275 -185 q25 -25 67 -66.5t89 -101t96 -135.5t88 -167t63.5 -198.5t24.5 -228.5q0 -145 -47 -248.5t-120.5 -170t-163 -98.5t-173.5 -32q-106 0 -198 40t-161 109t-107.5 161t-38.5 196zM236 483q0 -80 26.5 -145.5t73.5 -112.5t108.5 -72.5t133.5 -25.5q76 0 138 28.5t107 78t70 114 t25 135.5q0 70 -25 134.5t-69 113.5t-106.5 79t-137.5 30q-76 0 -138.5 -28t-108.5 -76t-71.5 -112.5t-25.5 -140.5z" />
<glyph unicode="&#xf1;" horiz-adv-x="1081" d="M156 0v963h163v-117h5q51 70 117.5 106.5t156.5 36.5q100 0 163.5 -33.5t100.5 -91t50.5 -133.5t13.5 -160v-571h-164v543q0 57 -5 111.5t-24.5 94t-60.5 64.5t-113 25q-84 0 -132 -36t-71.5 -91.5t-30 -123t-6.5 -130.5v-457h-163zM182 1284q18 31 39 59.5t45.5 52 t55 37t69.5 13.5q47 0 88 -14.5t78 -32.5q39 -16 70.5 -31.5t60.5 -15.5q43 0 69.5 31.5t45.5 66.5l96 -78q-29 -68 -85 -117t-132 -49q-37 0 -76 14.5t-78 32.5q-39 16 -74.5 30.5t-68.5 14.5q-43 0 -64.5 -29.5t-37.5 -64.5z" />
<glyph unicode="&#xf2;" horiz-adv-x="1150" d="M70 479q0 106 38.5 198.5t107.5 162t161 109.5t198 40t198.5 -40t161.5 -109.5t107.5 -161.5t38.5 -199q0 -106 -40 -198.5t-108.5 -161t-161 -107.5t-196.5 -39t-196 39t-160.5 107.5t-108.5 161t-40 198.5zM233 481q0 -74 25 -138t70 -113.5t108.5 -77t138.5 -27.5 q76 0 139.5 27.5t108.5 77t70 114t25 137.5q0 74 -25 138.5t-70 112.5t-108.5 77t-139.5 29t-139 -29t-108 -77t-70 -112.5t-25 -138.5zM287 1446l172 78l243 -336l-102 -58z" />
<glyph unicode="&#xf3;" horiz-adv-x="1150" d="M70 479q0 106 38.5 198.5t107.5 162t161 109.5t198 40t198.5 -40t161.5 -109.5t107.5 -161.5t38.5 -199q0 -106 -40 -198.5t-108.5 -161t-161 -107.5t-196.5 -39t-196 39t-160.5 107.5t-108.5 161t-40 198.5zM233 481q0 -74 25 -138t70 -113.5t108.5 -77t138.5 -27.5 q76 0 139.5 27.5t108.5 77t70 114t25 137.5q0 74 -25 138.5t-70 112.5t-108.5 77t-139.5 29t-139 -29t-108 -77t-70 -112.5t-25 -138.5zM451 1188l243 336l172 -78l-313 -316z" />
<glyph unicode="&#xf4;" horiz-adv-x="1150" d="M70 479q0 106 38.5 198.5t107.5 162t161 109.5t198 40t198.5 -40t161.5 -109.5t107.5 -161.5t38.5 -199q0 -106 -40 -198.5t-108.5 -161t-161 -107.5t-196.5 -39t-196 39t-160.5 107.5t-108.5 161t-40 198.5zM233 481q0 -74 25 -138t70 -113.5t108.5 -77t138.5 -27.5 q76 0 139.5 27.5t108.5 77t70 114t25 137.5q0 74 -25 138.5t-70 112.5t-108.5 77t-139.5 29t-139 -29t-108 -77t-70 -112.5t-25 -138.5zM254 1176l319 272l324 -272l-119 -93l-205 174l-202 -174z" />
<glyph unicode="&#xf5;" horiz-adv-x="1150" d="M70 479q0 106 38.5 198.5t107.5 162t161 109.5t198 40t198.5 -40t161.5 -109.5t107.5 -161.5t38.5 -199q0 -106 -40 -198.5t-108.5 -161t-161 -107.5t-196.5 -39t-196 39t-160.5 107.5t-108.5 161t-40 198.5zM217 1161q18 31 38.5 59.5t45.5 52t55.5 37t69.5 13.5 q47 0 88 -14.5t78 -32.5q39 -16 70.5 -31.5t60.5 -15.5q43 0 69.5 31.5t45.5 66.5l96 -78q-29 -68 -85 -117t-132 -49q-37 0 -76 14.5t-78 32.5q-39 16 -74.5 31t-68.5 15q-43 0 -64.5 -30t-38.5 -65zM233 481q0 -74 25 -138t70 -113.5t108.5 -77t138.5 -27.5 q76 0 139.5 27.5t108.5 77t70 114t25 137.5q0 74 -25 138.5t-70 112.5t-108.5 77t-139.5 29t-139 -29t-108 -77t-70 -112.5t-25 -138.5z" />
<glyph unicode="&#xf6;" horiz-adv-x="1150" d="M70 479q0 106 38.5 198.5t107.5 162t161 109.5t198 40t198.5 -40t161.5 -109.5t107.5 -161.5t38.5 -199q0 -106 -40 -198.5t-108.5 -161t-161 -107.5t-196.5 -39t-196 39t-160.5 107.5t-108.5 161t-40 198.5zM233 481q0 -74 25 -138t70 -113.5t108.5 -77t138.5 -27.5 q76 0 139.5 27.5t108.5 77t70 114t25 137.5q0 74 -25 138.5t-70 112.5t-108.5 77t-139.5 29t-139 -29t-108 -77t-70 -112.5t-25 -138.5zM264 1333q0 47 32 79t79 32t78.5 -32t31.5 -79t-31.5 -78.5t-78.5 -31.5t-79 31.5t-32 78.5zM668 1333q0 47 31.5 79t78.5 32t79 -32 t32 -79t-32 -78.5t-79 -31.5t-78.5 31.5t-31.5 78.5z" />
<glyph unicode="&#xf7;" d="M135 444v160h991v-160h-991zM514 137q0 47 35 82t82 35t82 -35t35 -82q0 -49 -35 -83t-82 -34t-82 34t-35 83zM514 911q0 47 35 82t82 35t82 -35t35 -82q0 -49 -35 -82.5t-82 -33.5t-82 33.5t-35 82.5z" />
<glyph unicode="&#xf8;" horiz-adv-x="1150" d="M41 23l139 139q-53 66 -81.5 145.5t-28.5 171.5q0 106 38.5 198.5t107.5 162t161 109.5t198 40q92 0 174 -29.5t146 -82.5l135 135l80 -78l-137 -137q51 -63 79.5 -144.5t28.5 -173.5q0 -106 -40 -198.5t-108.5 -161t-160.5 -107.5t-197 -39q-90 0 -169.5 29t-145.5 80 l-139 -139zM233 481q0 -59 15.5 -111.5t44.5 -95.5l491 492q-41 35 -94 53.5t-115 18.5q-76 0 -139 -29t-108 -77t-70 -112.5t-25 -138.5zM371 193q84 -68 204 -68q76 0 139.5 27.5t108.5 77t70 114t25 137.5q0 117 -60 201z" />
<glyph unicode="&#xf9;" horiz-adv-x="1048" d="M143 408v555h164v-537q0 -61 6 -115.5t27.5 -95.5t66 -65.5t117.5 -24.5q74 0 118 24.5t65.5 65.5t27.5 95.5t6 115.5v537h164v-555q0 -96 -19.5 -176t-64.5 -137.5t-117.5 -89.5t-179.5 -32q-106 0 -179 32t-118 89.5t-64.5 137t-19.5 176.5zM236 1446l172 78l243 -336 l-102 -58z" />
<glyph unicode="&#xfa;" horiz-adv-x="1048" d="M143 408v555h164v-537q0 -61 6 -115.5t27.5 -95.5t66 -65.5t117.5 -24.5q74 0 118 24.5t65.5 65.5t27.5 95.5t6 115.5v537h164v-555q0 -96 -19.5 -176t-64.5 -137.5t-117.5 -89.5t-179.5 -32q-106 0 -179 32t-118 89.5t-64.5 137t-19.5 176.5zM399 1188l244 336l172 -78 l-313 -316z" />
<glyph unicode="&#xfb;" horiz-adv-x="1048" d="M143 408v555h164v-537q0 -61 6 -115.5t27.5 -95.5t66 -65.5t117.5 -24.5q74 0 118 24.5t65.5 65.5t27.5 95.5t6 115.5v537h164v-555q0 -96 -19.5 -176t-64.5 -137.5t-117.5 -89.5t-179.5 -32q-106 0 -179 32t-118 89.5t-64.5 137t-19.5 176.5zM203 1237l319 272l324 -272 l-119 -92l-205 174l-203 -174z" />
<glyph unicode="&#xfc;" horiz-adv-x="1048" d="M143 408v555h164v-537q0 -61 6 -115.5t27.5 -95.5t66 -65.5t117.5 -24.5q74 0 118 24.5t65.5 65.5t27.5 95.5t6 115.5v537h164v-555q0 -96 -19.5 -176t-64.5 -137.5t-117.5 -89.5t-179.5 -32q-106 0 -179 32t-118 89.5t-64.5 137t-19.5 176.5zM213 1333q0 47 32 79t79 32 t78.5 -32t31.5 -79t-31.5 -78.5t-78.5 -31.5t-79 31.5t-32 78.5zM616 1333q0 47 32 79t79 32t79 -32t32 -79t-32 -78.5t-79 -31.5t-79 31.5t-32 78.5z" />
<glyph unicode="&#xfd;" horiz-adv-x="1019" d="M-4 963h190l340 -691l312 691h186l-711 -1504h-186l311 631zM426 1188l244 336l172 -78l-314 -316z" />
<glyph unicode="&#xfe;" horiz-adv-x="1181" d="M147 -541v2231h164v-865h4q59 80 145.5 122t186.5 42q106 0 191.5 -42t144.5 -112.5t92 -162.5t33 -193q0 -102 -32 -194t-91 -162t-145 -110t-195 -40q-98 0 -184 42t-146 120h-4v-676h-164zM303 492q0 -72 20.5 -137.5t60.5 -117t98.5 -82t135.5 -30.5q80 0 139.5 29.5 t100.5 80t61.5 116t20.5 138.5q0 72 -22.5 135.5t-63.5 110.5t-101.5 75t-136.5 28q-72 0 -129 -29t-98 -77t-63.5 -110.5t-22.5 -129.5z" />
<glyph unicode="&#xff;" horiz-adv-x="1019" d="M-4 963h190l340 -691l312 691h186l-711 -1504h-186l311 631zM209 1333q0 47 31.5 79t78.5 32t79 -32t32 -79t-31.5 -78.5t-79.5 -31.5q-47 0 -78.5 31.5t-31.5 78.5zM612 1333q0 47 32 79t79 32t79 -32t32 -79t-32 -78.5t-79 -31.5t-79 31.5t-32 78.5z" />
<glyph unicode="&#x102;" horiz-adv-x="1431" d="M12 0l713 1618l694 -1618h-190l-182 438h-660l-186 -438h-189zM379 1974h141q27 -70 73 -104.5t122 -34.5t122 35t72 104h142q-8 -63 -38 -114.5t-75 -88t-102.5 -56t-120.5 -19.5q-61 0 -118.5 19.5t-103 56t-76 88t-38.5 114.5zM457 598h522l-258 619z" />
<glyph unicode="&#x103;" horiz-adv-x="1181" d="M74 479q0 102 31.5 195.5t91 163t145.5 110.5t195 41q98 0 184 -43t145 -121h4v138h164v-963h-164v133h-4q-127 -160 -331 -160q-106 0 -191.5 42t-146 112t-92 161t-31.5 191zM242 492q0 -72 20.5 -137.5t60 -117t98 -82t136.5 -30.5q80 0 139.5 29.5t100.5 80t61.5 116 t20.5 138.5q0 72 -22.5 135.5t-63.5 110.5t-101.5 75t-136.5 28q-72 0 -129 -29t-98 -77t-63.5 -110.5t-22.5 -129.5zM254 1407h141q27 -70 73 -104.5t122 -34.5t122 35t72 104h142q-8 -63 -38 -114.5t-75 -88t-102.5 -56t-120.5 -19.5q-61 0 -118.5 19.5t-103 56t-76 88 t-38.5 114.5z" />
<glyph unicode="&#x110;" horiz-adv-x="1388" d="M0 758v147h156v639h290q86 0 166 -7t154 -27.5t144.5 -57.5t138.5 -94q133 -115 194.5 -264.5t61.5 -323.5q0 -170 -61.5 -315.5t-190.5 -259.5q-70 -61 -139.5 -99.5t-144.5 -60t-156 -28.5t-171 -7h-286v758h-156zM328 160h125q70 0 135 6t125.5 23.5t117 49 t109.5 80.5q96 90 144.5 207t48.5 246q0 133 -50.5 254t-150.5 209q-106 94 -224 121.5t-255 27.5h-125v-479h274v-147h-274v-598z" />
<glyph unicode="&#x111;" horiz-adv-x="1181" d="M72 479q0 102 31.5 195.5t91 163t145.5 110.5t195 41q98 0 184 -43t145 -121h4v465h-276v150h276v250h164v-250h158v-150h-158v-1290h-164v133h-4q-59 -78 -146 -119t-186 -41q-106 0 -191 42t-145.5 112t-92 161t-31.5 191zM240 492q0 -72 20.5 -137.5t60 -117t98 -82 t136.5 -30.5q80 0 139.5 29.5t100.5 80t61.5 116t20.5 138.5q0 72 -23 135.5t-63.5 110.5t-101 75t-136.5 28q-72 0 -129 -29t-98 -77t-63.5 -110.5t-22.5 -129.5z" />
<glyph unicode="&#x128;" horiz-adv-x="489" d="M-110 1866q18 31 38.5 59.5t45 52t55.5 37t70 13.5q47 0 88 -14.5t78 -32.5q39 -16 70.5 -31.5t60.5 -15.5q43 0 69.5 31.5t44.5 66.5l97 -78q-29 -68 -85.5 -117t-132.5 -49q-37 0 -75.5 14.5t-77.5 32.5q-39 16 -75 30.5t-69 14.5q-43 0 -64.5 -29.5t-37.5 -64.5z M160 0v1544h172v-1544h-172z" />
<glyph unicode="&#x129;" horiz-adv-x="536" d="M-88 1161q18 31 38.5 59.5t45 52t55.5 37t70 13.5q47 0 88 -14.5t78 -32.5q39 -16 70.5 -31.5t60.5 -15.5q43 0 69.5 31.5t44.5 66.5l97 -78q-29 -68 -85.5 -117t-131.5 -49q-37 0 -76 14.5t-78 32.5q-39 16 -75 31t-68 15q-43 0 -64.5 -30t-38.5 -65zM186 0v963h164 v-963h-164z" />
<glyph unicode="&#x131;" horiz-adv-x="536" d="M186 0v963h164v-963h-164z" />
<glyph unicode="&#x141;" horiz-adv-x="768" d="M0 553v164l156 100v727h172v-614l266 172v-164l-266 -172v-606h426v-160h-598v653z" />
<glyph unicode="&#x142;" horiz-adv-x="528" d="M31 657v146l151 100v787h164v-676l152 100v-145l-152 -101v-868h-164v758z" />
<glyph unicode="&#x152;" horiz-adv-x="2437" d="M78 770q0 166 63.5 311.5t173 255t256 172t312.5 62.5q184 0 342.5 -87t263.5 -243h4v303h807v-160h-635v-458h616v-160h-616v-606h635v-160h-807v297h-4q-100 -154 -261 -240t-345 -84q-166 0 -312.5 62.5t-256 170t-173 253t-63.5 311.5zM250 772q0 -131 49 -246.5 t135 -202.5t202 -138.5t247 -51.5t246.5 51.5t201.5 138.5t135.5 202.5t49.5 246.5t-49.5 248t-134.5 204t-200.5 137t-248.5 50t-249 -50t-201 -137t-134 -204t-49 -248z" />
<glyph unicode="&#x153;" horiz-adv-x="1925" d="M70 479q0 106 38.5 198.5t107.5 162t161 109.5t198 40q135 -4 251 -63.5t175 -169.5q57 113 163 171t231 62q117 0 205 -44t147 -119.5t87 -174t21 -205.5h-759q0 -68 23.5 -126t64.5 -101t99 -68.5t128 -25.5q104 0 175 56.5t118 142.5l139 -80q-70 -129 -183.5 -200 t-260.5 -71q-59 0 -118.5 15.5t-113 45t-96.5 73t-70 96.5q-31 -55 -77.5 -98.5t-103 -72t-119 -44t-126.5 -15.5q-104 0 -196 39t-160.5 107.5t-108.5 161t-40 198.5zM238 481q0 -74 24.5 -138t69.5 -113.5t108.5 -77t139.5 -27.5t139 27.5t108 77t70 114t25 137.5 q0 74 -25 138.5t-70 112.5t-108 77t-139 29t-139.5 -29t-108.5 -77t-69.5 -112.5t-24.5 -138.5zM1110 586h576q-8 51 -34 97t-63 81t-85 54.5t-101 19.5t-102.5 -19.5t-89.5 -54.5t-66.5 -81t-34.5 -97z" />
<glyph unicode="&#x160;" horiz-adv-x="1144" d="M82 373l168 47q8 -59 34.5 -111.5t66.5 -91.5t93.5 -61.5t114.5 -22.5t118.5 22.5t101.5 62.5t71 95.5t27 120.5q0 68 -25 115t-64.5 82t-91 60.5t-104.5 49.5l-94 41q-68 31 -129.5 66t-107.5 80t-72.5 105.5t-26.5 144.5q0 90 34.5 162.5t95 124t138.5 79t164 27.5 q129 0 233.5 -62.5t165.5 -177.5l-137 -88q-47 80 -107.5 124t-158.5 44q-51 0 -97.5 -17.5t-82 -49t-56 -75.5t-20.5 -98q0 -49 23.5 -86.5t58.5 -66.5t78 -49.5t81 -38.5l103 -45q76 -33 142.5 -71t117.5 -88t81 -116.5t30 -158.5q0 -102 -38 -189.5t-104.5 -151 t-154.5 -100.5t-189 -37q-92 0 -172 29t-142.5 81t-105.5 126t-61 164zM272 1948l119 92l205 -174l203 174l116 -92l-319 -273z" />
<glyph unicode="&#x161;" horiz-adv-x="817" d="M76 217l145 62q31 -68 73 -111t124 -43q66 0 110.5 41t44.5 106q0 53 -31.5 86t-80.5 57.5t-104.5 46t-104.5 53.5t-81 79t-32 123q0 61 22.5 111.5t62.5 86t91.5 55t110.5 19.5q84 0 153.5 -51t102.5 -127l-137 -72q-16 39 -51 69t-80 30q-43 0 -81 -30t-38 -77 q0 -33 19.5 -56.5t50 -43t70.5 -34.5t83 -34q43 -18 83 -40.5t70.5 -54.5t50 -76t19.5 -105q0 -68 -25.5 -126.5t-70.5 -99.5t-103.5 -64.5t-125.5 -23.5q-123 0 -212 64.5t-128 179.5zM88 1417l119 92l205 -174l202 174l117 -92l-319 -272z" />
<glyph unicode="&#x168;" horiz-adv-x="1402" d="M152 578v966h172v-919v-88t6 -90.5t20.5 -87.5t40.5 -78q51 -72 138 -110t173 -38q84 0 167 36t137 101q31 37 46 80t22 89t7 93.5v92.5v919h172v-966q0 -63 -4 -120t-17 -110t-41 -102t-73 -96q-80 -86 -189.5 -131.5t-226.5 -45.5q-111 0 -216 40t-183 118 q-51 49 -80.5 99.5t-45 105.5t-20.5 115.5t-5 126.5zM342 1866q18 31 38.5 59.5t45 52t55.5 37t70 13.5q47 0 88 -14.5t78 -32.5q39 -16 70.5 -31.5t60.5 -15.5q43 0 69.5 31.5t44.5 66.5l97 -78q-29 -68 -85.5 -117t-132.5 -49q-37 0 -75.5 14.5t-77.5 32.5 q-39 16 -75 30.5t-69 14.5q-43 0 -64.5 -29.5t-37.5 -64.5z" />
<glyph unicode="&#x169;" horiz-adv-x="1048" d="M143 408v555h164v-537q0 -61 6 -115.5t27.5 -95.5t66 -65.5t117.5 -24.5q74 0 118 24.5t65.5 65.5t27.5 95.5t6 115.5v537h164v-555q0 -96 -19.5 -176t-64.5 -137.5t-117.5 -89.5t-179.5 -32q-106 0 -179 32t-118 89.5t-64.5 137t-19.5 176.5zM166 1163q18 31 38.5 59.5 t45 52t55.5 37t70 13.5q47 0 88 -14.5t78 -32.5q39 -16 70.5 -31.5t60.5 -15.5q43 0 69.5 31.5t44.5 66.5l97 -78q-29 -68 -85.5 -117t-132.5 -49q-37 0 -75.5 14.5t-77.5 32.5q-39 16 -75 30.5t-69 14.5q-43 0 -64.5 -29.5t-37.5 -64.5z" />
<glyph unicode="&#x178;" horiz-adv-x="1214" d="M16 1544h199l393 -688l393 688h199l-506 -880v-664h-172v664zM319 1864q0 47 32 78.5t79 31.5t79 -31.5t32 -78.5t-32 -79t-79 -32t-79 32t-32 79zM723 1864q0 47 32 78.5t79 31.5t78.5 -31.5t31.5 -78.5t-31.5 -79t-78.5 -32t-79 32t-32 79z" />
<glyph unicode="&#x17d;" horiz-adv-x="1200" d="M29 0l841 1384h-735v160h1022l-844 -1384h822v-160h-1106zM303 1948l119 92l205 -174l202 174l117 -92l-319 -273z" />
<glyph unicode="&#x17e;" horiz-adv-x="1062" d="M20 0l695 811h-565v152h894l-692 -811h664v-152h-996zM242 1417l118 92l205 -174l203 174l117 -92l-320 -272z" />
<glyph unicode="&#x192;" d="M10 -279l33 154l70 -2q92 0 146 32t86 84t48.5 121.5t28.5 143.5l117 635h-168l22 139h172l58 324q12 76 33.5 142.5t60.5 115.5t98 77.5t148 28.5q74 0 139 -26l-31 -154q-51 23 -102 23q-43 0 -76 -12.5t-55 -53.5q-20 -41 -31.5 -92t-22.5 -94l-51 -279h246l-23 -139 h-247l-119 -643q-8 -43 -17.5 -92.5t-21.5 -98.5t-29.5 -95t-42.5 -83q-61 -90 -161.5 -127t-204.5 -37z" />
<glyph unicode="&#x1a0;" horiz-adv-x="1765" d="M76 770q0 166 63.5 311.5t173 255t256 172t312.5 62.5q104 0 202.5 -26.5t184.5 -74t158.5 -115t127.5 -149.5q63 63 100.5 148.5t41.5 189.5h174q-8 -158 -67.5 -281.5t-166.5 -215.5q23 -66 36.5 -135.5t13.5 -141.5q0 -166 -63.5 -311.5t-173.5 -253t-256 -170 t-312 -62.5t-312.5 62.5t-256 170t-173 253t-63.5 311.5zM248 772q0 -131 49 -246.5t135 -202.5t202 -138.5t247 -51.5t246.5 51.5t201.5 138.5t135 202.5t49 246.5t-49 248t-134 204t-200.5 137t-248.5 50t-249 -50t-201 -137t-134 -204t-49 -248z" />
<glyph unicode="&#x1a1;" horiz-adv-x="1150" d="M68 479q0 106 38.5 198.5t107.5 162t161 109.5t198 40q123 0 226.5 -52t173.5 -142q45 35 69.5 82t24.5 112h141q0 -106 -44 -187t-117 -138q33 -84 32 -185q0 -106 -40 -198.5t-108.5 -161t-160.5 -107.5t-197 -39q-104 0 -196 39t-161 107.5t-108.5 161t-39.5 198.5z M231 481q0 -74 25 -138t70 -113.5t108 -77t139 -27.5t139.5 27.5t108.5 77t69.5 114t24.5 137.5q0 74 -24.5 138.5t-69.5 112.5t-108.5 77t-139.5 29t-139 -29t-108 -77t-70 -112.5t-25 -138.5z" />
<glyph unicode="&#x1af;" horiz-adv-x="1482" d="M152 578v966h172v-919v-88t6 -90.5t20.5 -87.5t40.5 -78q51 -72 138 -110t173 -38q84 0 167 36t137 101q31 37 46 80t22 89t7 93.5v92.5v919h172v-321q72 53 114 140t44 181h150q0 -80 -24 -156.5t-63.5 -142t-96 -119t-124.5 -86.5v-462q0 -63 -4 -120t-17 -110 t-41 -102t-73 -96q-80 -86 -189.5 -131.5t-226.5 -45.5q-111 0 -216 40t-183 118q-51 49 -80.5 99.5t-45 105.5t-20.5 115.5t-5 126.5z" />
<glyph unicode="&#x1b0;" horiz-adv-x="1124" d="M143 408v555h164v-537q0 -61 6 -115.5t27.5 -95.5t66 -65.5t117.5 -24.5q74 0 118 24.5t65.5 65.5t27.5 95.5t6 115.5v537h164v-254q66 51 99.5 108t35.5 146h142q-2 -150 -76 -254.5t-201 -165.5v-135q0 -96 -19.5 -176t-64.5 -137.5t-117.5 -89.5t-179.5 -32 q-106 0 -179 32t-118 89.5t-64.5 137t-19.5 176.5z" />
<glyph unicode="&#x2c6;" horiz-adv-x="962" d="M160 1237l319 272l324 -272l-119 -92l-205 174l-203 -174z" />
<glyph unicode="&#x2c7;" horiz-adv-x="962" d="M160 1417l119 92l204 -174l203 174l117 -92l-320 -272z" />
<glyph unicode="&#x2c9;" horiz-adv-x="1021" d="M162 1257v140h700v-140h-700z" />
<glyph unicode="&#x2d8;" horiz-adv-x="993" d="M162 1466h141q27 -70 73 -104.5t122 -34.5t122 35t72 104h142q-8 -63 -38 -114.5t-75 -88t-102.5 -56t-120.5 -19.5q-61 0 -118.5 19.5t-103 56t-76 88t-38.5 114.5z" />
<glyph unicode="&#x2d9;" horiz-adv-x="733" d="M256 1356q0 47 32 78.5t79 31.5t78.5 -31.5t31.5 -78.5t-31.5 -79t-78.5 -32t-79 32t-32 79z" />
<glyph unicode="&#x2da;" horiz-adv-x="716" d="M160 1331q0 41 15 77t43 63.5t64.5 43t77.5 15.5t77 -15.5t63.5 -43t43 -63.5t15.5 -77q0 -84 -57.5 -142.5t-141.5 -58.5t-142 58.5t-58 142.5zM262 1331q0 -41 28.5 -69.5t69.5 -28.5t69 28.5t28 69.5t-28 68.5t-69 27.5t-69.5 -27.5t-28.5 -68.5z" />
<glyph unicode="&#x2db;" horiz-adv-x="690" d="M160 -240q0 39 14 75t39 65.5t55.5 55.5t61.5 44h131v-4q-25 -16 -53.5 -37.5t-53 -48.5t-41 -56.5t-16.5 -62.5q0 -49 35 -70.5t78 -21.5q63 0 122 37l-20 -135q-61 -31 -129 -31q-43 0 -83 12t-70.5 37t-50 60.5t-19.5 80.5z" />
<glyph unicode="&#x2dc;" horiz-adv-x="1036" d="M160 1284q18 31 38.5 59.5t45 52t55.5 37t70 13.5q47 0 88 -14.5t78 -32.5q39 -16 70.5 -31.5t60.5 -15.5q43 0 69.5 31.5t44.5 66.5l97 -78q-29 -68 -85.5 -117t-132.5 -49q-37 0 -75.5 14.5t-77.5 32.5q-39 16 -75 30.5t-69 14.5q-43 0 -64.5 -29.5t-37.5 -64.5z" />
<glyph unicode="&#x2dd;" horiz-adv-x="956" d="M180 1217l121 331l156 -28l-195 -326zM502 1217l121 331l155 -28l-194 -326z" />
<glyph unicode="&#x309;" horiz-adv-x="0" d="M-272 1399q-10 55 3 101t44.5 80t77 52.5t98.5 18.5q102 0 165.5 -53.5t63.5 -153.5q0 -45 -23.5 -89t-68.5 -73q-16 -10 -36.5 -28.5t-33.5 -51.5h-129q8 35 24.5 66.5t53.5 54.5q88 51 88 115q0 49 -27.5 72.5t-74.5 23.5q-61 0 -90 -38t-13 -97h-122z" />
<glyph unicode="&#x323;" horiz-adv-x="733" d="M256 -291q0 47 32 79t79 32t78.5 -32t31.5 -79t-31.5 -78.5t-78.5 -31.5t-79 31.5t-32 78.5z" />
<glyph unicode="&#x3a9;" horiz-adv-x="1638" d="M113 0v131h342v6q-61 51 -116.5 121t-98.5 157t-69 190.5t-26 219.5q0 162 52.5 298.5t143.5 233.5t215 151.5t269 54.5q152 0 275 -60.5t210 -161t134 -232.5t47 -275q0 -121 -26.5 -227.5t-71.5 -195.5t-101.5 -158t-113.5 -116v-6h344v-131h-541v96q66 41 128 107.5 t111.5 156t79 201t29.5 244.5q0 109 -31.5 220.5t-95 201.5t-159 147.5t-220.5 57.5q-119 0 -214 -49.5t-162.5 -135.5t-103.5 -200.5t-36 -245.5q0 -125 30 -235.5t79 -202t111.5 -159t127.5 -108.5v-96h-542z" />
<glyph unicode="&#x3bc;" horiz-adv-x="1048" d="M143 -541v1504h164v-537q0 -61 6 -115.5t27.5 -95.5t66 -65.5t117.5 -24.5q74 0 118 24.5t65.5 65.5t27.5 95.5t6 115.5v537h164v-555q0 -96 -19.5 -176t-64.5 -137.5t-117.5 -89.5t-179.5 -32q-53 0 -102 16.5t-115 80.5v-611h-164z" />
<glyph unicode="&#x3c0;" horiz-adv-x="1286" d="M20 1085q43 27 118 43.5t204 16.5h901l-16 -137h-187v-680q0 -70 3.5 -122t7.5 -90t11 -65.5t13 -50.5h-155q-16 27 -27.5 99.5t-11.5 213.5v695h-418q-4 -72 -12.5 -161t-19.5 -183.5t-26.5 -190.5t-33 -184t-37 -163t-39.5 -126h-158q33 88 60.5 215t50 265t37 276.5 t18.5 251.5q-109 0 -165 -7.5t-91 -21.5z" />
<glyph unicode="&#x1ea0;" horiz-adv-x="1431" d="M12 0l713 1618l694 -1618h-190l-182 438h-660l-186 -438h-189zM457 598h522l-258 619zM604 -291q0 47 32 79t79 32t78.5 -32t31.5 -79t-31.5 -78.5t-78.5 -31.5t-79 31.5t-32 78.5z" />
<glyph unicode="&#x1ea1;" horiz-adv-x="1181" d="M74 479q0 102 31.5 195.5t91 163t145.5 110.5t195 41q98 0 184 -43t145 -121h4v138h164v-963h-164v133h-4q-127 -160 -331 -160q-106 0 -191.5 42t-146 112t-92 161t-31.5 191zM242 492q0 -72 20.5 -137.5t60 -117t98 -82t136.5 -30.5q80 0 139.5 29.5t100.5 80t61.5 116 t20.5 138.5q0 72 -22.5 135.5t-63.5 110.5t-101.5 75t-136.5 28q-72 0 -129 -29t-98 -77t-63.5 -110.5t-22.5 -129.5zM479 -291q0 47 32 79t79 32t78.5 -32t31.5 -79t-31.5 -78.5t-78.5 -31.5t-79 31.5t-32 78.5z" />
<glyph unicode="&#x1ea2;" horiz-adv-x="1431" d="M12 0l713 1618l694 -1618h-190l-182 438h-660l-186 -438h-189zM457 598h522l-258 619zM504 1981q-10 55 3 101t44.5 80t77 52.5t98.5 18.5q102 0 165.5 -53.5t63.5 -153.5q0 -45 -23.5 -89t-68.5 -73q-16 -10 -36.5 -28.5t-33.5 -51.5h-129q8 35 24.5 66.5t53.5 54.5 q88 51 88 115q0 49 -27.5 72.5t-74.5 23.5q-61 0 -90 -38t-13 -97h-122z" />
<glyph unicode="&#x1ea3;" horiz-adv-x="1181" d="M74 479q0 102 31.5 195.5t91 163t145.5 110.5t195 41q98 0 184 -43t145 -121h4v138h164v-963h-164v133h-4q-127 -160 -331 -160q-106 0 -191.5 42t-146 112t-92 161t-31.5 191zM242 492q0 -72 20.5 -137.5t60 -117t98 -82t136.5 -30.5q80 0 139.5 29.5t100.5 80t61.5 116 t20.5 138.5q0 72 -22.5 135.5t-63.5 110.5t-101.5 75t-136.5 28q-72 0 -129 -29t-98 -77t-63.5 -110.5t-22.5 -129.5zM379 1284q-10 55 3 101t44.5 80t77 52.5t98.5 18.5q102 0 165.5 -53.5t63.5 -153.5q0 -45 -23.5 -89t-68.5 -73q-16 -10 -36.5 -28.5t-33.5 -51.5h-129 q8 35 24.5 66.5t53.5 54.5q88 51 88 115q0 49 -27.5 72.5t-74.5 23.5q-61 0 -90 -38t-13 -97h-122z" />
<glyph unicode="&#x1ea4;" horiz-adv-x="1431" d="M12 0l713 1618l694 -1618h-190l-182 438h-660l-186 -438h-189zM395 1767l320 273l323 -273l-118 -92l-205 174l-203 -174zM457 598h522l-258 619zM1020 1940l243 336l172 -78l-313 -316z" />
<glyph unicode="&#x1ea5;" horiz-adv-x="1181" d="M74 479q0 102 31.5 195.5t91 163t145.5 110.5t195 41q98 0 184 -43t145 -121h4v138h164v-963h-164v133h-4q-127 -160 -331 -160q-106 0 -191.5 42t-146 112t-92 161t-31.5 191zM242 492q0 -72 20.5 -137.5t60 -117t98 -82t136.5 -30.5q80 0 139.5 29.5t100.5 80t61.5 116 t20.5 138.5q0 72 -22.5 135.5t-63.5 110.5t-101.5 75t-136.5 28q-72 0 -129 -29t-98 -77t-63.5 -110.5t-22.5 -129.5zM270 1176l320 272l323 -272l-118 -93l-205 174l-203 -174zM891 1321l243 336l172 -78l-313 -316z" />
<glyph unicode="&#x1ea6;" horiz-adv-x="1431" d="M12 0l713 1618l694 -1618h-190l-182 438h-660l-186 -438h-189zM395 1767l320 273l323 -273l-118 -92l-205 174l-203 -174zM457 598h522l-258 619zM799 2187l172 78l243 -336l-102 -58z" />
<glyph unicode="&#x1ea7;" horiz-adv-x="1181" d="M74 479q0 102 31.5 195.5t91 163t145.5 110.5t195 41q98 0 184 -43t145 -121h4v138h164v-963h-164v133h-4q-127 -160 -331 -160q-106 0 -191.5 42t-146 112t-92 161t-31.5 191zM242 492q0 -72 20.5 -137.5t60 -117t98 -82t136.5 -30.5q80 0 139.5 29.5t100.5 80t61.5 116 t20.5 138.5q0 72 -22.5 135.5t-63.5 110.5t-101.5 75t-136.5 28q-72 0 -129 -29t-98 -77t-63.5 -110.5t-22.5 -129.5zM270 1176l320 272l323 -272l-118 -93l-205 174l-203 -174zM676 1583l172 78l243 -336l-102 -58z" />
<glyph unicode="&#x1ea8;" horiz-adv-x="1431" d="M12 0l713 1618l694 -1618h-190l-182 438h-660l-186 -438h-189zM395 1767l320 273l323 -273l-118 -92l-205 174l-203 -174zM457 598h522l-258 619zM836 2149q-10 55 3 101t44.5 80t77 52.5t98.5 18.5q102 0 165.5 -53.5t63.5 -153.5q0 -45 -23.5 -89t-68.5 -73 q-16 -10 -36.5 -28.5t-33.5 -51.5h-129q8 35 24.5 66.5t53.5 54.5q88 51 88 115q0 49 -27.5 72.5t-74.5 23.5q-61 0 -90 -38t-13 -97h-122z" />
<glyph unicode="&#x1ea9;" horiz-adv-x="1181" d="M74 479q0 102 31.5 195.5t91 163t145.5 110.5t195 41q98 0 184 -43t145 -121h4v138h164v-963h-164v133h-4q-127 -160 -331 -160q-106 0 -191.5 42t-146 112t-92 161t-31.5 191zM242 492q0 -72 20.5 -137.5t60 -117t98 -82t136.5 -30.5q80 0 139.5 29.5t100.5 80t61.5 116 t20.5 138.5q0 72 -22.5 135.5t-63.5 110.5t-101.5 75t-136.5 28q-72 0 -129 -29t-98 -77t-63.5 -110.5t-22.5 -129.5zM270 1176l320 272l323 -272l-118 -93l-205 174l-203 -174zM703 1563q-10 55 3 101t44.5 80t77 52.5t98.5 18.5q102 0 165.5 -53.5t63.5 -153.5 q0 -45 -23.5 -89t-68.5 -73q-16 -10 -36.5 -28.5t-33.5 -51.5h-129q8 35 24.5 66.5t53.5 54.5q88 51 88 115q0 49 -27.5 72.5t-74.5 23.5q-61 0 -90 -38t-13 -97h-122z" />
<glyph unicode="&#x1eaa;" horiz-adv-x="1431" d="M12 0l713 1618l694 -1618h-190l-182 438h-660l-186 -438h-189zM357 2158q18 31 38.5 59.5t45 52t55.5 37t70 13.5q47 0 88 -14.5t78 -32.5q39 -16 70.5 -31.5t60.5 -15.5q43 0 69.5 31.5t44.5 66.5l97 -78q-29 -68 -85.5 -117t-132.5 -49q-37 0 -75.5 14.5t-77.5 32.5 q-39 16 -75 30.5t-69 14.5q-43 0 -64.5 -29.5t-37.5 -64.5zM395 1767l320 273l323 -273l-118 -92l-205 174l-203 -174zM457 598h522l-258 619z" />
<glyph unicode="&#x1eab;" horiz-adv-x="1181" d="M74 479q0 102 31.5 195.5t91 163t145.5 110.5t195 41q98 0 184 -43t145 -121h4v138h164v-963h-164v133h-4q-127 -160 -331 -160q-106 0 -191.5 42t-146 112t-92 161t-31.5 191zM232 1589q18 31 38.5 59.5t45 52t55.5 37t70 13.5q47 0 88 -14.5t78 -32.5 q39 -16 70.5 -31.5t60.5 -15.5q43 0 69.5 31.5t44.5 66.5l97 -78q-29 -68 -85.5 -117t-132.5 -49q-37 0 -75.5 14.5t-77.5 32.5q-39 16 -75 30.5t-69 14.5q-43 0 -64.5 -29.5t-37.5 -64.5zM242 492q0 -72 20.5 -137.5t60 -117t98 -82t136.5 -30.5q80 0 139.5 29.5t100.5 80 t61.5 116t20.5 138.5q0 72 -22.5 135.5t-63.5 110.5t-101.5 75t-136.5 28q-72 0 -129 -29t-98 -77t-63.5 -110.5t-22.5 -129.5zM270 1176l320 272l323 -272l-118 -93l-205 174l-203 -174z" />
<glyph unicode="&#x1eac;" horiz-adv-x="1431" d="M12 0l713 1618l694 -1618h-190l-182 438h-660l-186 -438h-189zM395 1767l320 273l323 -273l-118 -92l-205 174l-203 -174zM457 598h522l-258 619zM604 -291q0 47 32 79t79 32t78.5 -32t31.5 -79t-31.5 -78.5t-78.5 -31.5t-79 31.5t-32 78.5z" />
<glyph unicode="&#x1ead;" horiz-adv-x="1181" d="M74 479q0 102 31.5 195.5t91 163t145.5 110.5t195 41q98 0 184 -43t145 -121h4v138h164v-963h-164v133h-4q-127 -160 -331 -160q-106 0 -191.5 42t-146 112t-92 161t-31.5 191zM242 492q0 -72 20.5 -137.5t60 -117t98 -82t136.5 -30.5q80 0 139.5 29.5t100.5 80t61.5 116 t20.5 138.5q0 72 -22.5 135.5t-63.5 110.5t-101.5 75t-136.5 28q-72 0 -129 -29t-98 -77t-63.5 -110.5t-22.5 -129.5zM269 1178l319 272l324 -272l-119 -92l-205 174l-203 -174zM479 -291q0 47 32 79t79 32t78.5 -32t31.5 -79t-31.5 -78.5t-78.5 -31.5t-79 31.5t-32 78.5z " />
<glyph unicode="&#x1eae;" horiz-adv-x="1431" d="M12 0l713 1618l694 -1618h-190l-182 438h-660l-186 -438h-189zM379 1968h141q27 -70 73 -104.5t122 -34.5t122 35t72 104h142q-8 -63 -38 -114.5t-75 -88t-102.5 -56t-120.5 -19.5q-61 0 -118.5 19.5t-103 56t-76 88t-38.5 114.5zM457 598h522l-258 619zM652 2034 l243 336l172 -78l-313 -316z" />
<glyph unicode="&#x1eaf;" horiz-adv-x="1181" d="M74 479q0 102 31.5 195.5t91 163t145.5 110.5t195 41q98 0 184 -43t145 -121h4v138h164v-963h-164v133h-4q-127 -160 -331 -160q-106 0 -191.5 42t-146 112t-92 161t-31.5 191zM242 492q0 -72 20.5 -137.5t60 -117t98 -82t136.5 -30.5q80 0 139.5 29.5t100.5 80t61.5 116 t20.5 138.5q0 72 -22.5 135.5t-63.5 110.5t-101.5 75t-136.5 28q-72 0 -129 -29t-98 -77t-63.5 -110.5t-22.5 -129.5zM254 1407h141q27 -70 73 -104.5t122 -34.5t122 35t72 104h142q-8 -63 -38 -114.5t-75 -88t-102.5 -56t-120.5 -19.5q-61 0 -118.5 19.5t-103 56t-76 88 t-38.5 114.5zM533 1462l243 336l172 -78l-313 -316z" />
<glyph unicode="&#x1eb0;" horiz-adv-x="1431" d="M12 0l713 1618l694 -1618h-190l-182 438h-660l-186 -438h-189zM379 1972h141q27 -70 73 -104.5t122 -34.5t122 35t72 104h142q-8 -63 -38 -114.5t-75 -88t-102.5 -56t-120.5 -19.5q-61 0 -118.5 19.5t-103 56t-76 88t-38.5 114.5zM396 2294l172 78l243 -336l-102 -58z M457 598h522l-258 619z" />
<glyph unicode="&#x1eb1;" horiz-adv-x="1181" d="M74 479q0 102 31.5 195.5t91 163t145.5 110.5t195 41q98 0 184 -43t145 -121h4v138h164v-963h-164v133h-4q-127 -160 -331 -160q-106 0 -191.5 42t-146 112t-92 161t-31.5 191zM242 492q0 -72 20.5 -137.5t60 -117t98 -82t136.5 -30.5q80 0 139.5 29.5t100.5 80t61.5 116 t20.5 138.5q0 72 -22.5 135.5t-63.5 110.5t-101.5 75t-136.5 28q-72 0 -129 -29t-98 -77t-63.5 -110.5t-22.5 -129.5zM254 1407h141q27 -70 73 -104.5t122 -34.5t122 35t72 104h142q-8 -63 -38 -114.5t-75 -88t-102.5 -56t-120.5 -19.5q-61 0 -118.5 19.5t-103 56t-76 88 t-38.5 114.5zM260 1720l172 78l243 -336l-102 -58z" />
<glyph unicode="&#x1eb2;" horiz-adv-x="1431" d="M12 0l713 1618l694 -1618h-190l-182 438h-660l-186 -438h-189zM379 1966h141q27 -70 73 -104.5t122 -34.5t122 35t72 104h142q-8 -63 -38 -114.5t-75 -88t-102.5 -56t-120.5 -19.5q-61 0 -118.5 19.5t-103 56t-76 88t-38.5 114.5zM457 598h522l-258 619zM519 2183 q-10 55 3 101t44.5 80t77 52.5t98.5 18.5q102 0 165.5 -53.5t63.5 -153.5q0 -45 -23.5 -89t-68.5 -73q-16 -10 -36.5 -28.5t-33.5 -51.5h-129q8 35 24.5 66.5t53.5 54.5q88 51 88 115q0 49 -27.5 72.5t-74.5 23.5q-61 0 -90 -38t-13 -97h-122z" />
<glyph unicode="&#x1eb3;" horiz-adv-x="1181" d="M74 479q0 102 31.5 195.5t91 163t145.5 110.5t195 41q98 0 184 -43t145 -121h4v138h164v-963h-164v133h-4q-127 -160 -331 -160q-106 0 -191.5 42t-146 112t-92 161t-31.5 191zM242 492q0 -72 20.5 -137.5t60 -117t98 -82t136.5 -30.5q80 0 139.5 29.5t100.5 80t61.5 116 t20.5 138.5q0 72 -22.5 135.5t-63.5 110.5t-101.5 75t-136.5 28q-72 0 -129 -29t-98 -77t-63.5 -110.5t-22.5 -129.5zM254 1407h141q27 -70 73 -104.5t122 -34.5t122 35t72 104h142q-8 -63 -38 -114.5t-75 -88t-102.5 -56t-120.5 -19.5q-61 0 -118.5 19.5t-103 56t-76 88 t-38.5 114.5zM379 1614q-10 55 3 101t44.5 80t77 52.5t98.5 18.5q102 0 165.5 -53.5t63.5 -153.5q0 -45 -23.5 -89t-68.5 -73q-16 -10 -36.5 -28.5t-33.5 -51.5h-129q8 35 24.5 66.5t53.5 54.5q88 51 88 115q0 49 -27.5 72.5t-74.5 23.5q-61 0 -90 -38t-13 -97h-122z" />
<glyph unicode="&#x1eb4;" horiz-adv-x="1431" d="M12 0l713 1618l694 -1618h-190l-182 438h-660l-186 -438h-189zM357 2122q18 31 38.5 59.5t45 52t55.5 37t70 13.5q47 0 88 -14.5t78 -32.5q39 -16 70.5 -31.5t60.5 -15.5q43 0 69.5 31.5t44.5 66.5l97 -78q-29 -68 -85.5 -117t-132.5 -49q-37 0 -75.5 14.5t-77.5 32.5 q-39 16 -75 30.5t-69 14.5q-43 0 -64.5 -29.5t-37.5 -64.5zM379 1972h141q27 -70 73 -104.5t122 -34.5t122 35t72 104h142q-8 -63 -38 -114.5t-75 -88t-102.5 -56t-120.5 -19.5q-61 0 -118.5 19.5t-103 56t-76 88t-38.5 114.5zM457 598h522l-258 619z" />
<glyph unicode="&#x1eb5;" horiz-adv-x="1181" d="M74 479q0 102 31.5 195.5t91 163t145.5 110.5t195 41q98 0 184 -43t145 -121h4v138h164v-963h-164v133h-4q-127 -160 -331 -160q-106 0 -191.5 42t-146 112t-92 161t-31.5 191zM232 1544q18 31 38.5 59.5t45 52t55.5 37t70 13.5q47 0 88 -14.5t78 -32.5 q39 -16 70.5 -31.5t60.5 -15.5q43 0 69.5 31.5t44.5 66.5l97 -78q-29 -68 -85.5 -117t-132.5 -49q-37 0 -75.5 14.5t-77.5 32.5q-39 16 -75 30.5t-69 14.5q-43 0 -64.5 -29.5t-37.5 -64.5zM242 492q0 -72 20.5 -137.5t60 -117t98 -82t136.5 -30.5q80 0 139.5 29.5t100.5 80 t61.5 116t20.5 138.5q0 72 -22.5 135.5t-63.5 110.5t-101.5 75t-136.5 28q-72 0 -129 -29t-98 -77t-63.5 -110.5t-22.5 -129.5zM254 1407h141q27 -70 73 -104.5t122 -34.5t122 35t72 104h142q-8 -63 -38 -114.5t-75 -88t-102.5 -56t-120.5 -19.5q-61 0 -118.5 19.5t-103 56 t-76 88t-38.5 114.5z" />
<glyph unicode="&#x1eb6;" horiz-adv-x="1431" d="M12 0l713 1618l694 -1618h-190l-182 438h-660l-186 -438h-189zM379 1974h141q27 -70 73 -104.5t122 -34.5t122 35t72 104h142q-8 -63 -38 -114.5t-75 -88t-102.5 -56t-120.5 -19.5q-61 0 -118.5 19.5t-103 56t-76 88t-38.5 114.5zM457 598h522l-258 619zM604 -291 q0 47 32 79t79 32t78.5 -32t31.5 -79t-31.5 -78.5t-78.5 -31.5t-79 31.5t-32 78.5z" />
<glyph unicode="&#x1eb7;" horiz-adv-x="1181" d="M74 479q0 102 31.5 195.5t91 163t145.5 110.5t195 41q98 0 184 -43t145 -121h4v138h164v-963h-164v133h-4q-127 -160 -331 -160q-106 0 -191.5 42t-146 112t-92 161t-31.5 191zM242 492q0 -72 20.5 -137.5t60 -117t98 -82t136.5 -30.5q80 0 139.5 29.5t100.5 80t61.5 116 t20.5 138.5q0 72 -22.5 135.5t-63.5 110.5t-101.5 75t-136.5 28q-72 0 -129 -29t-98 -77t-63.5 -110.5t-22.5 -129.5zM254 1407h141q27 -70 73 -104.5t122 -34.5t122 35t72 104h142q-8 -63 -38 -114.5t-75 -88t-102.5 -56t-120.5 -19.5q-61 0 -118.5 19.5t-103 56t-76 88 t-38.5 114.5zM479 -291q0 47 32 79t79 32t78.5 -32t31.5 -79t-31.5 -78.5t-78.5 -31.5t-79 31.5t-32 78.5z" />
<glyph unicode="&#x1eb8;" horiz-adv-x="1093" d="M156 0v1544h800v-160h-628v-458h610v-160h-610v-606h628v-160h-800zM436 -291q0 47 32 79t79 32t78.5 -32t31.5 -79t-31.5 -78.5t-78.5 -31.5t-79 31.5t-32 78.5z" />
<glyph unicode="&#x1eb9;" horiz-adv-x="1062" d="M70 469q0 106 30.5 201.5t90 166t146.5 111.5t200 41q117 0 204.5 -44t146 -119.5t85 -174t20.5 -205.5h-755q0 -68 23.5 -126t64.5 -101t99 -68.5t128 -25.5q104 0 175 56.5t118 142.5l139 -80q-70 -129 -183.5 -200t-260.5 -71q-109 0 -196 39t-148.5 105.5t-94 157 t-32.5 194.5zM246 586h575q-8 51 -33.5 97t-62.5 81t-85 54.5t-101 19.5t-102.5 -19.5t-89.5 -54.5t-66.5 -81t-34.5 -97zM420 -291q0 47 32 79t79 32t78.5 -32t31.5 -79t-31.5 -78.5t-78.5 -31.5t-79 31.5t-32 78.5z" />
<glyph unicode="&#x1eba;" horiz-adv-x="1093" d="M156 0v1544h800v-160h-628v-458h610v-160h-610v-606h628v-160h-800zM334 1981q-10 55 3 101t44.5 80t77 52.5t98.5 18.5q102 0 165.5 -53.5t63.5 -153.5q0 -45 -23.5 -89t-68.5 -73q-16 -10 -36.5 -28.5t-33.5 -51.5h-129q8 35 24.5 66.5t53.5 54.5q88 51 88 115 q0 49 -27.5 72.5t-74.5 23.5q-61 0 -90 -38t-13 -97h-122z" />
<glyph unicode="&#x1ebb;" horiz-adv-x="1062" d="M70 469q0 106 30.5 201.5t90 166t146.5 111.5t200 41q117 0 204.5 -44t146 -119.5t85 -174t20.5 -205.5h-755q0 -68 23.5 -126t64.5 -101t99 -68.5t128 -25.5q104 0 175 56.5t118 142.5l139 -80q-70 -129 -183.5 -200t-260.5 -71q-109 0 -196 39t-148.5 105.5t-94 157 t-32.5 194.5zM246 586h575q-8 51 -33.5 97t-62.5 81t-85 54.5t-101 19.5t-102.5 -19.5t-89.5 -54.5t-66.5 -81t-34.5 -97zM322 1284q-10 55 3 101t44.5 80t77 52.5t98.5 18.5q102 0 165.5 -53.5t63.5 -153.5q0 -45 -23.5 -89t-68.5 -73q-16 -10 -36.5 -28.5t-33.5 -51.5 h-129q8 35 24.5 66.5t53.5 54.5q88 51 88 115q0 49 -27.5 72.5t-74.5 23.5q-61 0 -90 -38t-13 -97h-122z" />
<glyph unicode="&#x1ebc;" horiz-adv-x="1093" d="M156 0v1544h800v-160h-628v-458h610v-160h-610v-606h628v-160h-800zM189 1866q18 31 38.5 59.5t45 52t55.5 37t70 13.5q47 0 88 -14.5t78 -32.5q39 -16 70.5 -31.5t60.5 -15.5q43 0 69.5 31.5t44.5 66.5l97 -78q-29 -68 -85.5 -117t-132.5 -49q-37 0 -75.5 14.5 t-77.5 32.5q-39 16 -75 30.5t-69 14.5q-43 0 -64.5 -29.5t-37.5 -64.5z" />
<glyph unicode="&#x1ebd;" horiz-adv-x="1062" d="M70 469q0 106 30.5 201.5t90 166t146.5 111.5t200 41q117 0 204.5 -44t146 -119.5t85 -174t20.5 -205.5h-755q0 -68 23.5 -126t64.5 -101t99 -68.5t128 -25.5q104 0 175 56.5t118 142.5l139 -80q-70 -129 -183.5 -200t-260.5 -71q-109 0 -196 39t-148.5 105.5t-94 157 t-32.5 194.5zM176 1163q18 31 38.5 59.5t45 52t55.5 37t70 13.5q47 0 88 -14.5t78 -32.5q39 -16 70.5 -31.5t60.5 -15.5q43 0 69.5 31.5t44.5 66.5l97 -78q-29 -68 -85.5 -117t-132.5 -49q-37 0 -75.5 14.5t-77.5 32.5q-39 16 -75 30.5t-69 14.5q-43 0 -64.5 -29.5 t-37.5 -64.5zM246 586h575q-8 51 -33.5 97t-62.5 81t-85 54.5t-101 19.5t-102.5 -19.5t-89.5 -54.5t-66.5 -81t-34.5 -97z" />
<glyph unicode="&#x1ebe;" horiz-adv-x="1093" d="M156 0v1544h800v-160h-628v-458h610v-160h-610v-606h628v-160h-800zM225 1767l320 273l323 -273l-118 -92l-205 174l-203 -174zM713 2026l243 336l172 -78l-313 -316z" />
<glyph unicode="&#x1ebf;" horiz-adv-x="1062" d="M70 469q0 106 30.5 201.5t90 166t146.5 111.5t200 41q117 0 204.5 -44t146 -119.5t85 -174t20.5 -205.5h-755q0 -68 23.5 -126t64.5 -101t99 -68.5t128 -25.5q104 0 175 56.5t118 142.5l139 -80q-70 -129 -183.5 -200t-260.5 -71q-109 0 -196 39t-148.5 105.5t-94 157 t-32.5 194.5zM211 1176l319 272l324 -272l-119 -93l-205 174l-202 -174zM246 586h575q-8 51 -33.5 97t-62.5 81t-85 54.5t-101 19.5t-102.5 -19.5t-89.5 -54.5t-66.5 -81t-34.5 -97zM817 1321l243 336l172 -78l-313 -316z" />
<glyph unicode="&#x1ec0;" horiz-adv-x="1093" d="M156 0v1544h800v-160h-628v-458h610v-160h-610v-606h628v-160h-800zM225 1767l320 273l323 -273l-118 -92l-205 174l-203 -174zM623 2183l172 78l243 -336l-102 -58z" />
<glyph unicode="&#x1ec1;" horiz-adv-x="1062" d="M70 469q0 106 30.5 201.5t90 166t146.5 111.5t200 41q117 0 204.5 -44t146 -119.5t85 -174t20.5 -205.5h-755q0 -68 23.5 -126t64.5 -101t99 -68.5t128 -25.5q104 0 175 56.5t118 142.5l139 -80q-70 -129 -183.5 -200t-260.5 -71q-109 0 -196 39t-148.5 105.5t-94 157 t-32.5 194.5zM211 1176l319 272l324 -272l-119 -93l-205 174l-202 -174zM246 586h575q-8 51 -33.5 97t-62.5 81t-85 54.5t-101 19.5t-102.5 -19.5t-89.5 -54.5t-66.5 -81t-34.5 -97zM615 1587l172 78l243 -336l-102 -58z" />
<glyph unicode="&#x1ec2;" horiz-adv-x="1093" d="M156 0v1544h800v-160h-628v-458h610v-160h-610v-606h628v-160h-800zM225 1767l320 273l323 -273l-118 -92l-205 174l-203 -174zM643 2171q-10 55 3 101t44.5 80t77 52.5t98.5 18.5q102 0 165.5 -53.5t63.5 -153.5q0 -45 -23.5 -89t-68.5 -73q-16 -10 -36.5 -28.5 t-33.5 -51.5h-129q8 35 24.5 66.5t53.5 54.5q88 51 88 115q0 49 -27.5 72.5t-74.5 23.5q-61 0 -90 -38t-13 -97h-122z" />
<glyph unicode="&#x1ec3;" horiz-adv-x="1062" d="M70 469q0 106 30.5 201.5t90 166t146.5 111.5t200 41q117 0 204.5 -44t146 -119.5t85 -174t20.5 -205.5h-755q0 -68 23.5 -126t64.5 -101t99 -68.5t128 -25.5q104 0 175 56.5t118 142.5l139 -80q-70 -129 -183.5 -200t-260.5 -71q-109 0 -196 39t-148.5 105.5t-94 157 t-32.5 194.5zM211 1176l319 272l324 -272l-119 -93l-205 174l-202 -174zM246 586h575q-8 51 -33.5 97t-62.5 81t-85 54.5t-101 19.5t-102.5 -19.5t-89.5 -54.5t-66.5 -81t-34.5 -97zM658 1563q-10 55 3 101t44.5 80t77 52.5t98.5 18.5q102 0 165.5 -53.5t63.5 -153.5 q0 -45 -23.5 -89t-68.5 -73q-16 -10 -36.5 -28.5t-33.5 -51.5h-129q8 35 24.5 66.5t53.5 54.5q88 51 88 115q0 49 -27.5 72.5t-74.5 23.5q-61 0 -90 -38t-13 -97h-122z" />
<glyph unicode="&#x1ec4;" horiz-adv-x="1093" d="M156 0v1544h800v-160h-628v-458h610v-160h-610v-606h628v-160h-800zM189 2152q18 31 38.5 59.5t45 52t55.5 37t70 13.5q47 0 88 -14.5t78 -32.5q39 -16 70.5 -31.5t60.5 -15.5q43 0 69.5 31.5t44.5 66.5l97 -78q-29 -68 -85.5 -117t-132.5 -49q-37 0 -75.5 14.5 t-77.5 32.5q-39 16 -75 30.5t-69 14.5q-43 0 -64.5 -29.5t-37.5 -64.5zM225 1767l320 273l323 -273l-118 -92l-205 174l-203 -174z" />
<glyph unicode="&#x1ec5;" horiz-adv-x="1062" d="M70 469q0 106 30.5 201.5t90 166t146.5 111.5t200 41q117 0 204.5 -44t146 -119.5t85 -174t20.5 -205.5h-755q0 -68 23.5 -126t64.5 -101t99 -68.5t128 -25.5q104 0 175 56.5t118 142.5l139 -80q-70 -129 -183.5 -200t-260.5 -71q-109 0 -196 39t-148.5 105.5t-94 157 t-32.5 194.5zM172 1563q18 31 38.5 59.5t45 52t55.5 37t70 13.5q47 0 88 -14.5t78 -32.5q39 -16 70.5 -31.5t60.5 -15.5q43 0 69.5 31.5t44.5 66.5l97 -78q-29 -68 -85.5 -117t-132.5 -49q-37 0 -75.5 14.5t-77.5 32.5q-39 16 -75 30.5t-69 14.5q-43 0 -64.5 -29.5 t-37.5 -64.5zM211 1176l319 272l324 -272l-119 -93l-205 174l-202 -174zM246 586h575q-8 51 -33.5 97t-62.5 81t-85 54.5t-101 19.5t-102.5 -19.5t-89.5 -54.5t-66.5 -81t-34.5 -97z" />
<glyph unicode="&#x1ec6;" horiz-adv-x="1093" d="M156 0v1544h800v-160h-628v-458h610v-160h-610v-606h628v-160h-800zM226 1819l319 272l324 -272l-119 -92l-205 174l-203 -174zM436 -291q0 47 32 79t79 32t78.5 -32t31.5 -79t-31.5 -78.5t-78.5 -31.5t-79 31.5t-32 78.5z" />
<glyph unicode="&#x1ec7;" horiz-adv-x="1062" d="M70 469q0 106 30.5 201.5t90 166t146.5 111.5t200 41q117 0 204.5 -44t146 -119.5t85 -174t20.5 -205.5h-755q0 -68 23.5 -126t64.5 -101t99 -68.5t128 -25.5q104 0 175 56.5t118 142.5l139 -80q-70 -129 -183.5 -200t-260.5 -71q-109 0 -196 39t-148.5 105.5t-94 157 t-32.5 194.5zM209 1178l319 272l324 -272l-119 -92l-205 174l-203 -174zM246 586h575q-8 51 -33.5 97t-62.5 81t-85 54.5t-101 19.5t-102.5 -19.5t-89.5 -54.5t-66.5 -81t-34.5 -97zM420 -291q0 47 32 79t79 32t78.5 -32t31.5 -79t-31.5 -78.5t-78.5 -31.5t-79 31.5 t-32 78.5z" />
<glyph unicode="&#x1ec8;" horiz-adv-x="489" d="M33 1981q-10 55 3 101t44.5 80t77 52.5t98.5 18.5q102 0 165.5 -53.5t63.5 -153.5q0 -45 -23.5 -89t-68.5 -73q-16 -10 -36.5 -28.5t-33.5 -51.5h-129q8 35 24.5 66.5t53.5 54.5q88 51 88 115q0 49 -27.5 72.5t-74.5 23.5q-61 0 -90 -38t-13 -97h-122zM160 0v1544h172 v-1544h-172z" />
<glyph unicode="&#x1ec9;" horiz-adv-x="536" d="M57 1282q-10 55 3.5 101.5t45 80t77 52t98.5 18.5q102 0 165.5 -53.5t63.5 -153.5q0 -45 -23.5 -89t-68.5 -73q-16 -10 -37 -28.5t-33 -51.5h-129q8 35 24.5 67t53.5 54q88 51 88 115q0 49 -27.5 72.5t-74.5 23.5q-61 0 -90 -38t-13 -97h-123zM186 0v963h164v-963h-164z " />
<glyph unicode="&#x1eca;" horiz-adv-x="489" d="M137 -291q0 47 32 79t79 32t78.5 -32t31.5 -79t-31.5 -78.5t-78.5 -31.5t-79 31.5t-32 78.5zM160 0v1544h172v-1544h-172z" />
<glyph unicode="&#x1ecb;" horiz-adv-x="536" d="M152 1325q0 47 34.5 82t81.5 35t82 -35t35 -82q0 -49 -35 -83t-82 -34t-81.5 34t-34.5 83zM160 -291q0 47 32 79t79 32t78.5 -32t31.5 -79t-31.5 -78.5t-78.5 -31.5t-79 31.5t-32 78.5zM186 0v963h164v-963h-164z" />
<glyph unicode="&#x1ecc;" horiz-adv-x="1765" d="M78 770q0 166 63.5 311.5t173 255t256 172t312.5 62.5t312 -62.5t256 -172t173.5 -255t63.5 -311.5t-63.5 -311.5t-173.5 -253t-256 -170t-312 -62.5t-312.5 62.5t-256 170t-173 253t-63.5 311.5zM250 772q0 -131 49 -246.5t135 -202.5t202 -138.5t247 -51.5t246.5 51.5 t201.5 138.5t135.5 202.5t49.5 246.5t-49.5 248t-134.5 204t-200.5 137t-248.5 50t-249 -50t-201 -137t-134 -204t-49 -248zM772 -291q0 47 32 79t79 32t78.5 -32t31.5 -79t-31.5 -78.5t-78.5 -31.5t-79 31.5t-32 78.5z" />
<glyph unicode="&#x1ecd;" horiz-adv-x="1150" d="M70 479q0 106 38.5 198.5t107.5 162t161 109.5t198 40t198.5 -40t161.5 -109.5t107.5 -161.5t38.5 -199q0 -106 -40 -198.5t-108.5 -161t-161 -107.5t-196.5 -39t-196 39t-160.5 107.5t-108.5 161t-40 198.5zM233 481q0 -74 25 -138t70 -113.5t108.5 -77t138.5 -27.5 q76 0 139.5 27.5t108.5 77t70 114t25 137.5q0 74 -25 138.5t-70 112.5t-108.5 77t-139.5 29t-139 -29t-108 -77t-70 -112.5t-25 -138.5zM465 -291q0 47 32 79t79 32t78.5 -32t31.5 -79t-31.5 -78.5t-78.5 -31.5t-79 31.5t-32 78.5z" />
<glyph unicode="&#x1ece;" horiz-adv-x="1765" d="M78 770q0 166 63.5 311.5t173 255t256 172t312.5 62.5t312 -62.5t256 -172t173.5 -255t63.5 -311.5t-63.5 -311.5t-173.5 -253t-256 -170t-312 -62.5t-312.5 62.5t-256 170t-173 253t-63.5 311.5zM250 772q0 -131 49 -246.5t135 -202.5t202 -138.5t247 -51.5t246.5 51.5 t201.5 138.5t135.5 202.5t49.5 246.5t-49.5 248t-134.5 204t-200.5 137t-248.5 50t-249 -50t-201 -137t-134 -204t-49 -248zM670 1981q-10 55 3 101t44.5 80t77 52.5t98.5 18.5q102 0 165.5 -53.5t63.5 -153.5q0 -45 -23.5 -89t-68.5 -73q-16 -10 -36.5 -28.5t-33.5 -51.5 h-129q8 35 24.5 66.5t53.5 54.5q88 51 88 115q0 49 -27.5 72.5t-74.5 23.5q-61 0 -90 -38t-13 -97h-122z" />
<glyph unicode="&#x1ecf;" horiz-adv-x="1150" d="M70 479q0 106 38.5 198.5t107.5 162t161 109.5t198 40t198.5 -40t161.5 -109.5t107.5 -161.5t38.5 -199q0 -106 -40 -198.5t-108.5 -161t-161 -107.5t-196.5 -39t-196 39t-160.5 107.5t-108.5 161t-40 198.5zM233 481q0 -74 25 -138t70 -113.5t108.5 -77t138.5 -27.5 q76 0 139.5 27.5t108.5 77t70 114t25 137.5q0 74 -25 138.5t-70 112.5t-108.5 77t-139.5 29t-139 -29t-108 -77t-70 -112.5t-25 -138.5zM363 1399q-10 55 3 101t44.5 80t77 52.5t98.5 18.5q102 0 165.5 -53.5t63.5 -153.5q0 -45 -23.5 -89t-68.5 -73q-16 -10 -36.5 -28.5 t-33.5 -51.5h-129q8 35 24.5 66.5t53.5 54.5q88 51 88 115q0 49 -27.5 72.5t-74.5 23.5q-61 0 -90 -38t-13 -97h-122z" />
<glyph unicode="&#x1ed0;" horiz-adv-x="1765" d="M78 770q0 166 63.5 311.5t173 255t256 172t312.5 62.5t312 -62.5t256 -172t173.5 -255t63.5 -311.5t-63.5 -311.5t-173.5 -253t-256 -170t-312 -62.5t-312.5 62.5t-256 170t-173 253t-63.5 311.5zM250 772q0 -131 49 -246.5t135 -202.5t202 -138.5t247 -51.5t246.5 51.5 t201.5 138.5t135.5 202.5t49.5 246.5t-49.5 248t-134.5 204t-200.5 137t-248.5 50t-249 -50t-201 -137t-134 -204t-49 -248zM561 1767l320 273l323 -273l-119 -92l-204 174l-203 -174zM1188 1929l243 336l172 -78l-313 -316z" />
<glyph unicode="&#x1ed1;" horiz-adv-x="1150" d="M70 479q0 106 38.5 198.5t107.5 162t161 109.5t198 40t198.5 -40t161.5 -109.5t107.5 -161.5t38.5 -199q0 -106 -40 -198.5t-108.5 -161t-161 -107.5t-196.5 -39t-196 39t-160.5 107.5t-108.5 161t-40 198.5zM233 481q0 -74 25 -138t70 -113.5t108.5 -77t138.5 -27.5 q76 0 139.5 27.5t108.5 77t70 114t25 137.5q0 74 -25 138.5t-70 112.5t-108.5 77t-139.5 29t-139 -29t-108 -77t-70 -112.5t-25 -138.5zM254 1176l319 272l324 -272l-119 -93l-205 174l-202 -174zM869 1333l243 336l172 -78l-313 -316z" />
<glyph unicode="&#x1ed2;" horiz-adv-x="1765" d="M78 770q0 166 63.5 311.5t173 255t256 172t312.5 62.5t312 -62.5t256 -172t173.5 -255t63.5 -311.5t-63.5 -311.5t-173.5 -253t-256 -170t-312 -62.5t-312.5 62.5t-256 170t-173 253t-63.5 311.5zM250 772q0 -131 49 -246.5t135 -202.5t202 -138.5t247 -51.5t246.5 51.5 t201.5 138.5t135.5 202.5t49.5 246.5t-49.5 248t-134.5 204t-200.5 137t-248.5 50t-249 -50t-201 -137t-134 -204t-49 -248zM561 1767l320 273l323 -273l-119 -92l-204 174l-203 -174zM985 2200l172 78l243 -336l-102 -58z" />
<glyph unicode="&#x1ed3;" horiz-adv-x="1150" d="M70 479q0 106 38.5 198.5t107.5 162t161 109.5t198 40t198.5 -40t161.5 -109.5t107.5 -161.5t38.5 -199q0 -106 -40 -198.5t-108.5 -161t-161 -107.5t-196.5 -39t-196 39t-160.5 107.5t-108.5 161t-40 198.5zM233 481q0 -74 25 -138t70 -113.5t108.5 -77t138.5 -27.5 q76 0 139.5 27.5t108.5 77t70 114t25 137.5q0 74 -25 138.5t-70 112.5t-108.5 77t-139.5 29t-139 -29t-108 -77t-70 -112.5t-25 -138.5zM254 1176l319 272l324 -272l-119 -93l-205 174l-202 -174zM711 1567l172 78l243 -336l-102 -58z" />
<glyph unicode="&#x1ed4;" horiz-adv-x="1765" d="M78 770q0 166 63.5 311.5t173 255t256 172t312.5 62.5t312 -62.5t256 -172t173.5 -255t63.5 -311.5t-63.5 -311.5t-173.5 -253t-256 -170t-312 -62.5t-312.5 62.5t-256 170t-173 253t-63.5 311.5zM250 772q0 -131 49 -246.5t135 -202.5t202 -138.5t247 -51.5t246.5 51.5 t201.5 138.5t135.5 202.5t49.5 246.5t-49.5 248t-134.5 204t-200.5 137t-248.5 50t-249 -50t-201 -137t-134 -204t-49 -248zM561 1767l320 273l323 -273l-119 -92l-204 174l-203 -174zM1031 2101q-10 55 3 101t44.5 80t77 52.5t98.5 18.5q102 0 165.5 -53.5t63.5 -153.5 q0 -45 -23.5 -89t-68.5 -73q-16 -10 -36.5 -28.5t-33.5 -51.5h-129q8 35 24.5 66.5t53.5 54.5q88 51 88 115q0 49 -27.5 72.5t-74.5 23.5q-61 0 -90 -38t-13 -97h-122z" />
<glyph unicode="&#x1ed5;" horiz-adv-x="1150" d="M70 479q0 106 38.5 198.5t107.5 162t161 109.5t198 40t198.5 -40t161.5 -109.5t107.5 -161.5t38.5 -199q0 -106 -40 -198.5t-108.5 -161t-161 -107.5t-196.5 -39t-196 39t-160.5 107.5t-108.5 161t-40 198.5zM233 481q0 -74 25 -138t70 -113.5t108.5 -77t138.5 -27.5 q76 0 139.5 27.5t108.5 77t70 114t25 137.5q0 74 -25 138.5t-70 112.5t-108.5 77t-139.5 29t-139 -29t-108 -77t-70 -112.5t-25 -138.5zM254 1176l319 272l324 -272l-119 -93l-205 174l-202 -174zM756 1512q-10 55 3 101t44.5 80t77 52.5t98.5 18.5q102 0 165.5 -53.5 t63.5 -153.5q0 -45 -23.5 -89t-68.5 -73q-16 -10 -36.5 -28.5t-33.5 -51.5h-129q8 35 24.5 66.5t53.5 54.5q88 51 88 115q0 49 -27.5 72.5t-74.5 23.5q-61 0 -90 -38t-13 -97h-122z" />
<glyph unicode="&#x1ed6;" horiz-adv-x="1765" d="M78 770q0 166 63.5 311.5t173 255t256 172t312.5 62.5t312 -62.5t256 -172t173.5 -255t63.5 -311.5t-63.5 -311.5t-173.5 -253t-256 -170t-312 -62.5t-312.5 62.5t-256 170t-173 253t-63.5 311.5zM250 772q0 -131 49 -246.5t135 -202.5t202 -138.5t247 -51.5t246.5 51.5 t201.5 138.5t135.5 202.5t49.5 246.5t-49.5 248t-134.5 204t-200.5 137t-248.5 50t-249 -50t-201 -137t-134 -204t-49 -248zM525 2150q18 31 38.5 59.5t45 52t55.5 37t70 13.5q47 0 88 -14.5t78 -32.5q39 -16 70.5 -31.5t60.5 -15.5q43 0 69.5 31.5t44.5 66.5l97 -78 q-29 -68 -85.5 -117t-132.5 -49q-37 0 -75.5 14.5t-77.5 32.5q-39 16 -75 30.5t-69 14.5q-43 0 -64.5 -29.5t-37.5 -64.5zM561 1767l320 273l323 -273l-119 -92l-204 174l-203 -174z" />
<glyph unicode="&#x1ed7;" horiz-adv-x="1150" d="M70 479q0 106 38.5 198.5t107.5 162t161 109.5t198 40t198.5 -40t161.5 -109.5t107.5 -161.5t38.5 -199q0 -106 -40 -198.5t-108.5 -161t-161 -107.5t-196.5 -39t-196 39t-160.5 107.5t-108.5 161t-40 198.5zM217 1565q18 31 38.5 59.5t45 52t55.5 37t70 13.5 q47 0 88 -14.5t78 -32.5q39 -16 70.5 -31.5t60.5 -15.5q43 0 69.5 31.5t44.5 66.5l97 -78q-29 -68 -85.5 -117t-132.5 -49q-37 0 -75.5 14.5t-77.5 32.5q-39 16 -75 30.5t-69 14.5q-43 0 -64.5 -29.5t-37.5 -64.5zM233 481q0 -74 25 -138t70 -113.5t108.5 -77t138.5 -27.5 q76 0 139.5 27.5t108.5 77t70 114t25 137.5q0 74 -25 138.5t-70 112.5t-108.5 77t-139.5 29t-139 -29t-108 -77t-70 -112.5t-25 -138.5zM254 1176l319 272l324 -272l-119 -93l-205 174l-202 -174z" />
<glyph unicode="&#x1ed8;" horiz-adv-x="1765" d="M78 770q0 166 63.5 311.5t173 255t256 172t312.5 62.5t312 -62.5t256 -172t173.5 -255t63.5 -311.5t-63.5 -311.5t-173.5 -253t-256 -170t-312 -62.5t-312.5 62.5t-256 170t-173 253t-63.5 311.5zM250 772q0 -131 49 -246.5t135 -202.5t202 -138.5t247 -51.5t246.5 51.5 t201.5 138.5t135.5 202.5t49.5 246.5t-49.5 248t-134.5 204t-200.5 137t-248.5 50t-249 -50t-201 -137t-134 -204t-49 -248zM561 1772l319 272l324 -272l-119 -92l-205 174l-203 -174zM772 -291q0 47 32 79t79 32t78.5 -32t31.5 -79t-31.5 -78.5t-78.5 -31.5t-79 31.5 t-32 78.5z" />
<glyph unicode="&#x1ed9;" horiz-adv-x="1150" d="M70 479q0 106 38.5 198.5t107.5 162t161 109.5t198 40t198.5 -40t161.5 -109.5t107.5 -161.5t38.5 -199q0 -106 -40 -198.5t-108.5 -161t-161 -107.5t-196.5 -39t-196 39t-160.5 107.5t-108.5 161t-40 198.5zM233 481q0 -74 25 -138t70 -113.5t108.5 -77t138.5 -27.5 q76 0 139.5 27.5t108.5 77t70 114t25 137.5q0 74 -25 138.5t-70 112.5t-108.5 77t-139.5 29t-139 -29t-108 -77t-70 -112.5t-25 -138.5zM254 1178l319 272l324 -272l-119 -92l-205 174l-203 -174zM465 -291q0 47 32 79t79 32t78.5 -32t31.5 -79t-31.5 -78.5t-78.5 -31.5 t-79 31.5t-32 78.5z" />
<glyph unicode="&#x1eda;" horiz-adv-x="1765" d="M76 770q0 166 63.5 311.5t173 255t256 172t312.5 62.5q104 0 202.5 -26.5t184.5 -74t158.5 -115t127.5 -149.5q63 63 100.5 148.5t41.5 189.5h174q-8 -158 -67.5 -281.5t-166.5 -215.5q23 -66 36.5 -135.5t13.5 -141.5q0 -166 -63.5 -311.5t-173.5 -253t-256 -170 t-312 -62.5t-312.5 62.5t-256 170t-173 253t-63.5 311.5zM248 772q0 -131 49 -246.5t135 -202.5t202 -138.5t247 -51.5t246.5 51.5t201.5 138.5t135 202.5t49 246.5t-49 248t-134 204t-200.5 137t-248.5 50t-249 -50t-201 -137t-134 -204t-49 -248zM674 1770l243 336 l172 -78l-313 -316z" />
<glyph unicode="&#x1edb;" horiz-adv-x="1150" d="M68 479q0 106 38.5 198.5t107.5 162t161 109.5t198 40q123 0 226.5 -52t173.5 -142q45 35 69.5 82t24.5 112h141q0 -106 -44 -187t-117 -138q33 -84 32 -185q0 -106 -40 -198.5t-108.5 -161t-160.5 -107.5t-197 -39q-104 0 -196 39t-161 107.5t-108.5 161t-39.5 198.5z M231 481q0 -74 25 -138t70 -113.5t108 -77t139 -27.5t139.5 27.5t108.5 77t69.5 114t24.5 137.5q0 74 -24.5 138.5t-69.5 112.5t-108.5 77t-139.5 29t-139 -29t-108 -77t-70 -112.5t-25 -138.5zM367 1188l243 336l172 -78l-313 -316z" />
<glyph unicode="&#x1edc;" horiz-adv-x="1765" d="M76 770q0 166 63.5 311.5t173 255t256 172t312.5 62.5q104 0 202.5 -26.5t184.5 -74t158.5 -115t127.5 -149.5q63 63 100.5 148.5t41.5 189.5h174q-8 -158 -67.5 -281.5t-166.5 -215.5q23 -66 36.5 -135.5t13.5 -141.5q0 -166 -63.5 -311.5t-173.5 -253t-256 -170 t-312 -62.5t-312.5 62.5t-256 170t-173 253t-63.5 311.5zM248 772q0 -131 49 -246.5t135 -202.5t202 -138.5t247 -51.5t246.5 51.5t201.5 138.5t135 202.5t49 246.5t-49 248t-134 204t-200.5 137t-248.5 50t-249 -50t-201 -137t-134 -204t-49 -248zM674 2028l172 78 l243 -336l-102 -58z" />
<glyph unicode="&#x1edd;" horiz-adv-x="1150" d="M68 479q0 106 38.5 198.5t107.5 162t161 109.5t198 40q123 0 226.5 -52t173.5 -142q45 35 69.5 82t24.5 112h141q0 -106 -44 -187t-117 -138q33 -84 32 -185q0 -106 -40 -198.5t-108.5 -161t-160.5 -107.5t-197 -39q-104 0 -196 39t-161 107.5t-108.5 161t-39.5 198.5z M231 481q0 -74 25 -138t70 -113.5t108 -77t139 -27.5t139.5 27.5t108.5 77t69.5 114t24.5 137.5q0 74 -24.5 138.5t-69.5 112.5t-108.5 77t-139.5 29t-139 -29t-108 -77t-70 -112.5t-25 -138.5zM367 1446l172 78l243 -336l-102 -58z" />
<glyph unicode="&#x1ede;" horiz-adv-x="1765" d="M76 770q0 166 63.5 311.5t173 255t256 172t312.5 62.5q104 0 202.5 -26.5t184.5 -74t158.5 -115t127.5 -149.5q63 63 100.5 148.5t41.5 189.5h174q-8 -158 -67.5 -281.5t-166.5 -215.5q23 -66 36.5 -135.5t13.5 -141.5q0 -166 -63.5 -311.5t-173.5 -253t-256 -170 t-312 -62.5t-312.5 62.5t-256 170t-173 253t-63.5 311.5zM248 772q0 -131 49 -246.5t135 -202.5t202 -138.5t247 -51.5t246.5 51.5t201.5 138.5t135 202.5t49 246.5t-49 248t-134 204t-200.5 137t-248.5 50t-249 -50t-201 -137t-134 -204t-49 -248zM670 1981q-10 55 3 101 t44.5 80t77 52.5t98.5 18.5q102 0 165.5 -53.5t63.5 -153.5q0 -45 -23.5 -89t-68.5 -73q-16 -10 -36.5 -28.5t-33.5 -51.5h-129q8 35 24.5 66.5t53.5 54.5q88 51 88 115q0 49 -27.5 72.5t-74.5 23.5q-61 0 -90 -38t-13 -97h-122z" />
<glyph unicode="&#x1edf;" horiz-adv-x="1150" d="M68 479q0 106 38.5 198.5t107.5 162t161 109.5t198 40q123 0 226.5 -52t173.5 -142q45 35 69.5 82t24.5 112h141q0 -106 -44 -187t-117 -138q33 -84 32 -185q0 -106 -40 -198.5t-108.5 -161t-160.5 -107.5t-197 -39q-104 0 -196 39t-161 107.5t-108.5 161t-39.5 198.5z M231 481q0 -74 25 -138t70 -113.5t108 -77t139 -27.5t139.5 27.5t108.5 77t69.5 114t24.5 137.5q0 74 -24.5 138.5t-69.5 112.5t-108.5 77t-139.5 29t-139 -29t-108 -77t-70 -112.5t-25 -138.5zM373 1284q-10 55 3 101t44.5 80t77 52.5t98.5 18.5q102 0 165.5 -53.5 t63.5 -153.5q0 -45 -23.5 -89t-68.5 -73q-16 -10 -36.5 -28.5t-33.5 -51.5h-129q8 35 24.5 66.5t53.5 54.5q88 51 88 115q0 49 -27.5 72.5t-74.5 23.5q-61 0 -90 -38t-13 -97h-122z" />
<glyph unicode="&#x1ee0;" horiz-adv-x="1765" d="M76 770q0 166 63.5 311.5t173 255t256 172t312.5 62.5q104 0 202.5 -26.5t184.5 -74t158.5 -115t127.5 -149.5q63 63 100.5 148.5t41.5 189.5h174q-8 -158 -67.5 -281.5t-166.5 -215.5q23 -66 36.5 -135.5t13.5 -141.5q0 -166 -63.5 -311.5t-173.5 -253t-256 -170 t-312 -62.5t-312.5 62.5t-256 170t-173 253t-63.5 311.5zM248 772q0 -131 49 -246.5t135 -202.5t202 -138.5t247 -51.5t246.5 51.5t201.5 138.5t135 202.5t49 246.5t-49 248t-134 204t-200.5 137t-248.5 50t-249 -50t-201 -137t-134 -204t-49 -248zM525 1866 q18 31 38.5 59.5t45 52t55.5 37t70 13.5q47 0 88 -14.5t78 -32.5q39 -16 70.5 -31.5t60.5 -15.5q43 0 69.5 31.5t44.5 66.5l97 -78q-29 -68 -85.5 -117t-132.5 -49q-37 0 -75.5 14.5t-77.5 32.5q-39 16 -75 30.5t-69 14.5q-43 0 -64.5 -29.5t-37.5 -64.5z" />
<glyph unicode="&#x1ee1;" horiz-adv-x="1150" d="M68 479q0 106 38.5 198.5t107.5 162t161 109.5t198 40q123 0 226.5 -52t173.5 -142q45 35 69.5 82t24.5 112h141q0 -106 -44 -187t-117 -138q33 -84 32 -185q0 -106 -40 -198.5t-108.5 -161t-160.5 -107.5t-197 -39q-104 0 -196 39t-161 107.5t-108.5 161t-39.5 198.5z M217 1163q18 31 38.5 59.5t45 52t55.5 37t70 13.5q47 0 88 -14.5t78 -32.5q39 -16 70.5 -31.5t60.5 -15.5q43 0 69.5 31.5t44.5 66.5l97 -78q-29 -68 -85.5 -117t-132.5 -49q-37 0 -75.5 14.5t-77.5 32.5q-39 16 -75 30.5t-69 14.5q-43 0 -64.5 -29.5t-37.5 -64.5zM231 481 q0 -74 25 -138t70 -113.5t108 -77t139 -27.5t139.5 27.5t108.5 77t69.5 114t24.5 137.5q0 74 -24.5 138.5t-69.5 112.5t-108.5 77t-139.5 29t-139 -29t-108 -77t-70 -112.5t-25 -138.5z" />
<glyph unicode="&#x1ee2;" horiz-adv-x="1765" d="M76 770q0 166 63.5 311.5t173 255t256 172t312.5 62.5q104 0 202.5 -26.5t184.5 -74t158.5 -115t127.5 -149.5q63 63 100.5 148.5t41.5 189.5h174q-8 -158 -67.5 -281.5t-166.5 -215.5q23 -66 36.5 -135.5t13.5 -141.5q0 -166 -63.5 -311.5t-173.5 -253t-256 -170 t-312 -62.5t-312.5 62.5t-256 170t-173 253t-63.5 311.5zM248 772q0 -131 49 -246.5t135 -202.5t202 -138.5t247 -51.5t246.5 51.5t201.5 138.5t135 202.5t49 246.5t-49 248t-134 204t-200.5 137t-248.5 50t-249 -50t-201 -137t-134 -204t-49 -248zM772 -291q0 47 32 79 t79 32t78.5 -32t31.5 -79t-31.5 -78.5t-78.5 -31.5t-79 31.5t-32 78.5z" />
<glyph unicode="&#x1ee3;" horiz-adv-x="1150" d="M68 479q0 106 38.5 198.5t107.5 162t161 109.5t198 40q123 0 226.5 -52t173.5 -142q45 35 69.5 82t24.5 112h141q0 -106 -44 -187t-117 -138q33 -84 32 -185q0 -106 -40 -198.5t-108.5 -161t-160.5 -107.5t-197 -39q-104 0 -196 39t-161 107.5t-108.5 161t-39.5 198.5z M231 481q0 -74 25 -138t70 -113.5t108 -77t139 -27.5t139.5 27.5t108.5 77t69.5 114t24.5 137.5q0 74 -24.5 138.5t-69.5 112.5t-108.5 77t-139.5 29t-139 -29t-108 -77t-70 -112.5t-25 -138.5zM465 -291q0 47 32 79t79 32t78.5 -32t31.5 -79t-31.5 -78.5t-78.5 -31.5 t-79 31.5t-32 78.5z" />
<glyph unicode="&#x1ee4;" horiz-adv-x="1402" d="M152 578v966h172v-919v-88t6 -90.5t20.5 -87.5t40.5 -78q51 -72 138 -110t173 -38q84 0 167 36t137 101q31 37 46 80t22 89t7 93.5v92.5v919h172v-966q0 -63 -4 -120t-17 -110t-41 -102t-73 -96q-80 -86 -189.5 -131.5t-226.5 -45.5q-111 0 -216 40t-183 118 q-51 49 -80.5 99.5t-45 105.5t-20.5 115.5t-5 126.5zM590 -291q0 47 32 79t79 32t78.5 -32t31.5 -79t-31.5 -78.5t-78.5 -31.5t-79 31.5t-32 78.5z" />
<glyph unicode="&#x1ee5;" horiz-adv-x="1048" d="M143 408v555h164v-537q0 -61 6 -115.5t27.5 -95.5t66 -65.5t117.5 -24.5q74 0 118 24.5t65.5 65.5t27.5 95.5t6 115.5v537h164v-555q0 -96 -19.5 -176t-64.5 -137.5t-117.5 -89.5t-179.5 -32q-106 0 -179 32t-118 89.5t-64.5 137t-19.5 176.5zM414 -291q0 47 32 79t79 32 t78.5 -32t31.5 -79t-31.5 -78.5t-78.5 -31.5t-79 31.5t-32 78.5z" />
<glyph unicode="&#x1ee6;" horiz-adv-x="1402" d="M152 578v966h172v-919v-88t6 -90.5t20.5 -87.5t40.5 -78q51 -72 138 -110t173 -38q84 0 167 36t137 101q31 37 46 80t22 89t7 93.5v92.5v919h172v-966q0 -63 -4 -120t-17 -110t-41 -102t-73 -96q-80 -86 -189.5 -131.5t-226.5 -45.5q-111 0 -216 40t-183 118 q-51 49 -80.5 99.5t-45 105.5t-20.5 115.5t-5 126.5zM490 1981q-10 55 3 101t44.5 80t77 52.5t98.5 18.5q102 0 165.5 -53.5t63.5 -153.5q0 -45 -23.5 -89t-68.5 -73q-16 -10 -36.5 -28.5t-33.5 -51.5h-129q8 35 24.5 66.5t53.5 54.5q88 51 88 115q0 49 -27.5 72.5 t-74.5 23.5q-61 0 -90 -38t-13 -97h-122z" />
<glyph unicode="&#x1ee7;" horiz-adv-x="1048" d="M143 408v555h164v-537q0 -61 6 -115.5t27.5 -95.5t66 -65.5t117.5 -24.5q74 0 118 24.5t65.5 65.5t27.5 95.5t6 115.5v537h164v-555q0 -96 -19.5 -176t-64.5 -137.5t-117.5 -89.5t-179.5 -32q-106 0 -179 32t-118 89.5t-64.5 137t-19.5 176.5zM324 1284q-10 55 3 101 t44.5 80t77 52.5t98.5 18.5q102 0 165.5 -53.5t63.5 -153.5q0 -45 -23.5 -89t-68.5 -73q-16 -10 -36.5 -28.5t-33.5 -51.5h-129q8 35 24.5 66.5t53.5 54.5q88 51 88 115q0 49 -27.5 72.5t-74.5 23.5q-61 0 -90 -38t-13 -97h-122z" />
<glyph unicode="&#x1ee8;" horiz-adv-x="1482" d="M152 578v966h172v-919v-88t6 -90.5t20.5 -87.5t40.5 -78q51 -72 138 -110t173 -38q84 0 167 36t137 101q31 37 46 80t22 89t7 93.5v92.5v919h172v-321q72 53 114 140t44 181h150q0 -80 -24 -156.5t-63.5 -142t-96 -119t-124.5 -86.5v-462q0 -63 -4 -120t-17 -110 t-41 -102t-73 -96q-80 -86 -189.5 -131.5t-226.5 -45.5q-111 0 -216 40t-183 118q-51 49 -80.5 99.5t-45 105.5t-20.5 115.5t-5 126.5zM555 1770l243 336l172 -78l-313 -316z" />
<glyph unicode="&#x1ee9;" horiz-adv-x="1124" d="M143 408v555h164v-537q0 -61 6 -115.5t27.5 -95.5t66 -65.5t117.5 -24.5q74 0 118 24.5t65.5 65.5t27.5 95.5t6 115.5v537h164v-254q66 51 99.5 108t35.5 146h142q-2 -150 -76 -254.5t-201 -165.5v-135q0 -96 -19.5 -176t-64.5 -137.5t-117.5 -89.5t-179.5 -32 q-106 0 -179 32t-118 89.5t-64.5 137t-19.5 176.5zM369 1188l243 336l172 -78l-313 -316z" />
<glyph unicode="&#x1eea;" horiz-adv-x="1482" d="M152 578v966h172v-919v-88t6 -90.5t20.5 -87.5t40.5 -78q51 -72 138 -110t173 -38q84 0 167 36t137 101q31 37 46 80t22 89t7 93.5v92.5v919h172v-321q72 53 114 140t44 181h150q0 -80 -24 -156.5t-63.5 -142t-96 -119t-124.5 -86.5v-462q0 -63 -4 -120t-17 -110 t-41 -102t-73 -96q-80 -86 -189.5 -131.5t-226.5 -45.5q-111 0 -216 40t-183 118q-51 49 -80.5 99.5t-45 105.5t-20.5 115.5t-5 126.5zM514 2028l172 78l243 -336l-102 -58z" />
<glyph unicode="&#x1eeb;" horiz-adv-x="1124" d="M143 408v555h164v-537q0 -61 6 -115.5t27.5 -95.5t66 -65.5t117.5 -24.5q74 0 118 24.5t65.5 65.5t27.5 95.5t6 115.5v537h164v-254q66 51 99.5 108t35.5 146h142q-2 -150 -76 -254.5t-201 -165.5v-135q0 -96 -19.5 -176t-64.5 -137.5t-117.5 -89.5t-179.5 -32 q-106 0 -179 32t-118 89.5t-64.5 137t-19.5 176.5zM328 1446l172 78l243 -336l-102 -58z" />
<glyph unicode="&#x1eec;" horiz-adv-x="1482" d="M152 578v966h172v-919v-88t6 -90.5t20.5 -87.5t40.5 -78q51 -72 138 -110t173 -38q84 0 167 36t137 101q31 37 46 80t22 89t7 93.5v92.5v919h172v-321q72 53 114 140t44 181h150q0 -80 -24 -156.5t-63.5 -142t-96 -119t-124.5 -86.5v-462q0 -63 -4 -120t-17 -110 t-41 -102t-73 -96q-80 -86 -189.5 -131.5t-226.5 -45.5q-111 0 -216 40t-183 118q-51 49 -80.5 99.5t-45 105.5t-20.5 115.5t-5 126.5zM510 1981q-10 55 3 101t44.5 80t77 52.5t98.5 18.5q102 0 165.5 -53.5t63.5 -153.5q0 -45 -23.5 -89t-68.5 -73q-16 -10 -36.5 -28.5 t-33.5 -51.5h-129q8 35 24.5 66.5t53.5 54.5q88 51 88 115q0 49 -27.5 72.5t-74.5 23.5q-61 0 -90 -38t-13 -97h-122z" />
<glyph unicode="&#x1eed;" horiz-adv-x="1124" d="M143 408v555h164v-537q0 -61 6 -115.5t27.5 -95.5t66 -65.5t117.5 -24.5q74 0 118 24.5t65.5 65.5t27.5 95.5t6 115.5v537h164v-254q66 51 99.5 108t35.5 146h142q-2 -150 -76 -254.5t-201 -165.5v-135q0 -96 -19.5 -176t-64.5 -137.5t-117.5 -89.5t-179.5 -32 q-106 0 -179 32t-118 89.5t-64.5 137t-19.5 176.5zM324 1284q-10 55 3 101t44.5 80t77 52.5t98.5 18.5q102 0 165.5 -53.5t63.5 -153.5q0 -45 -23.5 -89t-68.5 -73q-16 -10 -36.5 -28.5t-33.5 -51.5h-129q8 35 24.5 66.5t53.5 54.5q88 51 88 115q0 49 -27.5 72.5t-74.5 23.5 q-61 0 -90 -38t-13 -97h-122z" />
<glyph unicode="&#x1eee;" horiz-adv-x="1544" d="M152 578v966h172v-919v-88t6 -90.5t20.5 -87.5t40.5 -78q51 -72 138 -110t173 -38q84 0 167 36t137 101q31 37 46 80t22 89t7 93.5v92.5v919h172v-321q72 53 114 140t44 181h150q0 -80 -24 -156.5t-63.5 -142t-96 -119t-124.5 -86.5v-462q0 -63 -4 -120t-17 -110 t-41 -102t-73 -96q-80 -86 -189.5 -131.5t-226.5 -45.5q-111 0 -216 40t-183 118q-51 49 -80.5 99.5t-45 105.5t-20.5 115.5t-5 126.5zM365 1866q18 31 38.5 59.5t45 52t55.5 37t70 13.5q47 0 88 -14.5t78 -32.5q39 -16 70.5 -31.5t60.5 -15.5q43 0 69.5 31.5t44.5 66.5 l97 -78q-29 -68 -85.5 -117t-132.5 -49q-37 0 -75.5 14.5t-77.5 32.5q-39 16 -75 30.5t-69 14.5q-43 0 -64.5 -29.5t-37.5 -64.5z" />
<glyph unicode="&#x1eef;" horiz-adv-x="1124" d="M143 408v555h164v-537q0 -61 6 -115.5t27.5 -95.5t66 -65.5t117.5 -24.5q74 0 118 24.5t65.5 65.5t27.5 95.5t6 115.5v537h164v-254q66 51 99.5 108t35.5 146h142q-2 -150 -76 -254.5t-201 -165.5v-135q0 -96 -19.5 -176t-64.5 -137.5t-117.5 -89.5t-179.5 -32 q-106 0 -179 32t-118 89.5t-64.5 137t-19.5 176.5zM176 1163q18 31 38.5 59.5t45 52t55.5 37t70 13.5q47 0 88 -14.5t78 -32.5q39 -16 70.5 -31.5t60.5 -15.5q43 0 69.5 31.5t44.5 66.5l97 -78q-29 -68 -85.5 -117t-132.5 -49q-37 0 -75.5 14.5t-77.5 32.5q-39 16 -75 30.5 t-69 14.5q-43 0 -64.5 -29.5t-37.5 -64.5z" />
<glyph unicode="&#x1ef0;" horiz-adv-x="1482" d="M152 578v966h172v-919v-88t6 -90.5t20.5 -87.5t40.5 -78q51 -72 138 -110t173 -38q84 0 167 36t137 101q31 37 46 80t22 89t7 93.5v92.5v919h172v-321q72 53 114 140t44 181h150q0 -80 -24 -156.5t-63.5 -142t-96 -119t-124.5 -86.5v-462q0 -63 -4 -120t-17 -110 t-41 -102t-73 -96q-80 -86 -189.5 -131.5t-226.5 -45.5q-111 0 -216 40t-183 118q-51 49 -80.5 99.5t-45 105.5t-20.5 115.5t-5 126.5zM612 -291q0 47 32 79t79 32t78.5 -32t31.5 -79t-31.5 -78.5t-78.5 -31.5t-79 31.5t-32 78.5z" />
<glyph unicode="&#x1ef1;" horiz-adv-x="1124" d="M143 408v555h164v-537q0 -61 6 -115.5t27.5 -95.5t66 -65.5t117.5 -24.5q74 0 118 24.5t65.5 65.5t27.5 95.5t6 115.5v537h164v-254q66 51 99.5 108t35.5 146h142q-2 -150 -76 -254.5t-201 -165.5v-135q0 -96 -19.5 -176t-64.5 -137.5t-117.5 -89.5t-179.5 -32 q-106 0 -179 32t-118 89.5t-64.5 137t-19.5 176.5zM424 -291q0 47 32 79t79 32t78.5 -32t31.5 -79t-31.5 -78.5t-78.5 -31.5t-79 31.5t-32 78.5z" />
<glyph unicode="&#x1ef2;" horiz-adv-x="1214" d="M16 1544h199l393 -688l393 688h199l-506 -880v-664h-172v664zM400 2028l172 78l243 -336l-102 -58z" />
<glyph unicode="&#x1ef3;" horiz-adv-x="1019" d="M-4 963h190l340 -691l312 691h186l-711 -1504h-186l311 631zM301 1446l172 78l243 -336l-102 -58z" />
<glyph unicode="&#x1ef4;" horiz-adv-x="1214" d="M16 1544h199l393 -688l393 688h199l-506 -880v-664h-172v664zM496 -291q0 47 32 79t79 32t78.5 -32t31.5 -79t-31.5 -78.5t-78.5 -31.5t-79 31.5t-32 78.5z" />
<glyph unicode="&#x1ef5;" horiz-adv-x="1019" d="M-4 963h190l340 -691l312 691h186l-711 -1504h-186l311 631zM584 -291q0 47 32 79t79 32t78.5 -32t31.5 -79t-31.5 -78.5t-78.5 -31.5t-79 31.5t-32 78.5z" />
<glyph unicode="&#x1ef6;" horiz-adv-x="1214" d="M16 1544h199l393 -688l393 688h199l-506 -880v-664h-172v664zM396 1981q-10 55 3 101t44.5 80t77 52.5t98.5 18.5q102 0 165.5 -53.5t63.5 -153.5q0 -45 -23.5 -89t-68.5 -73q-16 -10 -36.5 -28.5t-33.5 -51.5h-129q8 35 24.5 66.5t53.5 54.5q88 51 88 115 q0 49 -27.5 72.5t-74.5 23.5q-61 0 -90 -38t-13 -97h-122z" />
<glyph unicode="&#x1ef7;" horiz-adv-x="1019" d="M-4 963h190l340 -691l312 691h186l-711 -1504h-186l311 631zM297 1399q-10 55 3 101t44.5 80t77 52.5t98.5 18.5q102 0 165.5 -53.5t63.5 -153.5q0 -45 -23.5 -89t-68.5 -73q-16 -10 -36.5 -28.5t-33.5 -51.5h-129q8 35 24.5 66.5t53.5 54.5q88 51 88 115 q0 49 -27.5 72.5t-74.5 23.5q-61 0 -90 -38t-13 -97h-122z" />
<glyph unicode="&#x1ef8;" horiz-adv-x="1214" d="M16 1544h199l393 -688l393 688h199l-506 -880v-664h-172v664zM248 1866q18 31 38.5 59.5t45 52t55.5 37t70 13.5q47 0 88 -14.5t78 -32.5q39 -16 70.5 -31.5t60.5 -15.5q43 0 69.5 31.5t44.5 66.5l97 -78q-29 -68 -85.5 -117t-132.5 -49q-37 0 -75.5 14.5t-77.5 32.5 q-39 16 -75 30.5t-69 14.5q-43 0 -64.5 -29.5t-37.5 -64.5z" />
<glyph unicode="&#x1ef9;" horiz-adv-x="1019" d="M-4 963h190l340 -691l312 691h186l-711 -1504h-186l311 631zM156 1163q18 31 38.5 59.5t45 52t55.5 37t70 13.5q47 0 88 -14.5t78 -32.5q39 -16 70.5 -31.5t60.5 -15.5q43 0 69.5 31.5t44.5 66.5l97 -78q-29 -68 -85.5 -117t-132.5 -49q-37 0 -75.5 14.5t-77.5 32.5 q-39 16 -75 30.5t-69 14.5q-43 0 -64.5 -29.5t-37.5 -64.5z" />
<glyph unicode="&#x2010;" horiz-adv-x="425" d="M4 418v151h420v-151h-420z" />
<glyph unicode="&#x2013;" horiz-adv-x="1024" d="M0 418v151h1024v-151h-1024z" />
<glyph unicode="&#x2014;" horiz-adv-x="2048" d="M266 418v151h1516v-151h-1516z" />
<glyph unicode="&#x2018;" horiz-adv-x="591" d="M125 1049l233 522l111 -43l-193 -535z" />
<glyph unicode="&#x2019;" horiz-adv-x="591" d="M123 1036l192 535l152 -55l-234 -523z" />
<glyph unicode="&#x201a;" horiz-adv-x="591" d="M125 -307l192 532l152 -53l-233 -524z" />
<glyph unicode="&#x201c;" horiz-adv-x="935" d="M125 1049l233 522l111 -43l-193 -535zM469 1049l233 522l111 -43l-192 -535z" />
<glyph unicode="&#x201d;" horiz-adv-x="935" d="M125 1036l192 535l152 -55l-233 -523zM469 1036l193 535l151 -55l-233 -523z" />
<glyph unicode="&#x201e;" horiz-adv-x="950" d="M125 -307l192 532l152 -53l-233 -524zM483 -307l193 532l151 -53l-233 -524z" />
<glyph unicode="&#x2020;" horiz-adv-x="1212" d="M180 1006v159h342v379h168v-379h342v-159h-342v-1340h-168v1340h-342z" />
<glyph unicode="&#x2021;" horiz-adv-x="1212" d="M180 102v160h342v744h-342v159h342v379h168v-379h342v-159h-342v-744h342v-160h-342v-436h-168v436h-342z" />
<glyph unicode="&#x2022;" horiz-adv-x="1212" d="M221 772q0 80 30 150.5t82 123t122.5 83t150.5 30.5t150.5 -30.5t123 -83t83 -123t30.5 -150.5t-30.5 -150.5t-84 -123t-123 -82t-149.5 -29.5t-149.5 29.5t-121.5 82t-83 123t-31 150.5z" />
<glyph unicode="&#x2026;" horiz-adv-x="2048" d="M229 90q0 47 34 80t81 33t81 -33t34 -80t-34 -82t-81 -35t-81 35t-34 82zM909 90q0 47 34 80t81 33t81 -33t34 -80t-34 -82t-81 -35t-81 35t-34 82zM1589 90q0 47 34 80t81 33t81 -33t34 -80t-34 -82t-81 -35t-81 35t-34 82z" />
<glyph unicode="&#x2030;" horiz-adv-x="2482" d="M70 1233q0 72 27.5 133t73.5 107.5t108.5 72t134.5 25.5q70 0 133 -25.5t109 -72t74 -107.5t28 -133t-28 -132.5t-75 -106.5t-109.5 -71.5t-131.5 -25.5q-70 0 -132.5 25.5t-109.5 70.5t-74.5 106.5t-27.5 133.5zM201 1233q0 -43 17.5 -80t46 -64.5t67.5 -44t82 -16.5 t82 16.5t67.5 44t46 64.5t17.5 80t-17.5 81t-46 65.5t-67.5 44t-82 16.5t-82 -16.5t-67.5 -44t-46 -65.5t-17.5 -81zM328 27l899 1544l82 -49l-893 -1549zM885 309q0 72 27.5 133.5t73.5 107.5t108.5 71.5t134.5 25.5q70 0 133 -25.5t109.5 -71.5t74 -107.5t27.5 -133.5 t-27.5 -132t-75 -106t-110 -72t-131.5 -26q-70 0 -132.5 26t-109.5 71t-74.5 106.5t-27.5 132.5zM1016 309q0 -43 17.5 -79.5t46 -64.5t67.5 -44.5t82 -16.5t82 16.5t67.5 44.5t46 64.5t17.5 79.5t-17.5 81t-46 65.5t-67.5 44t-82 16.5t-82 -16.5t-67.5 -44t-46 -65.5 t-17.5 -81zM1724 309q0 72 28 133.5t74 107.5t108 71.5t134 25.5q70 0 133.5 -25.5t109.5 -71.5t74 -107.5t28 -133.5t-28 -132t-75 -106t-109.5 -72t-132.5 -26t-132 26t-109 71t-75 106.5t-28 132.5zM1855 309q0 -43 17.5 -79.5t46.5 -64.5t67.5 -44.5t81.5 -16.5t82 16.5 t68 44.5t46 64.5t17 79.5t-17 81t-46 65.5t-68 44t-82 16.5t-81.5 -16.5t-67.5 -44t-46.5 -65.5t-17.5 -81z" />
<glyph unicode="&#x2039;" horiz-adv-x="675" d="M84 492l344 436l109 -86l-277 -350l277 -340l-109 -84z" />
<glyph unicode="&#x203a;" horiz-adv-x="675" d="M139 152l277 340l-277 350l109 86l344 -436l-344 -424z" />
<glyph unicode="&#x2044;" horiz-adv-x="329" d="M-330 23l899 1548l90 -49l-899 -1549z" />
<glyph unicode="&#x20ac;" d="M59 559l47 131h105q-2 16 -3 40t-1 46q0 23 1 44.5t1 37.5h-150l47 131h115q18 125 59.5 230.5t111 183.5t170 122t235.5 44q129 0 223 -34t141 -71v-170q-51 49 -137 85t-209 36q-98 0 -172 -32.5t-126 -90t-83 -135.5t-41 -168h670l-47 -131h-641q0 -16 -1 -38.5 t-1 -43.5q0 -25 1 -47t1 -39h579l-47 -131h-514q29 -209 135.5 -321.5t288.5 -112.5q121 0 204 36t140 87v-172q-41 -37 -135 -69t-231 -32q-236 0 -383.5 141.5t-188.5 442.5h-164z" />
<glyph unicode="&#x2113;" horiz-adv-x="1091" d="M68 410q47 41 92 76.5t86 74.5v606q0 152 30.5 253.5t78.5 163t109.5 88t123.5 26.5q72 0 124 -29t87 -77t51 -113.5t16 -139.5q0 -104 -33.5 -206.5t-95 -204t-147.5 -201.5t-193 -201v-69q0 -92 21.5 -158t56.5 -107.5t80 -61t94 -19.5q55 0 102.5 20.5t87.5 52 t70.5 70.5t51.5 76l77 -68q-74 -139 -180 -208.5t-240 -69.5q-96 0 -164.5 33.5t-112.5 90t-66.5 130t-26.5 155.5v27q-31 -23 -63.5 -50.5t-67.5 -54.5zM397 682q76 80 140.5 161t112.5 162.5t76 163.5t28 166q0 109 -37 175.5t-129 66.5q-31 0 -65 -19.5t-61.5 -65.5 t-46 -122t-18.5 -186v-502z" />
<glyph unicode="&#x2122;" horiz-adv-x="1925" d="M74 1421v123h698v-123h-287v-739h-123v739h-288zM938 682v862h207l248 -620l256 620h204v-862h-122v739h-5l-294 -739h-80l-287 739h-4v-739h-123z" />
<glyph unicode="&#x2126;" horiz-adv-x="1638" d="M113 0v131h342v6q-61 51 -116.5 121t-98.5 157t-69 190.5t-26 219.5q0 162 52.5 298.5t143.5 233.5t215 151.5t269 54.5q152 0 275 -60.5t210 -161t134 -232.5t47 -275q0 -121 -26.5 -227.5t-71.5 -195.5t-101.5 -158t-113.5 -116v-6h344v-131h-541v96q66 41 128 107.5 t111.5 156t79 201t29.5 244.5q0 109 -31.5 220.5t-95 201.5t-159 147.5t-220.5 57.5q-119 0 -214 -49.5t-162.5 -135.5t-103.5 -200.5t-36 -245.5q0 -125 30 -235.5t79 -202t111.5 -159t127.5 -108.5v-96h-542z" />
<glyph unicode="&#x212e;" horiz-adv-x="1925" d="M74 770q0 166 69.5 311.5t190.5 255t281.5 172t345.5 62.5q184 0 345.5 -62.5t282.5 -172t190.5 -255t69.5 -311.5v-20h-1437q-10 0 -11 -11v-434q0 -29 19 -49q104 -109 243.5 -172.5t299.5 -63.5q174 0 320.5 71t250.5 194h129q-121 -141 -303 -225.5t-399 -84.5 q-184 0 -345 62.5t-282 170t-190.5 253t-69.5 309.5zM401 807q0 -14 11 -14h1101q10 0 11 14v436q0 31 -23 53q-104 104 -241.5 165t-296.5 61q-158 0 -297.5 -63.5t-243.5 -170.5q-20 -20 -21 -53v-428z" />
<glyph unicode="&#x2202;" horiz-adv-x="1230" d="M96 492q0 129 39 232t105.5 176t152.5 113t182 40q80 0 144.5 -24.5t112 -60.5t79 -74t43.5 -63h2q4 20 4.5 50t0.5 51q0 150 -35 271.5t-93.5 208.5t-136.5 134t-164 47q-106 0 -181 -33.5t-122 -72.5l-57 115q55 43 146.5 82.5t228.5 39.5q111 0 213 -51t181 -154.5 t127 -260t48 -367.5q0 -190 -37 -356t-110.5 -289t-184 -193.5t-256.5 -70.5q-111 0 -191.5 45t-135 116.5t-80 163.5t-25.5 185zM254 494q0 -82 20.5 -152t58.5 -120t91 -78.5t119 -28.5h2q82 0 149.5 46t116.5 123.5t81 179t44 210.5q-12 37 -41 81t-72 80.5t-99 62.5 t-124 26q-72 0 -134.5 -34t-109.5 -92.5t-74.5 -137t-27.5 -166.5z" />
<glyph unicode="&#x2206;" horiz-adv-x="1464" d="M70 0v111l573 1470h186l566 -1468v-113h-1325zM233 129h990l-336 860q-16 43 -38 99.5t-44.5 112.5t-42 109.5t-29.5 90.5h-8q-8 -31 -24.5 -76t-37 -97t-41 -105.5t-34.5 -98.5z" />
<glyph unicode="&#x220f;" horiz-adv-x="1579" d="M57 1395v143h1461v-143h-250v-1608h-156v1608h-647v-1608h-156v1608h-252z" />
<glyph unicode="&#x2211;" horiz-adv-x="1253" d="M51 -106l613 765l-586 768v111h1087v-137h-864v-8l547 -711l-590 -737v-8h942v-150h-1149v107z" />
<glyph unicode="&#x2212;" d="M135 444v160h991v-160h-991z" />
<glyph unicode="&#x2215;" horiz-adv-x="329" d="M-330 23l899 1548l90 -49l-899 -1549z" />
<glyph unicode="&#x2219;" horiz-adv-x="630" d="M201 524q0 47 33.5 80t80.5 33t81 -33t34 -80t-34 -81.5t-81 -34.5t-80.5 34.5t-33.5 81.5z" />
<glyph unicode="&#x221a;" horiz-adv-x="1286" d="M76 729l301 117l295 -836q10 -39 20 -81t19 -74h2q4 31 12 72.5t18 82.5l422 1817h121l-502 -2159h-143l-362 1026l-168 -63z" />
<glyph unicode="&#x221e;" horiz-adv-x="1740" d="M115 631q0 76 26.5 140.5t73.5 111.5t110.5 73.5t139.5 26.5q63 0 119.5 -22.5t106.5 -60.5t97.5 -87t92.5 -100q45 49 90 97t95 87t107.5 62.5t129.5 23.5q74 0 133 -25.5t101 -70.5t65.5 -107.5t23.5 -138.5v-4q0 -80 -28.5 -145.5t-75.5 -111.5t-108.5 -70.5 t-127.5 -24.5q-53 0 -102 16t-98.5 50t-101.5 84t-112 118q-45 -51 -91 -99t-97 -86t-109.5 -60.5t-125.5 -22.5q-68 0 -128.5 26.5t-106.5 72.5t-72.5 109.5t-26.5 137.5zM223 627q0 -100 65.5 -171t174.5 -71h2q55 0 103 23.5t92.5 60.5t83 79t73.5 79q-39 45 -78 91 t-83 83t-95 60.5t-112 23.5q-53 0 -95.5 -21.5t-71 -56.5t-44 -82t-15.5 -98zM934 637q57 -61 103 -108.5t88 -79t83 -48t86 -16.5q53 0 95.5 21.5t71 56.5t44 79t15.5 89q0 121 -65.5 187.5t-164.5 66.5h-2q-57 0 -108.5 -28t-95.5 -66.5t-81.5 -80.5t-68.5 -73z" />
<glyph unicode="&#x222b;" horiz-adv-x="794" d="M27 -315l28 114q16 -8 43 -18t62 -10q29 0 56.5 13t47.5 38q16 20 30.5 51t26 76t17.5 107.5t6 148.5q0 135 -5 278.5t-11 287.5t-11.5 286.5t-5.5 271.5q0 180 28 290t93 175q41 45 95.5 64.5t109.5 19.5q35 0 70.5 -10t52.5 -21l-27 -110q-16 10 -38.5 17t-45.5 7 q-29 0 -60.5 -12t-53.5 -41q-43 -49 -60.5 -142t-17.5 -253q0 -129 5 -268.5t10 -281.5t10 -284.5t5 -275.5q0 -180 -29.5 -283.5t-66.5 -161.5q-37 -57 -95 -83.5t-124 -26.5q-43 0 -84 12t-61 25z" />
<glyph unicode="&#x2248;" horiz-adv-x="1273" d="M104 365q53 98 132 154t178 56q82 0 144.5 -33.5t109.5 -58.5q57 -29 104 -53t113 -24q70 0 118 40.5t97 124.5l65 -59q-45 -86 -114.5 -147.5t-173.5 -61.5q-70 0 -126.5 24.5t-138.5 71.5q-53 29 -104 52.5t-109 23.5q-80 0 -132 -52t-93 -118zM104 743 q53 98 132 154.5t178 56.5q82 0 144.5 -33.5t109.5 -58.5q59 -33 106 -55.5t109 -22.5q72 0 121 42t96 124l65 -57q-45 -88 -113.5 -149.5t-172.5 -61.5q-35 0 -66 6t-61.5 18.5t-64.5 31t-75 40.5q-53 29 -104 52.5t-109 23.5q-41 0 -72.5 -14.5t-58 -37t-50 -53 t-44.5 -63.5z" />
<glyph unicode="&#x2260;" horiz-adv-x="1273" d="M115 356v105h387l153 330h-540v104h581l123 262l82 -39l-102 -223h358v-104h-401l-154 -330h555v-105h-598l-123 -266l-84 39l107 227h-344z" />
<glyph unicode="&#x2264;" horiz-adv-x="1273" d="M115 8v107h1042v-107h-1042zM129 711v110l1022 504v-125l-909 -430v-4l909 -434v-125z" />
<glyph unicode="&#x2265;" horiz-adv-x="1273" d="M117 8v107h1038v-107h-1038zM131 207v125l907 432v4l-907 432v125l1022 -504v-110z" />
<glyph unicode="&#x25ca;" horiz-adv-x="1286" d="M123 768l457 872h129l452 -872l-456 -870h-130zM268 772l332 -633q14 -35 24.5 -62.5t14.5 -47.5h8q6 20 18.5 53t22.5 55l328 627l-330 631q-12 27 -23.5 58.5t-19.5 53.5h-4q-8 -27 -18.5 -55.5t-26.5 -56.5z" />
<glyph unicode="&#xe000;" horiz-adv-x="962" d="M0 0v963h963v-963h-963z" />
<glyph unicode="&#xfb01;" horiz-adv-x="1062" d="M55 811v152h90v383q0 59 5.5 127.5t37.5 121.5q41 66 107.5 93.5t140.5 27.5q29 0 58.5 -5t58.5 -15v-166q-29 10 -54.5 16t-56.5 6q-49 0 -76.5 -17t-40 -51t-14.5 -83t-2 -113v-325h244v-152h-244v-811h-164v811h-90zM678 1325q0 47 35 82t82 35t81.5 -35t34.5 -82 q0 -49 -34.5 -83t-81.5 -34t-82 34t-35 83zM713 0v963h164v-963h-164z" />
<glyph unicode="&#xfb02;" horiz-adv-x="1026" d="M55 811v152h90v383q0 59 5.5 127.5t37.5 121.5q41 66 107.5 93.5t140.5 27.5q29 0 58.5 -5t58.5 -15v-166q-29 10 -54.5 16t-56.5 6q-49 0 -76.5 -17t-40 -51t-14.5 -83t-2 -113v-325h244v-152h-244v-811h-164v811h-90zM713 0v1690h164v-1690h-164z" />
<glyph horiz-adv-x="708" d="M43 1264q0 61 20.5 117.5t59.5 98.5t94 66.5t127 24.5q63 0 118.5 -25.5t94.5 -72.5h4v81h107v-577h-107v80h-4q-80 -96 -215 -96q-70 0 -125 24.5t-94 66.5t-59.5 97t-20.5 115zM150 1272q0 -43 13 -83t39.5 -71t65.5 -49t88 -18q51 0 90 17t66 48t40 71t13 83 q0 88 -55.5 149.5t-153.5 61.5q-47 0 -85 -17.5t-65.5 -46t-41.5 -66.5t-14 -79z" />
<glyph horiz-adv-x="690" d="M16 1264q0 63 26 119.5t70 97.5t104 65.5t130 24.5t129.5 -24.5t104.5 -65.5t70.5 -97.5t25.5 -119.5t-25.5 -118.5t-70.5 -96.5t-105.5 -64.5t-128.5 -23.5t-128 23.5t-105 64.5t-71 96t-26 119zM123 1266q0 -45 16.5 -84t46 -69t70.5 -46t90 -16t90 16t71 46t46 69 t16 84q0 43 -16 83t-46 68.5t-71 46t-90 17.5t-90 -17.5t-70.5 -46t-46 -68.5t-16.5 -83z" />
</font>
</defs>
</svg>
